<svg width="316" height="217" viewBox="0 0 316 217" fill="none" xmlns="http://www.w3.org/2000/svg">
<rect x="0.5" width="315" height="217" rx="12" fill="#F1F5F9"/>
<path d="M66.82 86.28H55.62V92.92H66.5V98.2H55.62V109H50.1V81H66.82V86.28ZM87.8022 109L82.1622 99.28H77.9622V109H72.4422V81H83.6422C86.2289 81 88.4289 81.9067 90.2422 83.72C92.0555 85.5333 92.9622 87.72 92.9622 90.28C92.9622 92.0133 92.4689 93.6267 91.4822 95.12C90.4955 96.5867 89.1889 97.6933 87.5622 98.44L93.7622 109H87.8022ZM77.9622 86.16V94.44H83.6422C84.6822 94.44 85.5755 94.04 86.3222 93.24C87.0689 92.4133 87.4422 91.4267 87.4422 90.28C87.4422 89.1333 87.0689 88.16 86.3222 87.36C85.5755 86.56 84.6822 86.16 83.6422 86.16H77.9622ZM104.133 103.72H115.933V109H98.6125V81H115.733V86.28H104.133V92.24H114.733V97.44H104.133V103.72ZM126.943 103.72H138.743V109H121.423V81H138.543V86.28H126.943V92.24H137.543V97.44H126.943V103.72ZM51.4 123H53.8V137H51.04V125.92L48.4 126.66L47.72 124.3L51.4 123ZM76.0344 123V137H73.2944V127.92L69.3544 134.42H69.0344L65.0944 127.94V137H62.3344V123H65.1744L69.1944 129.62L73.1944 123H76.0344ZM87.443 135.76C86.4163 136.773 85.163 137.28 83.683 137.28C82.203 137.28 80.9496 136.773 79.923 135.76C78.9096 134.733 78.403 133.48 78.403 132C78.403 130.52 78.9096 129.273 79.923 128.26C80.9496 127.233 82.203 126.72 83.683 126.72C85.163 126.72 86.4163 127.233 87.443 128.26C88.4696 129.273 88.983 130.52 88.983 132C88.983 133.48 88.4696 134.733 87.443 135.76ZM81.743 133.98C82.263 134.5 82.9096 134.76 83.683 134.76C84.4563 134.76 85.103 134.5 85.623 133.98C86.143 133.46 86.403 132.8 86.403 132C86.403 131.2 86.143 130.54 85.623 130.02C85.103 129.5 84.4563 129.24 83.683 129.24C82.9096 129.24 82.263 129.5 81.743 130.02C81.2363 130.54 80.983 131.2 80.983 132C80.983 132.8 81.2363 133.46 81.743 133.98ZM96.758 126.72C97.8513 126.72 98.7513 127.087 99.458 127.82C100.178 128.553 100.538 129.567 100.538 130.86V137H97.958V131.18C97.958 130.513 97.778 130.007 97.418 129.66C97.058 129.3 96.578 129.12 95.978 129.12C95.3113 129.12 94.778 129.327 94.378 129.74C93.978 130.153 93.778 130.773 93.778 131.6V137H91.198V127H93.778V128.12C94.4046 127.187 95.398 126.72 96.758 126.72ZM108.861 129.48H106.601V133.64C106.601 133.987 106.688 134.24 106.861 134.4C107.034 134.56 107.288 134.653 107.621 134.68C107.954 134.693 108.368 134.687 108.861 134.66V137C107.088 137.2 105.834 137.033 105.101 136.5C104.381 135.967 104.021 135.013 104.021 133.64V129.48H102.281V127H104.021V124.98L106.601 124.2V127H108.861V129.48ZM116.64 126.72C117.733 126.72 118.633 127.087 119.34 127.82C120.06 128.553 120.42 129.567 120.42 130.86V137H117.84V131.18C117.84 130.513 117.66 130.007 117.3 129.66C116.94 129.3 116.46 129.12 115.86 129.12C115.193 129.12 114.66 129.327 114.26 129.74C113.86 130.153 113.66 130.773 113.66 131.6V137H111.08V123H113.66V128.12C114.287 127.187 115.28 126.72 116.64 126.72Z" fill="#020617"/>
<path d="M210.193 51.5078C212.858 49.9575 216.15 49.9575 218.815 51.5078L264.237 77.9305C266.876 79.4657 268.499 82.2883 268.499 85.3413V132.659C268.499 135.712 266.876 138.534 264.237 140.069L218.815 166.492C216.15 168.042 212.858 168.042 210.193 166.492L164.771 140.069C162.132 138.534 160.509 135.712 160.509 132.659V85.3413C160.509 82.2883 162.132 79.4657 164.771 77.9305L210.193 51.5078Z" fill="#3940A0"/>
<mask id="mask0_1_29659" style="mask-type:alpha" maskUnits="userSpaceOnUse" x="160" y="50" width="109" height="118">
<path d="M210.184 51.5078C212.849 49.9575 216.141 49.9575 218.806 51.5078L264.228 77.9305C266.867 79.4657 268.49 82.2883 268.49 85.3413V132.659C268.49 135.712 266.867 138.534 264.228 140.069L218.806 166.492C216.141 168.042 212.849 168.042 210.184 166.492L164.762 140.069C162.124 138.534 160.5 135.712 160.5 132.659V85.3413C160.5 82.2883 162.124 79.4657 164.762 77.9305L210.184 51.5078Z" fill="#C4C4C4"/>
</mask>
<g mask="url(#mask0_1_29659)">
<rect x="183.633" y="106.111" width="9.68515" height="55.6992" fill="white"/>
<mask id="mask1_1_29659" style="mask-type:alpha" maskUnits="userSpaceOnUse" x="196" y="85" width="20" height="10">
<rect x="215.593" y="85.0991" width="9.02468" height="19.3703" transform="rotate(90 215.593 85.0991)" fill="#CD6767"/>
</mask>
<g mask="url(#mask1_1_29659)">
<path d="M196.222 94.1238C196.222 92.9387 196.473 91.7651 196.96 90.6702C197.446 89.5753 198.16 88.5804 199.059 87.7424C199.958 86.9044 201.026 86.2396 202.201 85.7861C203.376 85.3326 204.636 85.0991 205.907 85.0991L205.907 94.1238L196.222 94.1238Z" fill="white"/>
</g>
<mask id="mask2_1_29659" style="mask-type:alpha" maskUnits="userSpaceOnUse" x="213" y="85" width="20" height="10">
<rect x="232.807" y="85.0991" width="9.02468" height="19.3703" rx="0.535841" transform="rotate(90 232.807 85.0991)" fill="#CD6767"/>
</mask>
<g mask="url(#mask2_1_29659)">
<path d="M213.973 94.1238C213.677 94.1238 213.435 93.8836 213.454 93.5883C213.594 91.3901 214.593 89.3082 216.274 87.7424C218.09 86.0499 220.554 85.0991 223.122 85.0991C225.691 85.0991 228.154 86.0499 229.971 87.7424C231.651 89.3082 232.65 91.3901 232.79 93.5883C232.809 93.8836 232.568 94.1238 232.272 94.1238L223.122 94.1238L213.973 94.1238Z" fill="white"/>
</g>
<path d="M219.87 118.518C220.166 118.518 220.406 118.758 220.406 119.054L220.406 127.007C220.406 127.303 220.166 127.543 219.87 127.543L193.318 127.543L193.318 118.518L219.87 118.518Z" fill="white"/>
<path d="M232.84 130.222L223.155 130.222L223.155 109.042C223.155 108.746 223.394 108.507 223.69 108.507L232.304 108.507C232.6 108.507 232.84 108.746 232.84 109.042L232.84 130.222Z" fill="white"/>
<path d="M196.201 94.1196L205.886 94.1196L205.886 115.299C205.886 115.595 205.646 115.835 205.35 115.835L196.737 115.835C196.441 115.835 196.201 115.595 196.201 115.299L196.201 94.1196Z" fill="white"/>
<path d="M235.693 96.8032L235.693 105.828L209.292 105.828C208.996 105.828 208.756 105.588 208.756 105.292L208.756 97.3391C208.756 97.0431 208.996 96.8032 209.292 96.8032L235.693 96.8032Z" fill="white"/>
<path d="M223.157 130.222L223.157 139.247L196.22 139.247L196.22 130.758C196.22 130.462 196.46 130.222 196.756 130.222L223.157 130.222Z" fill="white"/>
<rect x="223.005" y="85.0991" width="9.02468" height="17.1003" transform="rotate(90 223.005 85.0991)" fill="white"/>
<mask id="mask3_1_29659" style="mask-type:alpha" maskUnits="userSpaceOnUse" x="235" y="96" width="11" height="19">
<rect x="245.364" y="114.854" width="9.68515" height="18.0494" transform="rotate(-180 245.364 114.854)" fill="#CD6767"/>
</mask>
<g mask="url(#mask3_1_29659)">
<path d="M235.679 96.8042C238.248 96.8042 240.711 97.755 242.527 99.4474C244.344 101.14 245.364 103.435 245.364 105.829L235.679 105.829L235.679 96.8042Z" fill="white"/>
</g>
<mask id="mask4_1_29659" style="mask-type:alpha" maskUnits="userSpaceOnUse" x="235" y="112" width="11" height="19">
<rect x="245.39" y="130.929" width="9.68515" height="18.0494" rx="0.535841" transform="rotate(-180 245.39 130.929)" fill="#CD6767"/>
</mask>
<g mask="url(#mask4_1_29659)">
<path d="M235.705 113.415C235.705 113.119 235.945 112.878 236.241 112.893C238.614 113.016 240.864 113.948 242.554 115.523C244.37 117.215 245.39 119.511 245.39 121.904C245.39 124.298 244.37 126.593 242.554 128.285C240.864 129.86 238.614 130.792 236.241 130.915C235.945 130.93 235.705 130.689 235.705 130.393L235.705 121.904L235.705 113.415Z" fill="white"/>
</g>
<rect x="245.39" y="121.903" width="9.68515" height="16.0752" transform="rotate(-180 245.39 121.903)" fill="white"/>
<path d="M196.224 139.247H205.91V167.477C205.91 167.773 205.67 168.013 205.374 168.013H196.76C196.464 168.013 196.224 167.773 196.224 167.477V139.247Z" fill="white"/>
<mask id="mask5_1_29659" style="mask-type:alpha" maskUnits="userSpaceOnUse" x="183" y="97" width="11" height="19">
<rect x="183.633" y="97.0884" width="9.68515" height="18.0494" rx="0.535841" fill="#CD6767"/>
</mask>
<g mask="url(#mask5_1_29659)">
<ellipse cx="193.318" cy="106.113" rx="9.68515" ry="9.02468" fill="white"/>
</g>
<mask id="mask6_1_29659" style="mask-type:alpha" maskUnits="userSpaceOnUse" x="223" y="130" width="10" height="10">
<rect x="223.157" y="139.247" width="9.02468" height="9.68515" transform="rotate(-90 223.157 139.247)" fill="#CD6767"/>
</mask>
<g mask="url(#mask6_1_29659)">
<path d="M232.808 130.222C232.808 131.408 232.557 132.581 232.07 133.676C231.584 134.771 230.87 135.766 229.971 136.604C229.072 137.442 228.004 138.107 226.829 138.56C225.654 139.014 224.394 139.247 223.122 139.247L223.122 130.222L232.808 130.222Z" fill="white"/>
</g>
</g>
<rect x="12.5" y="8" width="67" height="30" rx="15" fill="#7BC0FA"/>
<path d="M32.714 27.182C31.7993 27.182 31.0153 26.9673 30.362 26.538C29.718 26.1087 29.2653 25.5207 29.004 24.774L30.124 24.13C30.5067 25.3153 31.3793 25.908 32.742 25.908C33.414 25.908 33.9273 25.7727 34.282 25.502C34.6367 25.222 34.814 24.8533 34.814 24.396C34.814 23.9293 34.6367 23.5793 34.282 23.346C33.9273 23.1127 33.3347 22.8653 32.504 22.604C32.0933 22.4733 31.7807 22.3707 31.566 22.296C31.3513 22.212 31.0807 22.0907 30.754 21.932C30.4367 21.764 30.1987 21.596 30.04 21.428C29.8813 21.2507 29.7367 21.022 29.606 20.742C29.4847 20.462 29.424 20.1447 29.424 19.79C29.424 18.9407 29.7227 18.2687 30.32 17.774C30.9173 17.27 31.6453 17.018 32.504 17.018C33.2787 17.018 33.9507 17.214 34.52 17.606C35.0987 17.998 35.5327 18.516 35.822 19.16L34.73 19.79C34.31 18.782 33.568 18.278 32.504 18.278C31.972 18.278 31.5427 18.4087 31.216 18.67C30.8893 18.9313 30.726 19.286 30.726 19.734C30.726 20.1633 30.88 20.49 31.188 20.714C31.496 20.938 32.028 21.1713 32.784 21.414C33.0547 21.498 33.246 21.5587 33.358 21.596C33.47 21.6333 33.6427 21.6987 33.876 21.792C34.1187 21.8853 34.296 21.96 34.408 22.016C34.52 22.072 34.6693 22.1513 34.856 22.254C35.052 22.3567 35.1967 22.4547 35.29 22.548C35.3833 22.6413 35.4907 22.758 35.612 22.898C35.7427 23.0287 35.836 23.164 35.892 23.304C35.948 23.444 35.9947 23.6073 36.032 23.794C36.0787 23.9713 36.102 24.1627 36.102 24.368C36.102 25.2267 35.7893 25.9127 35.164 26.426C34.5387 26.93 33.722 27.182 32.714 27.182ZM43.7578 20H44.9758V27H43.7578V25.796C43.1511 26.72 42.2691 27.182 41.1118 27.182C40.1318 27.182 39.2965 26.8273 38.6058 26.118C37.9151 25.3993 37.5698 24.5267 37.5698 23.5C37.5698 22.4733 37.9151 21.6053 38.6058 20.896C39.2965 20.1773 40.1318 19.818 41.1118 19.818C42.2691 19.818 43.1511 20.28 43.7578 21.204V20ZM41.2658 26.006C41.9751 26.006 42.5678 25.768 43.0438 25.292C43.5198 24.8067 43.7578 24.2093 43.7578 23.5C43.7578 22.7907 43.5198 22.198 43.0438 21.722C42.5678 21.2367 41.9751 20.994 41.2658 20.994C40.5658 20.994 39.9778 21.2367 39.5018 21.722C39.0258 22.198 38.7878 22.7907 38.7878 23.5C38.7878 24.2093 39.0258 24.8067 39.5018 25.292C39.9778 25.768 40.5658 26.006 41.2658 26.006ZM52.9112 20H54.1152V26.706C54.1152 27.742 53.7652 28.5447 53.0652 29.114C52.3652 29.6927 51.5252 29.982 50.5452 29.982C49.7612 29.982 49.0845 29.8327 48.5152 29.534C47.9459 29.2447 47.5165 28.8247 47.2272 28.274L48.2912 27.672C48.6739 28.456 49.4345 28.848 50.5732 28.848C51.3012 28.848 51.8705 28.6567 52.2812 28.274C52.7012 27.8913 52.9112 27.3687 52.9112 26.706V25.712C52.2952 26.6453 51.4179 27.112 50.2792 27.112C49.2805 27.112 48.4359 26.7573 47.7452 26.048C47.0545 25.3387 46.7092 24.4753 46.7092 23.458C46.7092 22.4407 47.0545 21.582 47.7452 20.882C48.4359 20.1727 49.2805 19.818 50.2792 19.818C51.4272 19.818 52.3045 20.28 52.9112 21.204V20ZM48.6412 25.236C49.1172 25.712 49.7099 25.95 50.4192 25.95C51.1285 25.95 51.7212 25.712 52.1972 25.236C52.6732 24.76 52.9112 24.1673 52.9112 23.458C52.9112 22.758 52.6732 22.17 52.1972 21.694C51.7212 21.218 51.1285 20.98 50.4192 20.98C49.7099 20.98 49.1172 21.218 48.6412 21.694C48.1652 22.17 47.9272 22.758 47.9272 23.458C47.9272 24.1673 48.1652 24.76 48.6412 25.236ZM57.0946 24.06C57.2159 24.6853 57.5006 25.1707 57.9486 25.516C58.4059 25.8613 58.9659 26.034 59.6286 26.034C60.5526 26.034 61.2246 25.6933 61.6446 25.012L62.6806 25.6C61.9992 26.6547 60.9726 27.182 59.6006 27.182C58.4899 27.182 57.5846 26.8367 56.8846 26.146C56.1939 25.446 55.8486 24.564 55.8486 23.5C55.8486 22.4453 56.1892 21.568 56.8706 20.868C57.5519 20.168 58.4339 19.818 59.5166 19.818C60.5432 19.818 61.3786 20.182 62.0226 20.91C62.6759 21.6287 63.0026 22.4967 63.0026 23.514C63.0026 23.6913 62.9886 23.8733 62.9606 24.06H57.0946ZM59.5166 20.966C58.8632 20.966 58.3219 21.1527 57.8926 21.526C57.4632 21.89 57.1972 22.38 57.0946 22.996H61.7706C61.6679 22.3333 61.4066 21.8293 60.9866 21.484C60.5666 21.1387 60.0766 20.966 59.5166 20.966Z" fill="#020617"/>
</svg>
