<svg width="316" height="217" viewBox="0 0 316 217" fill="none" xmlns="http://www.w3.org/2000/svg">
<rect x="0.5" width="315" height="217" rx="12" fill="#F2F4FC"/>
<path d="M112.373 160.085L271.007 160.085L271.007 55.9998L112.373 55.9998L112.373 160.085Z" fill="#112954"/>
<path d="M142.409 60.0991H136.907V65.5943H142.409V60.0991Z" fill="#E0994B"/>
<path d="M132.912 60.1646H127.41V65.6598H132.912V60.1646Z" fill="#E0994B"/>
<path d="M123.415 60.23H117.913V65.7252H123.415V60.23Z" fill="#E0994B"/>
<path d="M112.375 169.774L271.009 169.774L271.009 69.7772L112.375 69.7772L112.375 169.774Z" fill="#FFFEFF"/>
<mask id="mask0_1_29703" style="mask-type:luminance" maskUnits="userSpaceOnUse" x="155" y="72" width="74" height="98">
<path d="M155.788 169.609L228.96 169.609L228.96 72.6508L155.788 72.6508L155.788 169.609Z" fill="white"/>
</mask>
<g mask="url(#mask0_1_29703)">
<path d="M187.309 126.205C186.554 125.123 185.367 122.411 185.007 121.574V111.54L197.744 110.883L197.763 118.457C197.903 118.808 198.278 119.644 198.922 120.581C197.257 121.698 190.892 125.827 187.309 126.205Z" fill="#F9B3AB"/>
<path d="M185.007 112.833L185.01 118.803C185.01 118.803 193.949 122.854 197.683 120.725C199.631 119.614 198.431 116.346 198.164 110.845L185.007 112.833Z" fill="#E59995"/>
<path d="M183.099 118.745C180.011 118.615 177.323 115.372 175.593 111.65C174.066 108.364 172.674 99.4451 173.011 94.1506C173.636 84.3283 177.94 74.4197 190.672 77.3627C205.965 80.8979 204.837 92.8014 202.277 98.8027C202.277 98.8027 205.64 96.7115 205.887 101.145C206.166 106.133 203.483 107.191 201.119 106.768C200.914 106.731 200.604 109.113 199.585 110.758C198.843 111.955 191.755 119.109 183.099 118.745Z" fill="#F9B3AB"/>
<path d="M178.872 111.009C178.872 111.009 179.87 114.908 182.569 113.893C185.268 112.878 185.503 110.956 185.503 110.956C185.503 110.956 180.457 111.436 178.872 111.009Z" fill="#FFFEFF"/>
<path d="M189.102 102.456C189.129 101.262 188.508 100.28 187.717 100.262C186.925 100.244 186.261 101.198 186.234 102.392C186.208 103.586 186.828 104.569 187.62 104.586C188.411 104.604 189.075 103.65 189.102 102.456Z" fill="#3B1D53"/>
<path d="M190.324 99.4789C190.431 99.1763 190.291 98.8424 190.032 98.6653C189.399 98.2316 187.943 97.3809 186.795 97.8278C185.284 98.4159 185.769 99.0423 186.115 99.2714C186.462 99.5005 187.404 98.8788 188.643 99.5596C189.571 100.07 190.156 99.9518 190.324 99.4789Z" fill="#3B1D53"/>
<path d="M177.101 102.164C177.119 100.969 176.492 99.9915 175.7 99.9797C174.908 99.9678 174.251 100.926 174.233 102.121C174.215 103.315 174.843 104.293 175.635 104.305C176.427 104.317 177.083 103.358 177.101 102.164Z" fill="#3B1D53"/>
<path d="M173.372 98.9393C173.305 98.6717 173.453 98.3981 173.688 98.2677C174.265 97.9489 175.58 97.3417 176.524 97.8181C177.766 98.4449 177.301 98.9409 176.985 99.1081C176.67 99.2757 175.917 98.6661 174.802 99.1465C173.966 99.5065 173.476 99.3573 173.372 98.9393Z" fill="#3B1D53"/>
<path d="M180.512 104.76C180.512 104.76 178.053 106.309 179.71 107.431C181.368 108.552 182.223 107.537 182.223 107.537C182.223 107.537 182.196 107.11 181.902 107.11C181.608 107.11 181.047 107.564 180.164 106.95C179.282 106.336 180.699 105.268 180.806 105.054C180.913 104.841 180.512 104.76 180.512 104.76Z" fill="#3B1D53"/>
<path d="M201.227 104.584C201.227 104.584 200.572 100.2 202.471 98.6958C203.922 97.5468 206.205 91.3688 204.764 85.0889C203.322 78.8089 200.183 77.5284 192.061 75.9582C183.939 74.3883 175.289 78.9396 173.979 81.9487C172.669 84.9577 172.407 89.5371 170.311 89.7989C168.215 90.0608 169.787 96.0793 173.586 95.9482C177.385 95.817 176.337 93.5931 184.066 93.2005C191.795 92.808 197.689 93.4624 197.821 99.0228C197.91 102.825 198.738 106.677 201.227 104.584Z" fill="#3B1D53"/>
<path d="M202.278 98.8029C203.461 96.0286 204.337 91.9929 203.427 88.1056L205.091 87.4443C205.091 87.4443 205.056 93.2646 204.858 98.5815C203.787 97.8663 202.278 98.8029 202.278 98.8029Z" fill="#3B1D53"/>
<path d="M201.119 106.768C202.228 106.967 203.408 106.84 204.318 106.133C204.283 106.343 204.246 106.527 204.207 106.677C203.823 108.163 201.868 109.321 199.934 110.116C200.68 108.558 200.94 106.736 201.119 106.768Z" fill="#3B1D53"/>
<path d="M172.67 91.0748C172.67 91.0748 171.884 94.6075 179.154 92.1541C186.424 89.7008 195.07 91.1727 196.445 92.4484C197.821 93.724 200.375 87.2478 193.4 85.6775C186.424 84.1076 180.628 88.1309 176.698 89.897C172.768 91.6632 172.67 91.0748 172.67 91.0748Z" fill="#3E2259"/>
<path d="M163.729 150.17C163.729 150.17 162.185 164.908 162.357 169.192C162.529 173.476 169.503 177.974 174.307 177.46C179.111 176.946 172.995 157.368 172.309 154.626C171.622 151.884 170.593 146.058 163.729 150.17Z" fill="#F9B3AB"/>
<path d="M169.591 128.396C169.591 128.396 167.43 129.606 164.634 136.2C163.788 138.196 162.517 151.554 162.517 151.554L175.683 158.75L174.111 147.923L169.591 128.396Z" fill="#D8914A"/>
<path d="M170.18 153.386L170.443 159.012C170.443 159.012 161.993 153.582 162.124 153.059C162.255 152.536 162.452 148.087 162.452 148.087L170.18 153.386Z" fill="#CE8741"/>
<path d="M209.021 139.451C209.021 139.451 208.235 188.711 207.056 189.3C205.877 189.889 174.438 190.87 172.08 189.889C169.722 188.908 170.508 154.955 171.687 149.068C172.866 143.18 187.21 133.171 187.21 133.171L209.021 139.451Z" fill="#E0994B"/>
<path d="M184.047 122.674C184.047 122.674 184.063 126.792 189.782 126.449C195.501 126.106 199.334 120.301 199.334 120.301C199.334 120.301 212.358 126.607 218.649 131.405C223.709 135.264 191.44 149.469 191.44 149.469L171.228 182.431C171.228 182.431 168.467 128.788 169.394 128.396C171.429 127.536 179.129 123.531 184.047 122.674Z" fill="#E0994B"/>
<path d="M207.842 157.604L207.253 188.841L213.725 155.146L207.842 157.604Z" fill="#CE8741"/>
<path d="M208.039 151.03L207.646 176.02L213.672 158.75L208.039 151.03Z" fill="#CE8741"/>
<path d="M198.754 118.207L203.061 122.311C203.061 122.311 199.049 129.982 189.814 129C180.578 128.019 182.15 123.309 182.15 123.309L184.95 120.954C184.95 120.954 185.54 124.634 192.123 123.456C198.705 122.279 198.754 118.207 198.754 118.207Z" fill="#CE8741"/>
<path d="M225.962 149.895C222.936 151.254 216.168 162.115 213.021 162.819C214.569 168.399 217.353 179.616 218.503 182.919C220.212 187.829 219.873 192.758 225.814 190.332C227.763 189.536 229.801 188.278 230.162 183.76C230.708 176.923 227.243 155.599 225.962 149.895Z" fill="#F9B3AB"/>
<path d="M218.501 131.497C218.501 131.497 215.412 133.981 210.38 138.436C205.347 142.892 208.401 150.116 209.873 156.264C211.76 164.147 212.231 166.207 212.231 166.207C212.231 166.207 227.379 156.964 227.951 155.479C228.522 153.994 223.649 133.097 218.501 131.497Z" fill="#E0994B"/>
<path d="M229.129 155.086L211.707 167.254L210.331 162.151L227.426 149.264L229.129 155.086Z" fill="#D8914A"/>
</g>
<path d="M137.971 111.664H121.926C113.005 111.664 105.774 104.442 105.774 95.5328C105.774 86.6236 113.005 79.4014 121.926 79.4014H137.971C146.891 79.4014 154.122 86.6236 154.122 95.5328C154.122 104.442 146.891 111.664 137.971 111.664Z" fill="#E0994B"/>
<path d="M134.976 104.875L156.868 116.752L149.26 104.326L134.976 104.875Z" fill="#E0994B"/>
<path d="M120.692 95.2393C120.692 97.0722 119.204 98.5582 117.369 98.5582C115.534 98.5582 114.046 97.0722 114.046 95.2393C114.046 93.4063 115.534 91.9204 117.369 91.9204C119.204 91.9204 120.692 93.4059 120.692 95.2393Z" fill="#FFFEFF"/>
<path d="M129.664 98.7793C131.499 98.7793 132.987 97.2934 132.987 95.4605C132.987 93.6275 131.499 92.1416 129.664 92.1416C127.829 92.1416 126.341 93.6275 126.341 95.4605C126.341 97.2934 127.829 98.7793 129.664 98.7793Z" fill="#FFFEFF"/>
<path d="M142.07 98.7793C143.906 98.7793 145.393 97.2934 145.393 95.4605C145.393 93.6275 143.906 92.1416 142.07 92.1416C140.235 92.1416 138.747 93.6275 138.747 95.4605C138.747 97.2934 140.235 98.7793 142.07 98.7793Z" fill="#FFFEFF"/>
<path d="M228.081 114.396L262.092 114.396L262.092 74.5596L228.081 74.5596L228.081 114.396Z" fill="#3B1D53"/>
<path d="M246.633 84.4458L259.463 84.4458L259.463 79.3076L246.633 79.3076L246.633 84.4458Z" fill="#DAE1ED"/>
<path d="M243.54 93.6562L259.511 93.6562L259.511 90.8759L243.54 90.8759L243.54 93.6562Z" fill="#DAE1ED"/>
<path d="M233.395 99.4399L259.535 99.4399L259.535 96.6596L233.395 96.6596L233.395 99.4399Z" fill="#DAE1ED"/>
<path d="M240.062 105.225L259.56 105.225L259.56 102.444L240.062 102.444L240.062 105.225Z" fill="#DAE1ED"/>
<path d="M232.912 111.009L259.584 111.009L259.584 108.228L232.912 108.228L232.912 111.009Z" fill="#DAE1ED"/>
<path d="M246.306 162.341C251.122 162.341 255.025 158.442 255.025 153.632C255.025 148.823 251.122 144.924 246.306 144.924C241.491 144.924 237.588 148.823 237.588 153.632C237.588 158.442 241.491 162.341 246.306 162.341Z" fill="#3B1D53"/>
<path d="M251.917 150.004H242.727V157.325H251.917V150.004Z" fill="#DAE1ED"/>
<path d="M246 151.573H240.511V155.946H246V151.573Z" fill="#DAE1ED"/>
<path d="M241.544 151.042H239.537V156.506H241.544V151.042Z" fill="#DAE1ED"/>
<path d="M246.325 139.917C251.141 139.917 255.044 136.019 255.044 131.209C255.044 126.4 251.141 122.501 246.325 122.501C241.51 122.501 237.606 126.4 237.606 131.209C237.606 136.019 241.51 139.917 246.325 139.917Z" fill="#3B1D53"/>
<path d="M239.52 131.342L240.463 130.063C240.506 130.005 240.562 129.973 240.612 129.929L240.596 129.908C240.596 129.908 243.214 127.353 246.386 127.57C249.357 127.773 251.413 129.645 251.665 129.885C251.734 129.926 251.806 129.96 251.865 130.024L252.907 131.136C253.094 131.336 253.197 131.621 253.188 131.914L253.139 133.476L249.496 133.428L249.447 132.088C249.438 131.834 249.512 131.585 249.655 131.391L249.95 130.99C249.342 130.278 248.087 129.221 245.946 129.27C244.063 129.312 242.976 130.063 242.388 130.678L242.772 131.088C242.959 131.288 243.061 131.572 243.053 131.866L243.004 133.428L239.361 133.38L239.312 132.039C239.303 131.785 239.377 131.536 239.52 131.342Z" fill="#DAE1ED"/>
<path d="M147.157 178.031H145.219V176.89H147.157V174.865H148.344V176.89H150.282V178.031H148.344V180.055H147.157V178.031Z" fill="white"/>
<path d="M110.719 203.274H108.781V202.133H110.719V200.109H111.906V202.133H113.844V203.274H111.906V205.299H110.719V203.274Z" fill="white"/>
<path d="M71.1229 63.4222H69.1848V62.2813H71.1229V60.2568H72.3092V62.2813H74.2473V63.4222H72.3092V65.4466H71.1229V63.4222Z" fill="white"/>
<path d="M95.924 67.4945H93.9859V66.3535H95.924V64.3291H97.1103V66.3535H99.0484V67.4945H97.1103V69.5189H95.924V67.4945Z" fill="white"/>
<path d="M84.467 82.1461C82.958 82.1461 81.7304 80.92 81.7304 79.4129C81.7304 77.9058 82.958 76.6797 84.467 76.6797C85.976 76.6797 87.2036 77.9058 87.2036 79.4129C87.2036 80.92 85.976 82.1461 84.467 82.1461ZM84.467 77.6639C83.5012 77.6639 82.7155 78.4487 82.7155 79.4129C82.7155 80.3775 83.5012 81.1623 84.467 81.1623C85.4324 81.1623 86.2181 80.3775 86.2181 79.4129C86.2181 78.4487 85.4324 77.6639 84.467 77.6639Z" fill="white"/>
<path d="M228.944 178.089H227.006V176.948H228.944V174.924H230.13V176.948H232.068V178.089H230.13V180.114H228.944V178.089Z" fill="white"/>
<path d="M265.85 188.802C264.341 188.802 263.114 187.576 263.114 186.069C263.114 184.562 264.341 183.335 265.85 183.335C267.359 183.335 268.587 184.562 268.587 186.069C268.587 187.576 267.359 188.802 265.85 188.802ZM265.85 184.32C264.884 184.32 264.099 185.104 264.099 186.069C264.099 187.033 264.884 187.818 265.85 187.818C266.816 187.818 267.601 187.033 267.601 186.069C267.601 185.104 266.816 184.32 265.85 184.32Z" fill="white"/>
<path d="M201.578 184.27C200.069 184.27 198.841 183.044 198.841 181.537C198.841 180.03 200.069 178.804 201.578 178.804C203.087 178.804 204.315 180.03 204.315 181.537C204.314 183.044 203.087 184.27 201.578 184.27ZM201.578 179.788C200.612 179.788 199.826 180.572 199.826 181.537C199.826 182.501 200.612 183.286 201.578 183.286C202.543 183.286 203.329 182.501 203.329 181.537C203.329 180.572 202.543 179.788 201.578 179.788Z" fill="white"/>
<path d="M55.0978 136.513H53.1598V135.372H55.0978V133.348H56.2842V135.372H58.2223V136.513H56.2842V138.537H55.0978V136.513Z" fill="white"/>
<path d="M37.4863 157.442H35.5482V156.301H37.4863V154.277H38.6726V156.301H40.6107V157.442H38.6726V159.467H37.4863V157.442Z" fill="white"/>
<path d="M38.8233 188.818C37.3143 188.818 36.0867 187.591 36.0867 186.084C36.0867 184.577 37.3143 183.351 38.8233 183.351C40.3323 183.351 41.5599 184.577 41.5599 186.084C41.5595 187.591 40.3319 188.818 38.8233 188.818ZM38.8233 184.335C37.8575 184.335 37.0718 185.12 37.0718 186.084C37.0718 187.049 37.8575 187.834 38.8233 187.834C39.7887 187.834 40.5744 187.049 40.5744 186.084C40.5744 185.12 39.7887 184.335 38.8233 184.335Z" fill="white"/>
<path d="M40.024 130.451C38.5151 130.451 37.2875 129.225 37.2875 127.718C37.2875 126.211 38.5151 124.985 40.024 124.985C41.533 124.985 42.7606 126.211 42.7606 127.718C42.7602 129.225 41.5326 130.451 40.024 130.451ZM40.024 125.969C39.0582 125.969 38.2725 126.754 38.2725 127.718C38.2725 128.683 39.0582 129.467 40.024 129.467C40.9895 129.467 41.7752 128.683 41.7752 127.718C41.7752 126.754 40.9895 125.969 40.024 125.969Z" fill="white"/>
<mask id="mask1_1_29703" style="mask-type:luminance" maskUnits="userSpaceOnUse" x="41" y="82" width="110" height="132">
<path d="M41.4352 213.957L150.485 213.957L150.485 82.6692L41.4352 82.6692L41.4352 213.957Z" fill="white"/>
</mask>
<g mask="url(#mask1_1_29703)">
<path d="M97.3104 114.958C97.3104 114.958 96.7308 122.249 96.3253 122.828C95.9199 123.407 95.3983 128.963 94.9348 130.988C94.4713 133.014 89.8936 138.28 88.6192 138.454C87.3443 138.627 84.8527 138.28 84.8527 138.28L84.3892 129.426C84.3892 129.426 93.7181 113.511 95.3407 113.106C96.9634 112.7 97.3104 114.958 97.3104 114.958Z" fill="#ED989B"/>
<path d="M84.9684 131.77L85.1425 142.013L68.194 140.364L69.3239 128.558L84.9684 131.77Z" fill="#ED989B"/>
<path d="M84.8527 133.216L85.0555 138.28L85.9819 132.696L84.8527 133.216Z" fill="#E28D93"/>
<path d="M65.152 94.3552C67.1221 92.2716 92.0958 91.4037 95.9199 98.0011C97.5562 100.823 97.6002 105.467 97.4845 108.129C97.4845 108.129 98.8174 114.148 97.3108 114.958C97.1375 115.051 96.953 115.18 96.7624 115.333C96.4927 116.857 96.1216 118.958 95.8042 120.778C95.5505 122.232 95.3311 123.506 95.2247 124.16C94.8768 126.301 94.1235 125.143 94.1235 125.143C94.1235 125.143 94.1263 125.127 94.1307 125.1C94.1383 125.054 94.1516 124.971 94.1676 124.858C94.168 124.855 94.1684 124.853 94.1688 124.85C94.1732 124.819 94.1776 124.785 94.1824 124.75C94.1832 124.742 94.1844 124.736 94.1852 124.728C94.19 124.692 94.1948 124.653 94.1996 124.613C94.2004 124.605 94.2016 124.598 94.2024 124.591C94.2072 124.553 94.2116 124.513 94.2164 124.473C94.218 124.459 94.2192 124.447 94.2208 124.433C94.2252 124.393 94.2296 124.351 94.234 124.308C94.2356 124.294 94.2368 124.28 94.2384 124.266C94.2428 124.222 94.2472 124.177 94.2512 124.131C94.2528 124.115 94.254 124.1 94.2556 124.084C94.2596 124.036 94.2636 123.988 94.2676 123.938C94.2688 123.923 94.27 123.908 94.2712 123.893C94.2752 123.841 94.2788 123.789 94.2824 123.735C94.2832 123.721 94.2844 123.707 94.2852 123.692C94.2884 123.639 94.2916 123.584 94.2944 123.529C94.2952 123.513 94.296 123.497 94.2968 123.481C94.2992 123.425 94.3016 123.369 94.3036 123.312C94.3041 123.296 94.3049 123.281 94.3052 123.265C94.3069 123.208 94.3081 123.15 94.3093 123.092C94.3097 123.076 94.3097 123.059 94.3101 123.043C94.3109 122.984 94.3109 122.925 94.3105 122.865C94.3105 122.85 94.3105 122.834 94.3101 122.819C94.3097 122.758 94.3085 122.698 94.3069 122.638C94.3065 122.622 94.3061 122.606 94.3057 122.591C94.3036 122.53 94.3013 122.47 94.298 122.409C94.2972 122.394 94.2964 122.379 94.2957 122.363C94.292 122.302 94.288 122.241 94.2832 122.18C94.282 122.165 94.2808 122.151 94.2796 122.136C94.2744 122.075 94.2688 122.015 94.262 121.954C94.2604 121.94 94.2588 121.926 94.2568 121.912C94.2496 121.851 94.242 121.79 94.2332 121.731C94.2312 121.718 94.2292 121.705 94.2272 121.692C94.218 121.632 94.208 121.572 94.1968 121.513C94.1944 121.501 94.192 121.489 94.1896 121.477C94.178 121.418 94.1656 121.359 94.152 121.302C94.1496 121.291 94.1463 121.28 94.1439 121.27C94.1295 121.211 94.1147 121.154 94.0983 121.098C94.0955 121.089 94.0927 121.08 94.0899 121.071C94.0727 121.014 94.0547 120.958 94.0351 120.903C94.0323 120.896 94.0295 120.889 94.0267 120.882C94.0063 120.827 93.9846 120.773 93.9618 120.721C93.9594 120.716 93.9566 120.71 93.9542 120.705C93.9302 120.652 93.9046 120.6 93.8774 120.55C93.8762 120.548 93.8746 120.545 93.873 120.543C93.6945 120.221 93.4507 119.98 93.1181 119.876C92.7234 119.752 92.3032 119.988 92.1439 120.369C91.2565 122.495 91.1044 126.824 92.2227 127.735C92.1971 128.358 92.0726 128.954 91.748 129.514C90.4732 131.714 82.1874 134.636 79.0586 134.868C75.9298 135.099 67.7016 133.479 65.0363 130.932C62.371 128.386 59.1261 111.603 59.1261 106.973C59.1261 102.343 63.1819 96.4388 65.152 94.3552Z" fill="#3B1D53"/>
<path d="M82.0714 129.889C82.0714 129.889 79.7535 125.375 79.9852 117.967C80.217 110.559 82.5349 103.731 78.0152 104.194C63.0703 105.725 63.4713 102.399 61.1538 104.946C58.8359 107.492 62.5155 123.812 64.7173 128.21C66.9192 132.609 69.6713 132.319 73.2641 132.898C76.8568 133.477 81.9557 132.32 82.0714 129.889Z" fill="#32184C"/>
<path d="M136.306 145.977C136.306 145.977 133.714 139.25 131.164 136.067C128.614 132.884 125.877 147.887 125.877 147.887C125.877 147.887 129.005 156.525 131.729 156.814C132.531 156.899 136.635 157.037 137.335 155.902C139.011 153.183 136.429 147.202 136.306 145.977Z" fill="#E28D93"/>
<path d="M139.175 121.137L127.88 161.892L105.597 153.011L115.802 116.423L139.175 121.137Z" fill="#233A63"/>
<path d="M136.936 123.128L126.918 159.276L107.154 151.4L116.207 118.947L136.936 123.128Z" fill="white"/>
<path d="M133.561 119.343L132.643 122.932L119.375 120.012L120.191 116.925L133.561 119.343Z" fill="#E0994B"/>
<path d="M134.684 125.259L133.033 131.119L127.557 129.6L129.121 124.13L134.684 125.259Z" fill="#C8D5E8"/>
<path d="M132.366 133.246L114.867 128.269L114.694 128.905L132.105 134.056L132.366 133.246Z" fill="#C8D5E8"/>
<path d="M131.671 135.503L114.172 130.525L113.998 131.162L131.41 136.312L131.671 135.503Z" fill="#C8D5E8"/>
<path d="M129.949 141.63L112.548 136.324L112.362 136.957L129.674 142.435L129.949 141.63Z" fill="#C8D5E8"/>
<path d="M129.248 143.911L111.861 138.557L111.674 139.189L128.97 144.715L129.248 143.911Z" fill="#C8D5E8"/>
<path d="M128.595 145.997L111.245 140.524L111.053 141.155L128.311 146.799L128.595 145.997Z" fill="#C8D5E8"/>
<path d="M127.893 148.279L110.559 142.755L110.365 143.386L127.606 149.081L127.893 148.279Z" fill="#C8D5E8"/>
<path d="M126.805 154.279L109.776 147.879L109.55 148.499L126.478 155.065L126.805 154.279Z" fill="#C8D5E8"/>
<path d="M130.28 144.82C130.28 144.82 128.136 144.632 126.514 143.533C124.891 142.433 124.384 141.015 125.166 140.104C125.327 139.917 127.151 141.29 129.874 141.406C132.598 141.521 134.51 142.39 135.958 144.068C137.407 145.746 139.073 152.43 138.638 156.25C138.498 157.479 131.381 154.948 130.859 151.996C130.337 149.045 131.787 145.746 130.28 144.82Z" fill="#ED989B"/>
<path d="M50.7817 148.524C50.7817 148.524 45.335 152.343 45.6828 163.455C46.0307 174.566 46.2044 202.171 47.769 204.776C49.3336 207.38 57.8511 212.415 58.8942 210.852C59.9373 209.289 60.9803 168.316 60.9803 168.316L50.7817 148.524Z" fill="#0B2347"/>
<path d="M87.4023 147.135C87.4023 147.135 94.5293 150.086 98.5275 151.475C102.526 152.864 99.2227 174.566 99.2227 180.122C99.2227 185.677 101.656 199.567 103.047 206.164C104.437 212.761 103.754 220.532 103.754 220.532C103.754 220.532 87.0545 226.13 76.4508 224.22C65.8471 222.31 57.6194 219.59 57.6194 219.59C57.6194 219.59 59.9373 195.4 59.4158 190.191C58.9947 185.987 51.78 165.951 49.4689 154.178C48.6981 150.251 51.0904 146.404 54.9565 145.355C57.4693 144.672 60.6458 144.005 64.2829 143.662C73.4957 142.795 87.4023 147.135 87.4023 147.135Z" fill="#112954"/>
<path d="M80.6808 151.996C80.6808 151.996 71.5837 149.001 68.2808 147.092C64.9778 145.182 62.0227 146.093 62.0227 146.093C62.0227 146.093 56.4603 151.649 54.8957 153.733C53.3311 155.816 60.4581 178.212 62.5443 187.067C64.6304 195.921 61.3275 217.97 61.3275 217.97L83.114 222.832C83.114 222.832 76.2187 192.622 75.6972 186.025C75.1756 179.428 71.8731 172.483 74.3067 165.191C75.5903 161.346 80.6808 151.996 80.6808 151.996Z" fill="#0D2549"/>
<path d="M86.9382 171.558L99.3383 180.586L100.265 190.771C100.265 190.771 88.5609 176.303 86.9382 171.558Z" fill="#0E1D38"/>
<path d="M139.638 157.986C139.638 157.986 138.682 176.911 136.943 186.807C135.205 196.703 133.293 201.854 129.643 201.333C125.992 200.812 120.343 197.571 123.472 184.897C126.601 172.223 129.122 163.282 129.469 158.421C129.469 158.421 136.683 156.337 139.638 157.986Z" fill="#112954"/>
<path d="M130.512 184.984C130.512 184.984 106.987 153.848 98.2953 151.418C89.6037 148.987 84.4468 164.323 87.0545 170.747C89.6622 177.171 122.516 201.13 128.773 201.13C128.773 201.13 136.944 194.706 130.512 184.984Z" fill="#112954"/>
<path d="M139.769 154.645L140.276 159.839C140.276 159.839 132.09 160.931 128.861 160.186L129.034 156.656C129.034 156.656 136.871 156.67 139.769 154.645Z" fill="white"/>
<path d="M85.8377 140.19L87.4023 147.135C87.4023 147.135 73.0903 147.54 69.0921 145.978C65.0939 144.415 64.283 143.662 64.283 143.662L68.107 137.412C68.107 137.412 77.3202 140.711 85.8377 140.19Z" fill="white"/>
<path d="M81.7526 140.798L82.0132 146.093C82.0132 146.093 73.4957 146.006 72.0179 146.006C70.5401 146.006 65.8471 143.315 65.8471 143.315L68.2807 138.106C68.2807 138.106 75.4946 140.537 81.7526 140.798Z" fill="#E2E8F2"/>
</g>
<path d="M32 217L275 217L275 211.366L32 211.366L32 217Z" fill="#3B1D53"/>
<path d="M274.02 210.284H239.271C236.451 210.284 234.164 208.001 234.164 205.183V204.032C234.164 201.215 236.451 198.931 239.271 198.931H274.02V210.284Z" fill="#112954"/>
<path d="M238.68 200.719C236.896 200.719 235.449 202.429 235.449 204.539C235.449 206.649 236.896 208.36 238.68 208.36H274.502V200.72H238.68V200.719Z" fill="white"/>
<path d="M273.697 202.795H236.65V203.315H273.697V202.795Z" fill="#D3D1E8"/>
<path d="M273.843 205.242H236.797V205.761H273.843V205.242Z" fill="#D3D1E8"/>
<path d="M254.287 198.232H219.733C216.925 198.232 214.649 195.958 214.649 193.154V192.018C214.649 189.213 216.925 186.94 219.733 186.94H254.287V198.232Z" fill="#E0994B"/>
<path d="M219.141 188.719C217.366 188.719 215.928 190.42 215.928 192.518C215.928 194.617 217.367 196.317 219.141 196.317H254.767V188.719H219.141V188.719Z" fill="white"/>
<path d="M253.966 190.784H217.123V191.301H253.966V190.784Z" fill="#D3D1E8"/>
<path d="M254.112 193.217H217.268V193.734H254.112V193.217Z" fill="#D3D1E8"/>
<path d="M232.145 210.138H197.591C194.783 210.138 192.507 207.864 192.507 205.059V203.924C192.507 201.119 194.783 198.846 197.591 198.846H232.145V210.138Z" fill="#3B1D53"/>
<path d="M196.998 200.625C195.224 200.625 193.786 202.326 193.786 204.424C193.786 206.522 195.224 208.223 196.998 208.223H232.625V200.625H196.998V200.625Z" fill="white"/>
<path d="M232.261 202.874H195.417V203.39H232.261V202.874Z" fill="#D3D1E8"/>
<path d="M232.406 205.307H195.563V205.824H232.406V205.307Z" fill="#D3D1E8"/>
<path d="M156.139 187.768H140.299V210.404H156.139V187.768Z" fill="#3B1D53"/>
<path d="M145.843 189.077H141.548V208.974H145.843V189.077Z" fill="#452663"/>
<path d="M155.608 206.782C155.356 206.782 155.098 206.775 154.833 206.76L154.983 204.017C157.007 204.129 158.463 203.723 159.313 202.815C160.306 201.755 160.646 199.87 160.322 197.214C160.197 196.189 159.798 195.452 159.101 194.961C157.26 193.665 153.966 194.357 153.934 194.365L153.329 191.685C153.511 191.643 157.827 190.702 160.686 192.716C162.016 193.652 162.835 195.093 163.053 196.882C163.48 200.383 162.897 203.011 161.322 204.692C160.021 206.08 158.101 206.782 155.608 206.782Z" fill="#3B1D53"/>
<path d="M177.47 197.145C177.47 197.145 168.742 194.903 168.742 187.68C168.742 180.457 169.615 178.091 169.615 178.091C169.615 178.091 172.358 182.699 175.351 186.809C178.343 190.918 177.47 197.145 177.47 197.145Z" fill="#3B1D53"/>
<path d="M179.21 197.892C179.21 197.892 187.938 195.65 187.938 188.427C187.938 181.204 187.065 178.838 187.065 178.838C187.065 178.838 184.322 183.446 181.329 187.556C178.337 191.665 179.21 197.892 179.21 197.892Z" fill="#3B1D53"/>
<path d="M177.589 188.165C177.589 188.165 185.368 183.845 183.653 178.5C181.937 173.156 180.544 171.671 180.544 171.671C180.544 171.671 179.026 175.917 177.153 179.87C175.279 183.823 177.589 188.165 177.589 188.165Z" fill="#3B1D53"/>
<path d="M177.589 188.164C177.589 188.164 177.045 194.723 179.318 195.832C179.318 195.832 177.045 191.237 178.155 186.959C179.266 182.681 177.499 185.831 177.589 188.164Z" fill="#3B1D53"/>
<path d="M187.1 194.248H170.215V210.409H187.1V194.248Z" fill="#E0994B"/>
<path d="M176.261 194.979H171.859V209.171H176.261V194.979Z" fill="#EDA55D"/>
<rect x="12.5" y="8" width="68" height="30" rx="15" fill="#8497FD"/>
<path d="M38.72 17.2V27H37.432V19.342L34.226 24.676H34.058L30.852 19.356V27H29.55V17.2H31.02L34.142 22.38L37.25 17.2H38.72ZM46.8776 26.118C46.159 26.8273 45.2863 27.182 44.2596 27.182C43.233 27.182 42.3603 26.8273 41.6416 26.118C40.9323 25.4087 40.5776 24.536 40.5776 23.5C40.5776 22.464 40.9323 21.5913 41.6416 20.882C42.3603 20.1727 43.233 19.818 44.2596 19.818C45.2863 19.818 46.159 20.1727 46.8776 20.882C47.5963 21.5913 47.9556 22.464 47.9556 23.5C47.9556 24.536 47.5963 25.4087 46.8776 26.118ZM44.2596 25.992C44.9596 25.992 45.5476 25.754 46.0236 25.278C46.4996 24.802 46.7376 24.2093 46.7376 23.5C46.7376 22.7907 46.4996 22.198 46.0236 21.722C45.5476 21.246 44.9596 21.008 44.2596 21.008C43.569 21.008 42.9856 21.246 42.5096 21.722C42.0336 22.198 41.7956 22.7907 41.7956 23.5C41.7956 24.2093 42.0336 24.802 42.5096 25.278C42.9856 25.754 43.569 25.992 44.2596 25.992ZM53.1575 19.818C53.9788 19.818 54.6368 20.0793 55.1315 20.602C55.6262 21.1153 55.8735 21.8153 55.8735 22.702V27H54.6555V22.772C54.6555 22.2027 54.5015 21.764 54.1935 21.456C53.8855 21.1387 53.4608 20.98 52.9195 20.98C52.3128 20.98 51.8228 21.1713 51.4495 21.554C51.0762 21.9273 50.8895 22.506 50.8895 23.29V27H49.6715V20H50.8895V21.008C51.3842 20.2147 52.1402 19.818 53.1575 19.818ZM63.7758 27H62.2638L59.0718 23.682V27H57.8538V17.2H59.0718V23.094L62.0958 20H63.6638L60.3178 23.388L63.7758 27Z" fill="#020617"/>
</svg>
