<svg width="316" height="217" viewBox="0 0 316 217" fill="none" xmlns="http://www.w3.org/2000/svg">
<rect x="0.5" width="315" height="217" rx="12" fill="#F2F4FC"/>
<path d="M173.398 32.7498C206.154 37.1467 214.023 56.9227 229.017 60.0094C251.44 64.6257 275.403 68.1433 270.127 95.8428C264.851 123.542 251.44 130.577 256.277 154.319C261.113 178.062 270.771 192.143 253.859 204.662C236.931 217.193 217.146 203.123 188.348 209.059C159.549 214.995 125.914 224.008 72.7136 206.201C19.5132 188.394 56.2258 161.574 54.0274 140.69C51.8289 119.805 32.0989 112.642 43.5484 88.2954C68.6245 34.9724 150.504 29.6772 173.398 32.7498Z" fill="#E1E7F8"/>
<path d="M137.735 214.557C118.289 214.557 98.532 211.112 77.4553 204.058C62.3472 199.001 53.3116 192.834 49.832 185.203C45.7995 176.359 49.7195 166.883 53.5103 157.718C56.3787 150.783 59.0881 144.233 58.4473 138.145C57.6178 130.261 54.2648 124.369 51.0231 118.671C45.7827 109.461 40.8328 100.762 48.0114 85.4979C53.8579 73.0656 63.2141 62.3677 75.8211 53.7015C86.4249 46.4122 99.2881 40.5645 114.054 36.3216C140.627 28.6852 167.067 28.168 178.356 29.6831C198.479 32.3842 209.32 40.8931 218.032 47.7297C223.528 52.0432 228.275 55.7684 234.007 56.9488C235.01 57.1553 236.017 57.3596 237.024 57.5645C258.454 61.916 280.615 66.4165 275.488 93.3374C273.355 104.537 269.901 112.367 266.854 119.276C262.342 129.508 258.777 137.59 261.637 151.63C262.708 156.888 264.044 161.77 265.222 166.078C269.42 181.427 272.453 192.517 259.035 202.45C249.496 209.512 239 208.252 226.845 206.793C217.115 205.625 206.088 204.302 193.337 206.93C191.541 207.3 189.726 207.682 187.888 208.069C174.328 210.925 158.958 214.162 141.055 214.523C139.949 214.545 138.842 214.557 137.735 214.557ZM165.797 29.9495C152.486 29.9495 133.445 31.74 114.316 37.2366C91.8678 43.687 62.2918 57.3664 48.8722 85.9031C41.9035 100.721 46.5131 108.822 51.8497 118.201C55.1401 123.984 58.543 129.964 59.3937 138.045C60.0597 144.374 57.3055 151.032 54.3896 158.082C50.6766 167.058 46.8372 176.341 50.6984 184.808C54.0622 192.185 62.9136 198.187 77.7581 203.155C127.516 219.81 159.486 213.079 187.692 207.139C189.531 206.751 191.347 206.369 193.145 205.999C206.047 203.339 217.157 204.672 226.958 205.849C238.909 207.284 249.233 208.522 258.469 201.686C271.364 192.14 268.555 181.872 264.304 166.329C263.122 162.007 261.782 157.108 260.704 151.82C257.784 137.483 261.402 129.278 265.983 118.891C269.01 112.029 272.44 104.251 274.553 93.1589C276.804 81.3394 273.979 73.2659 265.661 67.7497C258.272 62.849 247.373 60.6366 236.834 58.4964C235.826 58.2921 234.818 58.0872 233.814 57.8801C227.864 56.655 223.035 52.8653 217.444 48.478C208.824 41.7125 198.095 33.2925 178.229 30.6262C175.131 30.2109 170.881 29.9495 165.797 29.9495Z" fill="#020617"/>
<path d="M183.561 142.418L183.149 142.315C191.243 109.806 198.805 90.8357 208.435 78.8831L208.766 79.1495C199.177 91.0518 191.64 109.973 183.561 142.418Z" fill="#58857A"/>
<path d="M204.015 85.2244C204.447 81.8579 207.253 74.0995 211.254 74.6385C215.255 75.1769 210.72 80.8421 207.491 83.0142C205.328 84.4694 204.015 85.2244 204.015 85.2244Z" fill="#58857A"/>
<path d="M200.423 91.4748C202.076 88.452 205.329 85.625 209.428 85.4912C211.838 85.4129 212.667 90.0834 206.977 90.0583C202.788 90.0403 200.423 91.4748 200.423 91.4748Z" fill="#58857A"/>
<path d="M200.609 91.1763C202.206 84.3862 200.266 79.3624 197.283 79.9512C194.3 80.5405 196.024 84.8289 197.896 86.4861C199.768 88.1428 200.609 91.1763 200.609 91.1763Z" fill="#58857A"/>
<path d="M196.987 98.6904C200.636 93.4327 205.019 92.8254 207.001 94.0086C208.983 95.1923 208.519 98.9736 204.371 98.2532C199.974 97.4898 196.987 98.6904 196.987 98.6904Z" fill="#58857A"/>
<path d="M193.685 107.058C200.777 100.047 206.839 102.917 206.341 105.158C205.843 107.399 202.349 106.761 199.436 106.42C196.524 106.079 193.685 107.058 193.685 107.058Z" fill="#58857A"/>
<path d="M190.804 115.535C198.268 107.926 205.02 109.375 205.592 112.152C206.163 114.93 203.916 115.469 198.522 114.161C193.067 112.84 190.804 115.535 190.804 115.535Z" fill="#58857A"/>
<path d="M197.075 98.5142C198.457 88.7879 192.39 86.2346 190.297 88.8887C188.204 91.5427 193.975 93.3387 195.142 95.4655C196.308 97.5924 197.075 98.5142 197.075 98.5142Z" fill="#58857A"/>
<path d="M193.936 106.449C194.104 101.452 191.604 95.3104 188.101 95.3042C184.598 95.2981 184.979 99.0849 187.634 100.37C191.606 102.293 193.936 106.449 193.936 106.449Z" fill="#58857A"/>
<path d="M187.938 125.36C190.691 120.82 199.392 117.485 202.819 120.696C206.246 123.906 201.124 125.893 196.877 124.723C192.63 123.554 187.938 125.36 187.938 125.36Z" fill="#58857A"/>
<path d="M184.815 136.557C189.347 129.083 198.768 128.766 202.391 132.481C206.015 136.196 199.479 137.517 194.01 135.335C188.543 133.153 184.815 136.557 184.815 136.557Z" fill="#58857A"/>
<path d="M190.964 114.423C189.162 103.868 182.774 102.964 181.174 105.542C179.574 108.12 190.964 114.423 190.964 114.423Z" fill="#58857A"/>
<path d="M187.645 125.216C188.181 117.31 181.575 111.563 178.117 113.787C174.659 116.011 181.624 118.757 183.519 120.435C185.415 122.113 187.645 125.216 187.645 125.216Z" fill="#58857A"/>
<path d="M184.785 136.538C182.732 128.442 174.947 120.304 172.15 124.191C169.676 127.63 173.64 129.115 180.093 131.118C183.657 132.225 184.785 136.538 184.785 136.538Z" fill="#58857A"/>
<path d="M184.901 143.855L184.522 143.667C193.254 126.12 200.724 114.223 208.031 106.225C214.889 98.7203 221.989 94.1432 231.054 91.3845L231.178 91.7903C213.234 97.2506 201.557 110.389 184.901 143.855Z" fill="#76A699"/>
<path d="M224.027 94.2437C228.931 88.1912 234.375 87.8509 234.732 90.8984C235.232 95.161 224.027 94.2437 224.027 94.2437Z" fill="#76A699"/>
<path d="M217.936 97.689C226.08 96.9625 230.168 99.0742 230.027 101.494C229.885 103.914 227.753 103.994 223.476 101.297C219.198 98.6002 217.936 97.689 217.936 97.689Z" fill="#76A699"/>
<path d="M218.662 97.205C221.551 92.9621 221.81 86.7898 217.443 86.8419C213.075 86.8939 217.992 92.3436 218.468 94.0243C218.921 95.6234 218.662 97.205 218.662 97.205Z" fill="#76A699"/>
<path d="M210.552 103.903C218.143 100.027 226.103 102.885 224.75 107.188C223.397 111.491 219.717 106.19 216.678 105.196C213.638 104.203 210.552 103.903 210.552 103.903Z" fill="#76A699"/>
<path d="M207.731 92.0787C211.499 90.7007 215.298 97.6246 210.93 103.5C210.93 103.5 211.332 99.8387 207.701 96.9905C204.071 94.1422 206.137 92.6619 207.731 92.0787Z" fill="#76A699"/>
<path d="M201.837 114.178C206.145 108.265 213.902 108.915 216.638 111.972C219.373 115.03 216.532 117.006 214.272 116.88C212.013 116.753 210.175 114.167 206.832 114.005C203.49 113.844 201.837 114.178 201.837 114.178Z" fill="#76A699"/>
<path d="M203.655 111.524C206.076 104.61 203.569 99.0591 199.055 100.168C194.542 101.278 201.337 104.985 202.355 107.317C203.373 109.649 203.655 111.524 203.655 111.524Z" fill="#76A699"/>
<path d="M196.034 122.777C207.789 116.3 213.365 121.63 211.905 124.805C210.445 127.979 204.852 124.125 202.613 123.204C199.768 122.033 196.034 122.777 196.034 122.777Z" fill="#76A699"/>
<path d="M190.172 133.25C205.892 121.52 216.762 138.167 200.12 134.068C194.442 132.67 190.172 133.25 190.172 133.25Z" fill="#76A699"/>
<path d="M191.854 130.129C192.037 122.846 185.094 115.817 182.083 119.984C179.071 124.151 188.212 125.998 189.672 127.754C191.132 129.511 191.854 130.129 191.854 130.129Z" fill="#76A699"/>
<path d="M196.034 122.776C198.247 120.239 198.206 109.757 192.536 108.619C186.866 107.481 190.35 114.744 192.579 117.317C194.807 119.89 196.034 122.776 196.034 122.776Z" fill="#76A699"/>
<path d="M186.133 141.264C195.149 135.034 201.151 145.845 190.803 141.547C188.319 140.516 186.133 141.264 186.133 141.264Z" fill="#76A699"/>
<path d="M187.097 138.992C188.114 133.758 183.855 129.011 180.953 131.736C178.05 134.461 186.043 136.17 186.662 137.638C187.281 139.107 187.097 138.992 187.097 138.992Z" fill="#76A699"/>
<path d="M182.536 141.873L182.113 141.836C183.045 131.082 180.067 107.643 162.125 95.9037L162.357 95.5483C180.467 107.397 183.475 131.031 182.536 141.873Z" fill="#9FC7BD"/>
<path d="M193.824 144.569L193.597 144.21C207.046 135.709 224.734 138.274 224.911 138.301L224.847 138.72C224.672 138.695 207.136 136.155 193.824 144.569Z" fill="#58857A"/>
<path d="M216.499 138.104C221.937 135.519 225.217 135.134 227.123 138.01C229.03 140.886 224.428 141.286 221.36 140.111C218.293 138.935 216.499 138.104 216.499 138.104Z" fill="#58857A"/>
<path d="M207.529 139.042C216.243 139.568 221.32 143.756 220.059 147.814C218.797 151.873 215.253 144.446 212.977 142.302C210.701 140.158 207.529 139.042 207.529 139.042Z" fill="#58857A"/>
<path d="M199.831 141.221C206.575 141.43 212.631 146.876 212.658 149.912C212.685 152.948 206.868 153.109 204.218 148.151C201.567 143.193 199.831 141.221 199.831 141.221Z" fill="#58857A"/>
<path d="M208.305 138.96C214.094 137.27 213.408 131.533 210.937 129.212C208.463 126.888 206.439 128.283 207.405 131.567C208.021 133.66 210.044 134.877 209.196 137.206C208.739 138.466 208.305 138.96 208.305 138.96Z" fill="#58857A"/>
<path d="M199.897 141.266C203.187 139.396 204.918 130.59 199.877 128.246C195.27 126.104 193.821 130.203 197.824 134.308C200.456 137.008 199.897 141.266 199.897 141.266Z" fill="#58857A"/>
<path d="M165.993 98.6502C164.669 96.1277 159.138 90.6556 158.758 93.735C158.377 96.8138 165.993 98.6502 165.993 98.6502Z" fill="#9FC7BD"/>
<path d="M171.67 104.298C169.465 101.825 167.295 93.6773 171.923 94.8498C176.552 96.0218 171.67 104.298 171.67 104.298Z" fill="#9FC7BD"/>
<path d="M171.67 104.298C165.942 102.295 159.654 100.305 160.665 104.121C161.676 107.936 171.67 104.298 171.67 104.298Z" fill="#9FC7BD"/>
<path d="M176.094 111.209C174.94 103.926 178.974 99.4801 182.255 101.899C185.536 104.317 176.094 111.209 176.094 111.209Z" fill="#9FC7BD"/>
<path d="M177.291 113.802C173.974 110.723 166.158 107.084 164.879 111.2C163.6 115.315 177.291 113.802 177.291 113.802Z" fill="#9FC7BD"/>
<path d="M179.277 118.922C182.16 111.913 185.295 107.993 187.915 110.448C190.536 112.904 179.277 118.922 179.277 118.922Z" fill="#9FC7BD"/>
<path d="M179.568 119.996C174.712 117.238 166.297 114.566 166.069 118.632C165.84 122.698 179.568 119.996 179.568 119.996Z" fill="#9FC7BD"/>
<path d="M181.566 127.357C182.624 120.618 189.201 115.773 191.074 119.741C192.947 123.709 181.566 127.357 181.566 127.357Z" fill="#9FC7BD"/>
<path d="M181.454 128.052C175.486 125.751 165.74 121.935 166.612 127.002C167.484 132.07 181.454 128.052 181.454 128.052Z" fill="#9FC7BD"/>
<path d="M182.164 132.318C184.407 128.567 192.908 125.554 194.254 129.959C195.6 134.366 182.164 132.318 182.164 132.318Z" fill="#9FC7BD"/>
<path d="M182.318 136.112C181.505 134.545 172.236 129.345 171.202 132.997C170.169 136.648 182.318 136.112 182.318 136.112Z" fill="#9FC7BD"/>
<path d="M133.033 152.045C129.798 118.767 125.115 98.9447 117.375 85.7657L117.741 85.5508C125.514 98.7863 130.214 118.66 133.455 152.004L133.033 152.045Z" fill="#58857A"/>
<path d="M121.184 92.4707C121.251 89.0774 119.612 80.9916 115.575 80.9378C111.538 80.8841 115.194 87.1526 118.07 89.7747C119.996 91.5316 121.184 92.4707 121.184 92.4707Z" fill="#58857A"/>
<path d="M123.821 99.1808C122.629 95.9481 119.826 92.6751 115.79 91.9419C113.418 91.5109 111.913 96.0097 117.546 96.819C121.692 97.415 123.821 99.1808 123.821 99.1808Z" fill="#58857A"/>
<path d="M123.681 98.8574C123.097 91.906 125.753 87.2209 128.617 88.2412C131.482 89.2615 129.147 93.251 127.053 94.6155C124.958 95.9806 123.681 98.8574 123.681 98.8574Z" fill="#58857A"/>
<path d="M126.162 106.821C123.324 101.085 119.077 99.842 116.943 100.722C114.81 101.603 114.714 105.411 118.923 105.307C123.384 105.196 126.162 106.821 126.162 106.821Z" fill="#58857A"/>
<path d="M128.202 115.583C122.214 107.608 115.797 109.557 115.961 111.847C116.126 114.137 119.675 114.018 122.606 114.108C125.537 114.198 128.202 115.583 128.202 115.583Z" fill="#58857A"/>
<path d="M129.809 124.392C123.541 115.77 116.649 116.214 115.677 118.877C114.705 121.541 116.849 122.404 122.377 121.901C127.966 121.393 129.809 124.392 129.809 124.392Z" fill="#58857A"/>
<path d="M126.101 106.635C126.16 96.8113 132.535 95.1748 134.217 98.107C135.899 101.039 129.926 101.97 128.46 103.903C126.995 105.835 126.101 106.635 126.101 106.635Z" fill="#58857A"/>
<path d="M128.043 114.944C128.61 109.976 131.983 104.267 135.449 104.775C138.915 105.282 137.982 108.972 135.167 109.854C130.958 111.174 128.043 114.944 128.043 114.944Z" fill="#58857A"/>
<path d="M131.204 134.53C129.147 129.636 121.029 125.062 117.168 127.735C113.307 130.409 118.083 133.124 122.455 132.59C126.828 132.055 131.204 134.53 131.204 134.53Z" fill="#58857A"/>
<path d="M132.652 146.063C129.265 138.006 119.993 136.311 115.863 139.455C111.734 142.599 118.006 144.863 123.735 143.506C129.464 142.15 132.652 146.063 132.652 146.063Z" fill="#58857A"/>
<path d="M129.814 123.267C133.144 113.091 139.596 113.133 140.801 115.917C142.005 118.701 129.814 123.267 129.814 123.267Z" fill="#58857A"/>
<path d="M131.515 134.43C132.144 126.531 139.521 121.814 142.615 124.521C145.709 127.228 138.418 128.924 136.296 130.306C134.175 131.687 131.515 134.43 131.515 134.43Z" fill="#58857A"/>
<path d="M132.685 146.049C135.903 138.341 144.796 131.433 146.992 135.688C148.935 139.451 144.797 140.339 138.12 141.375C134.433 141.948 132.685 146.049 132.685 146.049Z" fill="#58857A"/>
<path d="M131.497 153.27C119.928 117.723 110.303 103.015 93.3526 94.9832L93.5339 94.5999C102.098 98.6576 108.45 104.226 114.133 112.655C120.19 121.638 125.835 134.502 131.9 153.138L131.497 153.27Z" fill="#76A699"/>
<path d="M100.066 98.4589C96.1022 91.7527 90.7672 90.6182 89.9674 93.5801C88.8481 97.7246 100.066 98.4589 100.066 98.4589Z" fill="#76A699"/>
<path d="M105.587 102.761C97.637 100.848 93.2843 102.338 93.0694 104.753C92.8545 107.167 94.9522 107.558 99.5785 105.518C104.205 103.477 105.587 102.761 105.587 102.761Z" fill="#76A699"/>
<path d="M104.94 102.174C102.705 97.5536 103.352 91.4105 107.665 92.1022C111.978 92.794 106.315 97.4635 105.598 99.0569C104.915 100.571 104.94 102.174 104.94 102.174Z" fill="#76A699"/>
<path d="M111.98 109.99C105.039 105.044 96.7462 106.703 97.4537 111.158C98.1611 115.613 102.579 110.909 105.731 110.371C108.882 109.834 111.98 109.99 111.98 109.99Z" fill="#76A699"/>
<path d="M116.503 98.7067C112.978 96.7914 108.205 103.083 111.665 109.535C111.665 109.535 111.805 105.855 115.813 103.57C119.822 101.285 117.995 99.5176 116.503 98.7067Z" fill="#76A699"/>
<path d="M119.095 121.432C115.701 114.951 107.931 114.456 104.777 117.08C101.623 119.703 104.145 122.075 106.398 122.281C108.651 122.487 110.849 120.199 114.179 120.528C117.509 120.859 119.095 121.432 119.095 121.432Z" fill="#76A699"/>
<path d="M117.685 118.54C116.304 111.345 119.597 106.222 123.899 107.981C128.202 109.74 120.936 112.411 119.588 114.569C118.239 116.726 117.685 118.54 117.685 118.54Z" fill="#76A699"/>
<path d="M123.574 130.788C112.896 122.658 106.599 127.113 107.578 130.467C108.557 133.822 114.654 130.828 117.005 130.246C119.99 129.505 123.574 130.788 123.574 130.788Z" fill="#76A699"/>
<path d="M127.838 142.007C114.007 128.099 100.814 142.973 117.877 141.358C123.699 140.807 127.838 142.007 127.838 142.007Z" fill="#76A699"/>
<path d="M126.631 138.672C127.517 131.442 135.417 125.506 137.784 130.07C140.152 134.634 130.84 135.121 129.138 136.644C127.436 138.167 126.631 138.672 126.631 138.672Z" fill="#76A699"/>
<path d="M123.574 130.788C121.758 127.953 123.335 117.591 129.11 117.296C134.885 117.001 130.374 123.675 127.793 125.894C125.211 128.112 123.574 130.788 123.574 130.788Z" fill="#76A699"/>
<path d="M130.658 150.527C122.653 143.042 115.131 152.856 125.997 150.123C128.606 149.466 130.658 150.527 130.658 150.527Z" fill="#76A699"/>
<path d="M130.038 148.138C129.799 142.811 134.708 138.74 137.18 141.862C139.651 144.983 131.494 145.502 130.666 146.863C129.839 148.225 130.038 148.138 130.038 148.138Z" fill="#76A699"/>
<path d="M134.551 151.682L134.128 151.655C134.787 140.793 141.227 117.856 160.88 108.79L161.058 109.175C141.587 118.158 135.206 140.907 134.551 151.682Z" fill="#9FC7BD"/>
<path d="M130.141 153.47C118.252 143.236 100.626 143.138 100.313 143.138C100.309 143.138 100.308 142.714 100.308 142.714C100.457 142.713 118.351 142.762 130.417 153.149L130.141 153.47Z" fill="#58857A"/>
<path d="M108.658 143.75C103.658 140.396 100.47 139.535 98.1623 142.1C95.8547 144.665 100.348 145.736 103.555 145.023C106.762 144.31 108.658 143.75 108.658 143.75Z" fill="#58857A"/>
<path d="M117.394 145.993C108.697 145.237 103.06 148.635 103.713 152.835C104.366 157.034 108.961 150.207 111.526 148.42C114.091 146.633 117.394 145.993 117.394 145.993Z" fill="#58857A"/>
<path d="M124.689 149.278C117.987 148.496 111.199 152.996 110.727 155.994C110.256 158.993 115.986 160.006 119.334 155.49C122.682 150.974 124.689 149.278 124.689 149.278Z" fill="#58857A"/>
<path d="M116.638 145.799C111.16 143.279 112.679 137.704 115.464 135.77C118.252 133.834 120.049 135.511 118.612 138.618C117.697 140.598 115.517 141.505 116.014 143.934C116.282 145.247 116.638 145.799 116.638 145.799Z" fill="#58857A"/>
<path d="M124.617 149.313C121.637 146.981 121.216 138.016 126.545 136.437C131.416 134.994 132.248 139.261 127.688 142.735C124.688 145.019 124.617 149.313 124.617 149.313Z" fill="#58857A"/>
<path d="M156.827 111.325C158.507 109.025 164.78 104.422 164.705 107.524C164.63 110.625 156.827 111.325 156.827 111.325Z" fill="#9FC7BD"/>
<path d="M150.384 116.08C152.929 113.957 156.269 106.215 151.519 106.697C146.769 107.178 150.384 116.08 150.384 116.08Z" fill="#9FC7BD"/>
<path d="M150.384 116.08C156.344 114.938 162.856 113.892 161.296 117.518C159.737 121.144 150.384 116.08 150.384 116.08Z" fill="#9FC7BD"/>
<path d="M144.995 122.268C147.204 115.232 143.865 110.243 140.265 112.154C136.665 114.066 144.995 122.268 144.995 122.268Z" fill="#9FC7BD"/>
<path d="M143.43 124.657C147.163 122.097 155.428 119.644 156.089 123.902C156.751 128.161 143.43 124.657 143.43 124.657Z" fill="#9FC7BD"/>
<path d="M140.715 129.432C138.891 122.076 136.365 117.738 133.413 119.783C130.46 121.827 140.715 129.432 140.715 129.432Z" fill="#9FC7BD"/>
<path d="M140.271 130.45C145.478 128.434 154.194 127.024 153.824 131.08C153.453 135.136 140.271 130.45 140.271 130.45Z" fill="#9FC7BD"/>
<path d="M137.214 137.439C137.156 130.617 131.36 124.861 128.925 128.511C126.491 132.162 137.214 137.439 137.214 137.439Z" fill="#9FC7BD"/>
<path d="M137.224 138.144C143.464 136.742 153.664 134.396 152.059 139.281C150.454 144.166 137.224 138.144 137.224 138.144Z" fill="#9FC7BD"/>
<path d="M135.896 142.259C134.227 138.22 126.26 133.993 124.282 138.154C122.305 142.315 135.896 142.259 135.896 142.259Z" fill="#9FC7BD"/>
<path d="M135.188 145.989C136.222 144.558 146.153 140.773 146.64 144.537C147.127 148.301 135.188 145.989 135.188 145.989Z" fill="#9FC7BD"/>
<path d="M187.064 116.457C119.211 116.457 120.031 117.58 120.031 113.709C120.031 64.8913 118.994 64.537 122.779 64.537C190.632 64.537 189.812 63.4137 189.812 67.285V113.709C189.812 115.227 188.581 116.457 187.064 116.457Z" fill="white"/>
<path d="M136.652 116.925C124.432 116.925 121.247 116.691 120.195 115.641C119.71 115.158 119.711 114.549 119.713 113.845L119.714 113.709C119.714 103.231 119.666 95.0614 119.628 88.4968C119.523 70.3714 119.498 66.0652 120.806 64.7493C121.332 64.2199 122.035 64.2199 122.778 64.2199C138.08 64.2199 149.68 64.1639 159.002 64.1186C183.228 64.0016 188.269 63.977 189.647 65.3521C190.132 65.8362 190.13 66.4441 190.129 67.1481V67.2842V113.708C190.129 115.398 188.754 116.773 187.064 116.773C171.762 116.773 160.16 116.829 150.838 116.874C145.103 116.903 140.443 116.925 136.652 116.925ZM173.139 64.7023C169.341 64.7023 164.69 64.7247 159.005 64.7521C149.683 64.7975 138.081 64.8534 122.779 64.8534C122.046 64.8534 121.58 64.8702 121.257 65.1954C120.134 66.3237 120.165 71.4633 120.263 88.4924C120.301 95.0575 120.349 103.228 120.349 113.708L120.348 113.846C120.347 114.535 120.359 114.907 120.644 115.191C121.835 116.38 127.977 116.35 150.835 116.239C160.158 116.194 171.76 116.138 187.064 116.138C188.405 116.138 189.495 115.048 189.495 113.707V67.1459C189.497 66.4569 189.485 66.0842 189.2 65.7999C188.304 64.9077 184.613 64.7023 173.139 64.7023Z" fill="#EEE4D9"/>
<path d="M189.812 67.1163H120.031C120.031 65.6919 121.186 64.5361 122.611 64.5361C191.351 64.5361 189.812 63.5673 189.812 67.1163Z" fill="#444244"/>
<path d="M190.129 67.4341H119.714V67.1173C119.714 65.52 121.013 64.2198 122.611 64.2198C137.422 64.2198 148.818 64.1756 157.974 64.1398C183.769 64.0396 188.417 64.0211 189.709 65.3202C190.141 65.7556 190.136 66.3074 190.131 66.8923L190.129 67.4341ZM120.37 66.8H189.496C189.5 66.2817 189.481 65.9912 189.259 65.7673C188.154 64.6564 181.763 64.6821 157.977 64.7739C148.82 64.8097 137.423 64.8539 122.611 64.8539C121.47 64.8539 120.525 65.7013 120.37 66.8Z" fill="#444244"/>
<path d="M186.802 66.5223C187.579 66.5223 187.933 66.5984 187.933 66.2615C187.933 65.4846 188.009 65.1309 187.672 65.1309C186.895 65.1309 186.541 65.0548 186.541 65.3917C186.542 66.1686 186.466 66.5223 186.802 66.5223Z" fill="#BEC0C2"/>
<path d="M186.832 66.3907C186.792 66.3907 186.751 66.3751 186.72 66.3443C186.658 66.2822 186.658 66.182 186.72 66.1199L187.531 65.3083C187.593 65.2462 187.693 65.2462 187.755 65.3083C187.817 65.3704 187.817 65.4706 187.755 65.5327L186.944 66.3443C186.913 66.3756 186.872 66.3907 186.832 66.3907Z" fill="white"/>
<path d="M187.643 66.3907C187.603 66.3907 187.562 66.3751 187.531 66.3443L186.72 65.5327C186.658 65.4706 186.658 65.3704 186.72 65.3083C186.782 65.2462 186.882 65.2462 186.944 65.3083L187.755 66.1199C187.817 66.182 187.817 66.2822 187.755 66.3443C187.724 66.3756 187.684 66.3907 187.643 66.3907Z" fill="white"/>
<path d="M130.544 71.4276H123.665C123.578 71.4276 123.507 71.3565 123.507 71.2692C123.507 71.1814 123.578 71.1108 123.665 71.1108H130.544C130.632 71.1108 130.702 71.1819 130.702 71.2692C130.703 71.3565 130.632 71.4276 130.544 71.4276Z" fill="#EEE4D9"/>
<path d="M130.544 109.877H123.665C123.578 109.877 123.507 109.806 123.507 109.719C123.507 109.631 123.578 109.561 123.665 109.561H130.544C130.632 109.561 130.702 109.632 130.702 109.719C130.703 109.807 130.632 109.877 130.544 109.877Z" fill="#EEE4D9"/>
<path d="M123.666 109.877C123.579 109.877 123.507 109.806 123.507 109.719V71.2692C123.507 71.1814 123.579 71.1108 123.666 71.1108C123.754 71.1108 123.824 71.1819 123.824 71.2692V109.719C123.824 109.806 123.753 109.877 123.666 109.877Z" fill="#EEE4D9"/>
<path d="M133.354 74.9498H127.735C127.647 74.9498 127.577 74.8788 127.577 74.7914C127.577 74.7041 127.648 74.6331 127.735 74.6331H133.354C133.442 74.6331 133.512 74.7041 133.512 74.7914C133.512 74.8788 133.441 74.9498 133.354 74.9498Z" fill="#EEE4D9"/>
<path d="M133.354 106.358H127.735C127.647 106.358 127.576 106.286 127.576 106.199C127.576 106.112 127.647 106.041 127.735 106.041H133.354C133.441 106.041 133.512 106.112 133.512 106.199C133.512 106.286 133.441 106.358 133.354 106.358Z" fill="#EEE4D9"/>
<path d="M127.735 106.358C127.647 106.358 127.577 106.287 127.577 106.199V74.7914C127.577 74.7041 127.648 74.6331 127.735 74.6331C127.823 74.6331 127.893 74.7041 127.893 74.7914V106.199C127.893 106.287 127.822 106.358 127.735 106.358Z" fill="#EEE4D9"/>
<path d="M136.806 79.6224H132.86C132.772 79.6224 132.701 79.5514 132.701 79.4641C132.701 79.3767 132.772 79.3057 132.86 79.3057H136.806C136.894 79.3057 136.964 79.3767 136.964 79.4641C136.964 79.5514 136.893 79.6224 136.806 79.6224Z" fill="#EEE4D9"/>
<path d="M136.806 101.683H132.86C132.772 101.683 132.701 101.611 132.701 101.524C132.701 101.437 132.772 101.366 132.86 101.366H136.806C136.894 101.366 136.964 101.437 136.964 101.524C136.964 101.611 136.893 101.683 136.806 101.683Z" fill="#EEE4D9"/>
<path d="M132.86 101.682C132.772 101.682 132.701 101.611 132.701 101.524V79.4641C132.701 79.3767 132.772 79.3057 132.86 79.3057C132.947 79.3057 133.018 79.3767 133.018 79.4641V101.524C133.018 101.611 132.947 101.682 132.86 101.682Z" fill="#EEE4D9"/>
<path d="M137.361 101.682C137.274 101.682 137.203 101.611 137.203 101.524V96.0617C137.203 95.9738 137.274 95.9033 137.361 95.9033C137.449 95.9033 137.52 95.9744 137.52 96.0617V101.524C137.52 101.612 137.449 101.682 137.361 101.682Z" fill="#EEE4D9"/>
<path d="M138.648 85.4401H132.86C132.772 85.4401 132.701 85.369 132.701 85.2817C132.701 85.1938 132.772 85.1233 132.86 85.1233H138.648C138.736 85.1233 138.806 85.1944 138.806 85.2817C138.807 85.369 138.736 85.4401 138.648 85.4401Z" fill="#EEE4D9"/>
<path d="M138.44 72.5347C124.795 72.5347 125.185 72.697 125.185 72.1552C125.185 70.447 125.073 70.0055 125.564 70.0055C139.209 70.0055 138.819 69.8431 138.819 70.3849C138.819 72.0931 138.931 72.5347 138.44 72.5347Z" fill="#9EBFD8"/>
<path d="M143.8 76.1753C130.155 76.1753 130.544 76.3376 130.544 75.7958C130.544 74.0877 130.433 73.6461 130.924 73.6461C144.569 73.6461 144.179 73.4838 144.179 74.0255C144.18 75.7337 144.291 76.1753 143.8 76.1753Z" fill="#CC882A"/>
<path d="M138.44 80.7298C134.77 80.7298 134.473 80.8563 134.473 80.3503C134.473 78.6422 134.361 78.2006 134.852 78.2006C138.521 78.2006 138.819 78.0741 138.819 78.58C138.819 80.2882 138.931 80.7298 138.44 80.7298Z" fill="#D6723A"/>
<path d="M139.156 102.79C135.486 102.79 135.189 102.916 135.189 102.41C135.189 100.702 135.077 100.26 135.568 100.26C139.238 100.26 139.535 100.134 139.535 100.64C139.535 102.348 139.646 102.79 139.156 102.79Z" fill="#D6723A"/>
<path d="M139.156 97.3748C135.486 97.3748 135.189 97.5013 135.189 96.9953C135.189 95.2872 135.077 94.8456 135.568 94.8456C139.238 94.8456 139.535 94.7191 139.535 95.2251C139.535 96.9332 139.646 97.3748 139.156 97.3748Z" fill="#D6723A"/>
<path d="M140.911 107.399C130.332 107.399 130.545 107.561 130.545 107.02C130.545 105.312 130.434 104.87 130.925 104.87H140.911C141.12 104.87 141.29 105.04 141.29 105.25V107.019C141.29 107.23 141.12 107.399 140.911 107.399Z" fill="#CC882A"/>
<path d="M153.286 107.4H143.3C143.09 107.4 142.92 107.23 142.92 107.02V105.251C142.92 105.041 143.09 104.871 143.3 104.871H153.286C153.496 104.871 153.666 105.041 153.666 105.251V107.02C153.666 107.23 153.495 107.4 153.286 107.4Z" fill="#CC882A"/>
<path d="M166.899 92.0505H156.912C156.703 92.0505 156.533 91.8803 156.533 91.671C156.533 89.9628 156.422 89.5212 156.912 89.5212H166.899C167.109 89.5212 167.278 89.6914 167.278 89.9007V91.6704C167.278 91.8803 167.109 92.0505 166.899 92.0505Z" fill="#D6723A"/>
<path d="M132.48 110.985C126.181 110.985 126.043 111.128 126.043 110.605C126.043 108.897 125.931 108.455 126.422 108.455C132.722 108.455 132.861 108.312 132.861 108.835V110.605C132.861 110.815 132.69 110.985 132.48 110.985Z" fill="#9EBFD8"/>
<path d="M164.868 72.535C139.868 72.535 141.09 72.7102 141.09 72.1555C141.09 70.4473 140.979 70.0057 141.47 70.0057C166.469 70.0057 165.247 69.8306 165.247 70.3852V72.1549C165.247 72.3654 165.077 72.535 164.868 72.535Z" fill="#CC882A"/>
<path d="M160.379 97.3752C140.375 97.3752 141.289 97.5291 141.289 97.0349C141.289 95.203 141.189 94.8459 141.629 94.8459H160.378C160.567 94.8459 160.719 94.9982 160.719 95.1862V97.0343C160.72 97.2229 160.567 97.3752 160.379 97.3752Z" fill="#9EBFD8"/>
<path d="M158.25 86.5469C133.251 86.5469 134.473 86.7221 134.473 86.1675C134.473 84.4593 134.361 84.0177 134.852 84.0177C159.852 84.0177 158.63 83.8425 158.63 84.3972V86.1675C158.63 86.3768 158.46 86.5469 158.25 86.5469Z" fill="#9EBFD8"/>
<path d="M175.37 72.5347C169.585 72.5347 169.672 72.6271 169.672 72.3075C169.672 70.2428 169.582 70.006 169.899 70.006C175.683 70.006 175.597 69.9137 175.597 70.2333C175.598 72.298 175.687 72.5347 175.37 72.5347Z" fill="#CC882A"/>
<path d="M182.475 72.5347C176.69 72.5347 176.777 72.6271 176.777 72.3075C176.777 70.2428 176.687 70.006 177.004 70.006C182.788 70.006 182.702 69.9137 182.702 70.2333C182.702 72.298 182.792 72.5347 182.475 72.5347Z" fill="#D6723A"/>
<path d="M212.498 159.935C153.278 159.935 154.436 160.84 154.436 157.769C154.436 123.181 153.619 122.589 156.601 122.589C215.822 122.589 214.664 121.684 214.664 124.755V157.769C214.664 158.966 213.694 159.935 212.498 159.935Z" fill="white"/>
<path d="M168.268 160.377C157.765 160.377 155.345 160.186 154.498 159.337C154.11 158.948 154.114 158.458 154.117 157.941L154.118 157.77C154.118 150.36 154.081 144.555 154.051 139.892C153.968 126.864 153.948 123.769 154.985 122.725C155.401 122.307 155.94 122.274 156.601 122.274C170.149 122.274 180.325 122.227 188.502 122.19C209.677 122.093 213.492 122.075 214.601 123.188C214.989 123.577 214.985 124.066 214.981 124.585L214.98 124.755V157.77C214.98 159.139 213.867 160.252 212.498 160.252C198.95 160.252 188.774 160.299 180.597 160.336C175.577 160.359 171.532 160.377 168.268 160.377ZM200.683 122.782C197.422 122.782 193.417 122.801 188.504 122.823C180.327 122.861 170.15 122.907 156.601 122.907C155.976 122.907 155.66 122.945 155.434 123.172C154.583 124.029 154.609 128.025 154.685 139.888C154.715 144.553 154.752 150.358 154.752 157.771L154.751 157.946C154.747 158.434 154.754 158.698 154.946 158.891C155.869 159.816 161.106 159.791 180.593 159.703C188.771 159.665 198.948 159.619 212.498 159.619C213.517 159.619 214.346 158.79 214.346 157.771L214.347 124.58C214.351 124.092 214.343 123.828 214.152 123.636C213.462 122.944 210.357 122.782 200.683 122.782Z" fill="#EEE4D9"/>
<path d="M214.664 124.446H154.436C154.436 123.42 155.267 122.59 156.292 122.59C216.738 122.59 214.664 121.887 214.664 124.446Z" fill="#444244"/>
<path d="M214.981 124.763H154.118V124.446C154.118 123.247 155.093 122.273 156.292 122.273C169.409 122.273 179.424 122.241 187.471 122.214C210.235 122.14 213.733 122.129 214.693 123.113C215.007 123.435 214.996 123.828 214.985 124.208C214.983 124.284 214.98 124.364 214.98 124.446V124.763H214.981ZM154.786 124.129H214.353C214.361 123.828 214.353 123.672 214.24 123.556C213.468 122.764 207.96 122.781 187.474 122.848C179.426 122.875 169.411 122.907 156.293 122.907C155.552 122.907 154.932 123.432 154.786 124.129Z" fill="#444244"/>
<path d="M212.047 124.018C212.568 124.018 213.042 124.126 213.042 123.813C213.042 123.435 213.13 123.017 212.837 123.017C212.316 123.017 211.842 122.909 211.842 123.223C211.842 123.6 211.753 124.018 212.047 124.018Z" fill="#BEC0C2"/>
<path d="M212.091 123.967C212.046 123.967 212.001 123.948 211.97 123.91C211.914 123.843 211.923 123.743 211.99 123.687L212.69 123.103C212.757 123.047 212.857 123.056 212.914 123.123C212.97 123.191 212.961 123.291 212.893 123.347L212.193 123.93C212.163 123.955 212.127 123.967 212.091 123.967Z" fill="white"/>
<path d="M212.792 123.968C212.756 123.968 212.72 123.956 212.69 123.931L211.99 123.348C211.923 123.292 211.914 123.192 211.97 123.125C212.027 123.057 212.126 123.049 212.193 123.104L212.894 123.688C212.961 123.744 212.97 123.844 212.914 123.911C212.882 123.948 212.837 123.968 212.792 123.968Z" fill="white"/>
<g opacity="0.8">
<path d="M178.534 157.004C178.534 155.975 178.431 155.494 178.886 155.494C179.915 155.494 180.396 155.39 180.396 155.845C180.396 156.875 180.499 157.356 180.044 157.356C179.015 157.355 178.534 157.459 178.534 157.004Z" fill="#514342"/>
<path d="M174.441 157.004C174.441 155.975 174.338 155.494 174.793 155.494C175.822 155.494 176.303 155.39 176.303 155.845C176.303 156.875 176.406 157.356 175.951 157.356C174.922 157.355 174.441 157.459 174.441 157.004Z" fill="#514342"/>
<path d="M170.082 157.004C170.082 155.975 169.979 155.494 170.434 155.494C171.463 155.494 171.944 155.39 171.944 155.845C171.944 156.875 172.048 157.356 171.592 157.356C170.563 157.355 170.082 157.459 170.082 157.004Z" fill="#514342"/>
<path d="M166.511 157.004C166.511 155.975 166.408 155.494 166.863 155.494C167.892 155.494 168.373 155.39 168.373 155.845C168.373 156.875 168.476 157.356 168.021 157.356C166.992 157.355 166.511 157.459 166.511 157.004Z" fill="#514342"/>
<path d="M162.334 157.004C162.334 155.975 162.231 155.494 162.685 155.494C163.715 155.494 164.195 155.391 164.195 155.846C164.195 156.875 164.299 157.356 163.844 157.356C162.815 157.355 162.334 157.459 162.334 157.004Z" fill="#514342"/>
</g>
<path d="M169.992 128.935C162.588 128.935 162.334 129.137 162.334 128.378C162.334 127.814 162.219 127.074 162.892 127.074C170.296 127.074 170.55 126.871 170.55 127.63C170.549 128.194 170.664 128.935 169.992 128.935Z" fill="#9EBFD8"/>
<path opacity="0.8" d="M197.446 128.935C171.839 128.935 172.701 129.189 172.701 128.378C172.701 127.814 172.587 127.074 173.259 127.074C198.866 127.074 198.003 126.819 198.003 127.63V128.378C198.003 128.685 197.754 128.935 197.446 128.935Z" fill="#514342"/>
<path opacity="0.8" d="M197.446 137.12C171.839 137.12 172.701 137.375 172.701 136.564C172.701 136 172.587 135.26 173.259 135.26H197.446C197.754 135.26 198.003 135.509 198.003 135.816V136.563C198.003 136.871 197.754 137.12 197.446 137.12Z" fill="#514342"/>
<path opacity="0.8" d="M197.446 145.307H173.259C172.455 145.307 172.456 143.445 173.259 143.445H197.446C197.754 143.445 198.003 143.695 198.003 144.002V144.749C198.003 145.057 197.754 145.307 197.446 145.307Z" fill="#514342"/>
<path opacity="0.8" d="M197.446 153.492C171.839 153.492 172.701 153.747 172.701 152.936C172.701 152.372 172.587 151.631 173.259 151.631C198.866 151.631 198.003 151.377 198.003 152.188C198.003 152.752 198.118 153.492 197.446 153.492Z" fill="#514342"/>
<path d="M169.992 133.028C162.588 133.028 162.334 133.23 162.334 132.471C162.334 131.907 162.219 131.167 162.892 131.167C170.296 131.167 170.55 130.964 170.55 131.724C170.549 132.287 170.664 133.028 169.992 133.028Z" fill="#9EBFD8"/>
<path d="M169.992 137.121C162.588 137.121 162.334 137.323 162.334 136.564C162.334 136 162.219 135.26 162.892 135.26C170.296 135.26 170.55 135.057 170.55 135.817C170.549 136.38 170.664 137.121 169.992 137.121Z" fill="#9EBFD8"/>
<path d="M169.992 141.214C162.588 141.214 162.334 141.416 162.334 140.657C162.334 140.093 162.219 139.353 162.892 139.353C170.296 139.353 170.55 139.15 170.55 139.91C170.549 140.473 170.664 141.214 169.992 141.214Z" fill="#9EBFD8"/>
<path d="M169.992 145.306C162.588 145.306 162.334 145.509 162.334 144.749C162.334 144.186 162.219 143.445 162.892 143.445C170.296 143.445 170.55 143.243 170.55 144.002V144.749C170.549 145.057 170.3 145.306 169.992 145.306Z" fill="#9EBFD8"/>
<path d="M169.992 149.4C162.588 149.4 162.334 149.602 162.334 148.843C162.334 148.279 162.219 147.539 162.892 147.539C170.296 147.539 170.55 147.336 170.55 148.096C170.549 148.659 170.664 149.4 169.992 149.4Z" fill="#9EBFD8"/>
<path d="M169.992 153.492C162.588 153.492 162.334 153.695 162.334 152.935C162.334 152.372 162.219 151.631 162.892 151.631C170.296 151.631 170.55 151.429 170.55 152.188C170.549 152.752 170.664 153.492 169.992 153.492Z" fill="#9EBFD8"/>
<path d="M206.208 133.028C198.803 133.028 198.55 133.23 198.55 132.471C198.55 131.907 198.435 131.167 199.107 131.167C206.511 131.167 206.765 130.964 206.765 131.724C206.765 132.287 206.88 133.028 206.208 133.028Z" fill="#9EBFD8"/>
<path d="M206.208 141.214C198.803 141.214 198.55 141.416 198.55 140.657C198.55 140.093 198.435 139.353 199.107 139.353C206.511 139.353 206.765 139.15 206.765 139.91C206.765 140.473 206.88 141.214 206.208 141.214Z" fill="#9EBFD8"/>
<path d="M206.208 149.4C198.803 149.4 198.55 149.602 198.55 148.843C198.55 148.279 198.435 147.539 199.107 147.539C206.511 147.539 206.765 147.336 206.765 148.096C206.765 148.659 206.88 149.4 206.208 149.4Z" fill="#9EBFD8"/>
<path d="M188.175 133.048H181.074C180.766 133.048 180.516 132.798 180.516 132.491V131.744C180.516 131.436 180.766 131.187 181.074 131.187H188.175C188.482 131.187 188.732 131.437 188.732 131.744V132.491C188.732 132.798 188.482 133.048 188.175 133.048Z" fill="#D6723A"/>
<path d="M188.174 141.234C180.77 141.234 180.516 141.436 180.516 140.677C180.516 140.113 180.401 139.373 181.074 139.373H188.174C188.482 139.373 188.731 139.622 188.731 139.93V140.676C188.731 140.984 188.482 141.234 188.174 141.234Z" fill="#D6723A"/>
<path d="M188.174 149.421C180.77 149.421 180.516 149.623 180.516 148.864C180.516 148.3 180.401 147.56 181.074 147.56C188.478 147.56 188.732 147.357 188.732 148.117C188.731 148.68 188.846 149.421 188.174 149.421Z" fill="#D6723A"/>
<path d="M229.704 135.117C165.449 135.117 166.98 136.013 166.98 132.778V97.1128C166.98 95.8211 168.027 94.7739 169.319 94.7739C233.573 94.7739 232.043 93.8784 232.043 97.1128V132.778C232.043 134.07 230.995 135.117 229.704 135.117Z" fill="white"/>
<path d="M182.923 135.526C170.735 135.526 167.971 135.328 167.063 134.414C166.671 134.02 166.677 133.522 166.683 132.995L166.684 132.778V97.1128C166.684 95.6604 167.866 94.4789 169.319 94.4789C183.322 94.4789 194.04 94.4369 202.652 94.4033C226.489 94.3093 230.784 94.2936 231.959 95.4774C232.351 95.8719 232.345 96.3695 232.34 96.8962L232.338 97.1133V132.779C232.338 134.231 231.156 135.413 229.703 135.413C215.698 135.413 204.979 135.455 196.367 135.488C190.937 135.509 186.519 135.526 182.923 135.526ZM215.853 94.9557C212.276 94.9557 207.928 94.9725 202.654 94.9932C194.042 95.0268 183.323 95.0688 169.319 95.0688C168.192 95.0688 167.275 95.9861 167.275 97.1128L167.273 133.002C167.268 133.513 167.274 133.788 167.483 133.998C168.484 135.006 174.39 134.983 196.366 134.898C204.979 134.864 215.698 134.822 229.705 134.822C230.832 134.822 231.748 133.905 231.748 132.778L231.75 96.8889C231.756 96.3785 231.749 96.1025 231.541 95.8926C230.78 95.1264 227.184 94.9557 215.853 94.9557Z" fill="#EEE4D9"/>
<path d="M232.043 96.7791H166.98C166.98 95.6721 167.878 94.7743 168.985 94.7743C234.188 94.7738 232.043 94.0154 232.043 96.7791Z" fill="#444244"/>
<path d="M232.338 97.0737H166.685V96.7787C166.685 95.5105 167.717 94.479 168.985 94.479C183.13 94.479 193.937 94.4437 202.621 94.4157C226.674 94.3374 231.008 94.3234 232.037 95.3762C232.364 95.7109 232.353 96.1088 232.343 96.5314C232.341 96.6103 232.339 96.6931 232.339 96.7793V97.0737H232.338ZM167.3 96.4843H231.753C231.762 96.1289 231.756 95.9336 231.615 95.7886C230.76 94.9144 225.359 94.9318 202.623 95.0056C193.939 95.0336 183.131 95.0689 168.985 95.0689C168.143 95.0689 167.441 95.6812 167.3 96.4843Z" fill="#444244"/>
<path d="M229.216 96.3166C229.882 96.3166 230.291 96.4117 230.291 96.0949C230.291 95.6864 230.386 95.2358 230.069 95.2358C229.403 95.2358 228.994 95.1407 228.994 95.4574C228.994 95.866 228.899 96.3166 229.216 96.3166Z" fill="#BEC0C2"/>
<path d="M229.264 96.2386C229.222 96.2386 229.18 96.2207 229.151 96.1854C229.099 96.1227 229.107 96.0298 229.17 95.9778L229.926 95.3476C229.989 95.2961 230.082 95.3033 230.134 95.3666C230.186 95.4293 230.178 95.5222 230.115 95.5742L229.358 96.2044C229.331 96.2274 229.297 96.2386 229.264 96.2386Z" fill="white"/>
<path d="M230.021 96.2384C229.987 96.2384 229.954 96.2272 229.926 96.2043L229.17 95.574C229.107 95.522 229.099 95.4285 229.151 95.3664C229.203 95.3037 229.296 95.2959 229.358 95.3474L230.115 95.9776C230.178 96.0296 230.186 96.1231 230.134 96.1852C230.105 96.2205 230.063 96.2384 230.021 96.2384Z" fill="white"/>
<path d="M178.008 100.099H172.306C172.234 100.099 172.175 100.04 172.175 99.9672C172.175 99.8945 172.234 99.8357 172.306 99.8357H178.008C178.08 99.8357 178.139 99.8945 178.139 99.9672C178.139 100.04 178.08 100.099 178.008 100.099Z" fill="#EEE4D9"/>
<path d="M178.008 131.969H172.306C172.233 131.969 172.175 131.91 172.175 131.837C172.175 131.765 172.233 131.706 172.306 131.706H178.008C178.08 131.706 178.139 131.765 178.139 131.837C178.139 131.91 178.08 131.969 178.008 131.969Z" fill="#EEE4D9"/>
<path d="M172.306 131.969C172.234 131.969 172.175 131.91 172.175 131.837V99.9672C172.175 99.8945 172.234 99.8357 172.306 99.8357C172.379 99.8357 172.438 99.8945 172.438 99.9672V131.837C172.438 131.91 172.379 131.969 172.306 131.969Z" fill="#EEE4D9"/>
<path d="M177.808 106.892H174.537C174.464 106.892 174.405 106.833 174.405 106.76C174.405 106.687 174.464 106.629 174.537 106.629H177.808C177.88 106.629 177.94 106.687 177.94 106.76C177.94 106.833 177.881 106.892 177.808 106.892Z" fill="#EEE4D9"/>
<path d="M177.808 125.176H174.536C174.464 125.176 174.405 125.118 174.405 125.045C174.405 124.973 174.464 124.914 174.536 124.914H177.808C177.88 124.914 177.939 124.973 177.939 125.045C177.939 125.117 177.881 125.176 177.808 125.176Z" fill="#EEE4D9"/>
<path d="M174.537 125.177C174.464 125.177 174.406 125.118 174.406 125.045V106.761C174.406 106.688 174.464 106.629 174.537 106.629C174.609 106.629 174.668 106.688 174.668 106.761V125.045C174.668 125.117 174.609 125.177 174.537 125.177Z" fill="#EEE4D9"/>
<path d="M179.334 111.713H174.537C174.464 111.713 174.405 111.654 174.405 111.581C174.405 111.509 174.464 111.45 174.537 111.45H179.334C179.407 111.45 179.466 111.509 179.466 111.581C179.466 111.654 179.407 111.713 179.334 111.713Z" fill="#EEE4D9"/>
<path d="M184.552 101.016H173.88C173.706 101.016 173.565 100.875 173.565 100.701V99.2343C173.565 99.0602 173.706 98.9197 173.88 98.9197C185.187 98.9197 184.867 98.7854 184.867 99.2343V100.701C184.867 100.875 184.726 101.016 184.552 101.016Z" fill="#9EBFD8"/>
<path d="M179.162 107.808H176.188C176.014 107.808 175.873 107.667 175.873 107.494V106.027C175.873 105.853 176.014 105.712 176.188 105.712H179.162C179.335 105.712 179.476 105.853 179.476 106.027V107.494C179.476 107.668 179.336 107.808 179.162 107.808Z" fill="#D6723A"/>
<path d="M179.612 132.886H174.591C174.417 132.886 174.276 132.745 174.276 132.571V131.104C174.276 130.93 174.417 130.79 174.591 130.79H179.612C179.786 130.79 179.927 130.931 179.927 131.104V132.571C179.927 132.745 179.786 132.886 179.612 132.886Z" fill="#9EBFD8"/>
<path d="M208.117 111.713H194.831C194.759 111.713 194.699 111.654 194.699 111.581C194.699 111.509 194.758 111.45 194.831 111.45H208.117C208.19 111.45 208.249 111.509 208.249 111.581C208.248 111.654 208.189 111.713 208.117 111.713Z" fill="#EEE4D9"/>
<path d="M206.459 101.016C185.761 101.016 186.75 101.163 186.75 100.702C186.75 99.3275 186.654 98.92 187.065 98.92C207.762 98.92 206.773 98.7728 206.773 99.2346C206.773 100.609 206.868 101.016 206.459 101.016Z" fill="#CC882A"/>
<path d="M192.083 126.093H176.541C176.386 126.093 176.259 125.967 176.259 125.811V124.279C176.259 124.124 176.386 123.997 176.541 123.997H192.083C192.239 123.997 192.365 124.124 192.365 124.279V125.811C192.365 125.967 192.239 126.093 192.083 126.093Z" fill="#9EBFD8"/>
<path d="M195.582 112.629H176.188C176.014 112.629 175.873 112.488 175.873 112.315V110.848C175.873 110.674 176.014 110.533 176.188 110.533H195.582C195.756 110.533 195.897 110.674 195.897 110.848V112.315C195.897 112.489 195.756 112.629 195.582 112.629Z" fill="#9EBFD8"/>
<path d="M206.954 125.766H201.065C200.992 125.766 200.934 125.707 200.934 125.634C200.934 125.561 200.992 125.503 201.065 125.503H206.954C207.026 125.503 207.085 125.561 207.085 125.634C207.085 125.707 207.026 125.766 206.954 125.766Z" fill="#EEE4D9"/>
<path d="M206.954 121.107H201.065C200.992 121.107 200.934 121.048 200.934 120.975C200.934 120.902 200.992 120.844 201.065 120.844H206.954C207.026 120.844 207.085 120.902 207.085 120.975C207.085 121.048 207.026 121.107 206.954 121.107Z" fill="#EEE4D9"/>
<path d="M206.954 116.446H201.065C200.992 116.446 200.934 116.388 200.934 116.315C200.934 116.242 200.992 116.183 201.065 116.183H206.954C207.026 116.183 207.085 116.242 207.085 116.315C207.085 116.388 207.026 116.446 206.954 116.446Z" fill="#EEE4D9"/>
<path d="M203.332 112.704C198.791 112.704 198.609 112.823 198.609 112.515C198.609 111.054 198.489 110.607 198.798 110.607C203.338 110.607 203.521 110.487 203.521 110.796C203.521 112.258 203.641 112.704 203.332 112.704Z" fill="#CC882A"/>
<path d="M190.685 118.768H180.35C180.195 118.768 180.069 118.643 180.069 118.488V116.953C180.069 116.798 180.195 116.672 180.35 116.672H190.685C190.84 116.672 190.966 116.798 190.966 116.953V118.488C190.966 118.643 190.841 118.768 190.685 118.768Z" fill="#CC882A"/>
<path d="M209.221 112.704C204.68 112.704 204.498 112.823 204.498 112.515C204.498 111.054 204.378 110.607 204.686 110.607C209.227 110.607 209.409 110.487 209.409 110.796C209.409 112.258 209.529 112.704 209.221 112.704Z" fill="#D6723A"/>
<path d="M203.332 117.363C198.791 117.363 198.609 117.483 198.609 117.175C198.609 115.713 198.489 115.267 198.798 115.267C203.338 115.267 203.521 115.147 203.521 115.455C203.521 116.917 203.641 117.363 203.332 117.363Z" fill="#CC882A"/>
<path d="M209.221 117.363C204.68 117.363 204.498 117.483 204.498 117.175C204.498 115.713 204.378 115.267 204.686 115.267C209.227 115.267 209.409 115.147 209.409 115.455V117.175C209.409 117.279 209.325 117.363 209.221 117.363Z" fill="#D6723A"/>
<path d="M203.332 122.023C198.791 122.023 198.609 122.142 198.609 121.834C198.609 120.373 198.489 119.926 198.798 119.926C203.338 119.926 203.521 119.806 203.521 120.115C203.521 121.576 203.641 122.023 203.332 122.023Z" fill="#CC882A"/>
<path d="M209.221 122.023C204.68 122.023 204.498 122.142 204.498 121.834C204.498 120.373 204.378 119.926 204.686 119.926C209.227 119.926 209.409 119.806 209.409 120.115C209.409 121.576 209.529 122.023 209.221 122.023Z" fill="#D6723A"/>
<path d="M203.332 126.682C198.791 126.682 198.609 126.802 198.609 126.494C198.609 125.033 198.489 124.586 198.798 124.586C203.338 124.586 203.521 124.466 203.521 124.774C203.521 126.236 203.641 126.682 203.332 126.682Z" fill="#CC882A"/>
<path d="M209.221 126.682C204.68 126.682 204.498 126.802 204.498 126.494C204.498 125.033 204.378 124.586 204.686 124.586C209.227 124.586 209.409 124.466 209.409 124.774C209.409 126.236 209.529 126.682 209.221 126.682Z" fill="#D6723A"/>
<path d="M204.009 125.766C203.936 125.766 203.877 125.707 203.877 125.634V111.581C203.877 111.509 203.936 111.45 204.009 111.45C204.081 111.45 204.14 111.509 204.14 111.581V125.634C204.14 125.706 204.081 125.766 204.009 125.766Z" fill="#EEE4D9"/>
<path d="M212.104 101.016C209.071 101.016 208.816 101.121 208.816 100.701C208.816 99.327 208.721 98.9196 209.131 98.9196C212.164 98.9196 212.419 98.8138 212.419 99.2341C212.419 100.608 212.514 101.016 212.104 101.016Z" fill="#D6723A"/>
<path d="M218.282 101.016C215.249 101.016 214.993 101.121 214.993 100.701C214.993 99.327 214.898 98.9196 215.308 98.9196C218.341 98.9196 218.596 98.8138 218.596 99.2341C218.596 100.608 218.692 101.016 218.282 101.016Z" fill="#D6723A"/>
<path d="M224.46 101.016C221.427 101.016 221.172 101.121 221.172 100.701C221.172 99.327 221.076 98.9196 221.486 98.9196C224.519 98.9196 224.774 98.8138 224.774 99.2341C224.775 100.608 224.87 101.016 224.46 101.016Z" fill="#D6723A"/>
<path d="M76.4455 127.69C82.6249 127.69 87.6342 122.681 87.6342 116.502C87.6342 110.322 82.6249 105.313 76.4455 105.313C70.2662 105.313 65.2568 110.322 65.2568 116.502C65.2568 122.681 70.2662 127.69 76.4455 127.69Z" fill="white"/>
<path d="M76.4454 128.249C69.9682 128.249 64.6982 122.979 64.6982 116.502C64.6982 110.024 69.9682 104.754 76.4454 104.754C82.9227 104.754 88.1927 110.024 88.1927 116.502C88.1927 122.979 82.9227 128.249 76.4454 128.249ZM76.4454 105.871C70.5838 105.871 65.8148 110.64 65.8148 116.502C65.8148 122.363 70.5833 127.132 76.4454 127.132C82.3076 127.132 87.0761 122.363 87.0761 116.502C87.0761 110.64 82.307 105.871 76.4454 105.871Z" fill="#D1868D"/>
<g opacity="0.3">
<path d="M76.2261 106.615C77.0555 106.349 77.4591 107.604 76.6291 107.87C75.7996 108.136 75.3961 106.881 76.2261 106.615Z" fill="#72787A"/>
<path d="M81.1664 107.808C82.0177 107.992 81.7401 109.281 80.8877 109.097C80.0358 108.913 80.314 107.624 81.1664 107.808Z" fill="#72787A"/>
<path d="M85.1261 111.87C85.7334 112.495 84.7892 113.414 84.1808 112.789C83.5736 112.165 84.5183 111.245 85.1261 111.87Z" fill="#72787A"/>
<path d="M84.9973 116.472C85.0057 115.601 86.3243 115.613 86.3154 116.485C86.307 117.355 84.9889 117.344 84.9973 116.472Z" fill="#72787A"/>
<path d="M71.6881 107.808C70.8369 107.992 71.1145 109.281 71.9669 109.097C72.8181 108.913 72.5405 107.624 71.6881 107.808Z" fill="#72787A"/>
<path d="M67.7284 111.87C67.1211 112.495 68.0653 113.414 68.6737 112.789C69.2809 112.165 68.3362 111.245 67.7284 111.87Z" fill="#72787A"/>
<path d="M67.857 116.472C67.8486 115.601 66.53 115.613 66.5389 116.485C66.5473 117.355 67.8654 117.344 67.857 116.472Z" fill="#72787A"/>
<path d="M76.2283 126.339C77.0577 126.606 77.4612 125.35 76.6312 125.084C75.8018 124.817 75.3982 126.073 76.2283 126.339Z" fill="#72787A"/>
<path d="M81.1686 125.146C82.0199 124.962 81.7423 123.673 80.8898 123.857C80.038 124.041 80.3162 125.33 81.1686 125.146Z" fill="#72787A"/>
<path d="M85.1283 121.084C85.7356 120.46 84.7908 119.54 84.183 120.165C83.5757 120.79 84.5205 121.71 85.1283 121.084Z" fill="#72787A"/>
<path d="M71.6903 125.146C70.839 124.962 71.1166 123.673 71.969 123.857C72.8203 124.041 72.5427 125.33 71.6903 125.146Z" fill="#72787A"/>
<path d="M67.7305 121.084C67.1232 120.46 68.068 119.54 68.6758 120.165C69.283 120.79 68.3383 121.71 67.7305 121.084Z" fill="#72787A"/>
</g>
<path d="M76.4214 117.054C76.3704 117.054 76.3201 117.04 76.2753 117.013C76.1925 116.962 76.1421 116.872 76.1421 116.775V109.482C76.1421 109.328 76.2669 109.203 76.4214 109.203C76.5753 109.203 76.7001 109.328 76.7001 109.482V116.32L82.9221 113.153C83.0598 113.083 83.2277 113.138 83.2977 113.275C83.3676 113.413 83.3133 113.581 83.1757 113.651L76.5479 117.024C76.5081 117.045 76.465 117.054 76.4214 117.054Z" fill="#72787A"/>
<mask id="mask0_1_28994" style="mask-type:luminance" maskUnits="userSpaceOnUse" x="61" y="125" width="127" height="92">
<path d="M187.124 125.871H61.6296V217H187.124V125.871Z" fill="white"/>
</mask>
<g mask="url(#mask0_1_28994)">
<path d="M135.427 176.628H119.036L123.507 166.936H130.955L135.427 176.628Z" fill="#72787A"/>
<path d="M152.653 168.16C98.4951 168.16 100.694 168.634 100.694 167.097C100.694 130.689 100.238 131.957 101.757 131.957C155.914 131.957 153.716 131.484 153.716 133.02C153.716 169.427 154.172 168.16 152.653 168.16Z" fill="#9C9FA0"/>
<path d="M151.47 161.182C100.003 161.182 101.877 161.667 101.877 160.119C101.877 132.624 101.426 133.014 102.94 133.014C154.408 133.014 152.533 132.528 152.533 134.077C152.533 161.572 152.984 161.182 151.47 161.182Z" fill="#2F3D69"/>
<path d="M127.131 166.218C125.185 166.218 125.182 163.273 127.131 163.273C129.077 163.273 129.079 166.218 127.131 166.218Z" fill="#72787A"/>
<path d="M145.244 159.151C106.974 159.151 107.768 159.722 107.768 157.753C107.768 135.425 107.24 135.047 109.166 135.047C147.436 135.047 146.642 134.476 146.642 136.444C146.642 158.772 147.169 159.151 145.244 159.151Z" fill="white"/>
<path d="M116.834 159.404C109.947 159.404 108.366 159.282 107.826 158.74C107.586 158.5 107.588 158.193 107.591 157.869L107.592 157.753C107.592 152.966 107.568 149.218 107.549 146.207C107.494 137.813 107.481 135.818 108.142 135.154C108.403 134.891 108.745 134.87 109.166 134.87C117.811 134.87 124.336 134.842 129.58 134.819C143.39 134.758 145.878 134.748 146.584 135.456C146.824 135.697 146.821 136.004 146.818 136.328L146.818 136.444C146.818 141.231 146.842 144.979 146.861 147.991C146.915 156.384 146.928 158.378 146.267 159.044C146.006 159.306 145.664 159.327 145.244 159.327C136.599 159.327 130.073 159.356 124.829 159.379C121.578 159.393 118.955 159.404 116.834 159.404ZM137.43 135.146C135.32 135.146 132.737 135.157 129.582 135.171C124.337 135.194 117.812 135.222 109.166 135.222C108.806 135.222 108.558 135.235 108.392 135.402C107.835 135.962 107.85 138.337 107.901 146.203C107.92 149.216 107.944 152.964 107.944 157.753L107.943 157.872C107.94 158.19 107.945 158.362 108.075 158.491C108.677 159.096 112.098 159.081 124.827 159.025C130.071 159.002 136.597 158.974 145.243 158.974C145.603 158.974 145.851 158.962 146.017 158.795C146.574 158.234 146.559 155.86 146.508 147.993C146.489 144.981 146.465 141.232 146.465 136.444L146.466 136.324C146.469 136.007 146.464 135.835 146.334 135.705C145.881 135.25 143.833 135.146 137.43 135.146Z" fill="#EEE4D9"/>
<path d="M146.641 136.244H107.768C107.768 135.583 108.303 135.046 108.966 135.046C147.862 135.046 146.641 134.535 146.641 136.244Z" fill="#444244"/>
<path d="M146.818 136.421H107.592V136.244C107.592 135.486 108.208 134.87 108.966 134.87C117.994 134.87 124.981 134.842 130.083 134.822C143.585 134.768 146.018 134.758 146.631 135.382C146.832 135.587 146.826 135.835 146.82 136.097C146.819 136.144 146.818 136.193 146.818 136.244V136.421ZM107.959 136.068H146.468C146.472 135.844 146.469 135.721 146.379 135.63C145.87 135.111 142.527 135.125 130.084 135.174C124.982 135.195 117.994 135.223 108.966 135.223C108.463 135.223 108.043 135.588 107.959 136.068Z" fill="#444244"/>
<path d="M144.953 135.969H145.463C145.646 135.969 145.704 135.323 145.463 135.323H144.953C144.723 135.323 144.82 136.006 144.82 135.836C144.82 135.91 144.88 135.969 144.953 135.969Z" fill="#BEC0C2"/>
<path d="M144.981 135.923C144.956 135.923 144.931 135.912 144.914 135.891C144.883 135.853 144.888 135.798 144.925 135.766L145.377 135.39C145.414 135.359 145.47 135.363 145.501 135.401C145.532 135.438 145.528 135.494 145.49 135.525L145.038 135.902C145.022 135.916 145.001 135.923 144.981 135.923Z" fill="white"/>
<path d="M145.434 135.922C145.414 135.922 145.394 135.916 145.377 135.902L144.926 135.526C144.888 135.494 144.883 135.439 144.914 135.401C144.945 135.363 145.001 135.359 145.038 135.39L145.49 135.767C145.527 135.798 145.532 135.854 145.501 135.891C145.484 135.912 145.458 135.922 145.434 135.922Z" fill="white"/>
<path d="M122.969 141.605C112.716 141.605 113.019 141.715 113.019 141.36C113.019 140.522 112.947 140.199 113.264 140.199C123.518 140.199 123.214 140.089 123.214 140.443C123.214 141.282 123.286 141.605 122.969 141.605Z" fill="#9EBFD8"/>
<path d="M130.632 153.989C112.237 153.989 113.02 154.14 113.02 153.665C113.02 153.018 112.936 152.583 113.344 152.583C131.739 152.583 130.956 152.433 130.956 152.908C130.956 153.555 131.04 153.989 130.632 153.989Z" fill="#9EBFD8"/>
<path d="M111.725 141.621C110.938 141.621 110.571 141.7 110.571 141.352C110.571 140.566 110.492 140.199 110.839 140.199C111.626 140.199 111.993 140.12 111.993 140.467C111.993 141.254 112.072 141.621 111.725 141.621Z" fill="#D6723A"/>
<path d="M111.725 144.748C110.938 144.748 110.571 144.827 110.571 144.48C110.571 143.693 110.492 143.326 110.839 143.326C111.626 143.326 111.993 143.247 111.993 143.594C111.993 144.381 112.072 144.748 111.725 144.748Z" fill="#D6723A"/>
<path d="M111.725 148.077C110.938 148.077 110.571 148.156 110.571 147.809C110.571 147.022 110.492 146.655 110.839 146.655C111.626 146.655 111.993 146.576 111.993 146.924C111.993 147.71 112.072 148.077 111.725 148.077Z" fill="#D6723A"/>
<path d="M111.725 150.806C110.938 150.806 110.571 150.885 110.571 150.538C110.571 149.752 110.492 149.384 110.839 149.384C111.626 149.384 111.993 149.306 111.993 149.653C111.993 150.439 112.072 150.806 111.725 150.806Z" fill="#D6723A"/>
<path d="M111.725 153.997C110.938 153.997 110.571 154.076 110.571 153.729C110.571 152.943 110.492 152.576 110.839 152.576C111.626 152.576 111.993 152.497 111.993 152.844C111.993 153.63 112.072 153.997 111.725 153.997Z" fill="#D6723A"/>
<path opacity="0.8" d="M143.411 141.628C123.903 141.628 124.533 141.825 124.533 141.201C124.533 140.751 124.446 140.191 124.961 140.191C144.469 140.191 143.839 139.995 143.839 140.619C143.839 141.068 143.926 141.628 143.411 141.628Z" fill="#514342"/>
<path d="M122.969 144.731C112.716 144.731 113.019 144.841 113.019 144.487C113.019 143.648 112.947 143.325 113.264 143.325C123.518 143.325 123.214 143.215 123.214 143.57C123.214 144.408 123.286 144.731 122.969 144.731Z" fill="#9EBFD8"/>
<path opacity="0.8" d="M141.488 144.756C123.949 144.756 124.533 144.934 124.533 144.35C124.533 143.856 124.445 143.318 124.939 143.318C142.477 143.318 141.893 143.139 141.893 143.724C141.893 144.217 141.981 144.756 141.488 144.756Z" fill="#514342"/>
<path d="M122.969 148.061C112.716 148.061 113.019 148.172 113.019 147.817C113.019 146.978 112.947 146.655 113.264 146.655C123.518 146.655 123.214 146.545 123.214 146.9C123.214 147.738 123.286 148.061 122.969 148.061Z" fill="#9EBFD8"/>
<path opacity="0.8" d="M138.279 148.085C124.128 148.085 124.533 148.243 124.533 147.72C124.533 147.164 124.438 146.648 124.898 146.648C139.05 146.648 138.644 146.49 138.644 147.014C138.644 147.57 138.739 148.085 138.279 148.085Z" fill="#514342"/>
<path opacity="0.8" d="M138.279 151.524C124.128 151.524 124.533 151.682 124.533 151.159C124.533 150.602 124.438 150.087 124.898 150.087C139.05 150.087 138.644 149.929 138.644 150.452C138.644 151.009 138.739 151.524 138.279 151.524Z" fill="#514342"/>
<path d="M122.969 151.391C112.716 151.391 113.019 151.501 113.019 151.147C113.019 150.308 112.947 149.985 113.264 149.985C123.518 149.985 123.214 149.875 123.214 150.23C123.214 151.068 123.286 151.391 122.969 151.391Z" fill="#9EBFD8"/>
<path opacity="0.8" d="M143.496 154.005C131.252 154.005 131.589 154.15 131.589 153.664C131.589 153.088 131.489 152.567 131.93 152.567C144.174 152.567 143.837 152.422 143.837 152.908C143.836 153.484 143.936 154.005 143.496 154.005Z" fill="#514342"/>
<path d="M181.769 187.982C181.769 176.192 181.872 176.664 181.541 176.664C76.6703 176.664 81.9957 176.546 81.9957 176.892V187.982C81.9963 188.24 181.769 188.42 181.769 187.982Z" fill="#AE584B"/>
<path d="M175.371 185.858C135.795 185.858 137.311 186.226 137.311 185.007C137.311 179.555 137.042 178.73 138.161 178.73C177.738 178.73 176.222 178.362 176.222 179.581C176.222 185.033 176.49 185.858 175.371 185.858Z" fill="#D16A4B"/>
<path d="M156.766 183.743C154.788 183.743 154.786 180.75 156.766 180.75C158.744 180.75 158.746 183.743 156.766 183.743Z" fill="#AE584B"/>
<path d="M133.182 185.858C93.6054 185.858 95.121 186.226 95.121 185.007C95.121 179.555 94.8523 178.73 95.9717 178.73C135.548 178.73 134.033 178.362 134.033 179.581C134.032 185.033 134.301 185.858 133.182 185.858Z" fill="#D16A4B"/>
<path d="M114.577 183.743C112.599 183.743 112.597 180.75 114.577 180.75C116.554 180.75 116.556 183.743 114.577 183.743Z" fill="#AE584B"/>
<path d="M169.013 188.209H98.3164V191.345H169.013V188.209Z" fill="#D16A4B"/>
<path d="M171.148 188.85L179.42 234.373C179.698 235.902 177.815 235.773 177.562 234.83C164.728 186.799 164.612 188.158 166.126 188.17C170.482 188.205 170.994 188.005 171.148 188.85Z" fill="#AE584B"/>
<path d="M89.6467 188.855C89.612 189.047 81.3415 234.433 81.3701 234.625C81.6046 236.212 83.0648 235.459 83.2338 234.828C96.1021 186.67 96.1508 188.158 94.6621 188.17C90.3043 188.205 89.8006 188.009 89.6467 188.855Z" fill="#AE584B"/>
<path d="M95.1464 197.531C95.2057 197.716 109.225 241.668 109.341 241.824C110.293 243.115 111.228 241.764 111.081 241.127C99.8181 192.568 100.561 193.86 99.2517 194.57C95.4217 196.647 94.885 196.711 95.1464 197.531Z" fill="#AE584B"/>
</g>
<mask id="mask1_1_28994" style="mask-type:luminance" maskUnits="userSpaceOnUse" x="61" y="125" width="127" height="92">
<path d="M187.124 125.871H61.6296V217H187.124V125.871Z" fill="white"/>
</mask>
<g mask="url(#mask1_1_28994)">
<path d="M93.8188 183.259L93.7377 182.992C98.5 181.542 98.0596 179.026 97.5021 175.84C96.9816 172.867 96.3341 169.166 99.9972 165.401L100.197 165.596C96.6335 169.259 97.2407 172.73 97.7769 175.792C98.3355 178.982 98.8179 181.738 93.8188 183.259Z" fill="#84534A"/>
</g>
<mask id="mask2_1_28994" style="mask-type:luminance" maskUnits="userSpaceOnUse" x="61" y="125" width="127" height="92">
<path d="M187.124 125.871H61.6296V217H187.124V125.871Z" fill="white"/>
</mask>
<g mask="url(#mask2_1_28994)">
<path d="M132.88 228.737C131.93 228.689 127.369 229.972 124.471 233.583C124.471 233.583 114.446 225.269 109.79 212.441L118.485 207.31C118.485 207.31 125.849 219.948 128.129 223.321C130.41 226.694 132.88 228.737 132.88 228.737Z" fill="#637690"/>
<path d="M124.493 233.808L124.369 233.705C124.268 233.622 114.258 225.216 109.64 212.495L109.595 212.371L118.54 207.092L118.62 207.23C118.694 207.356 126.008 219.902 128.26 223.232C130.5 226.546 132.956 228.594 132.981 228.614L133.349 228.919L132.872 228.895C132.113 228.855 127.562 229.984 124.593 233.682L124.493 233.808ZM109.984 212.51C114.312 224.321 123.298 232.361 124.45 233.357C127.052 230.207 130.972 228.807 132.487 228.604C131.762 227.952 129.808 226.088 127.998 223.41C125.868 220.26 119.235 208.912 118.428 207.527L109.984 212.51Z" fill="#3B3348"/>
<path d="M128.225 217.763C126.514 222.371 125.897 231.208 126.229 234.723C125.17 233.132 121.49 230.553 115.016 232.062L119.005 206.408C107.951 205.059 110.932 205.423 104.99 204.697C103.284 202.234 98.3383 195.097 96.6273 192.627C102.84 188.966 101.659 189.662 103.232 188.734C105.607 190.489 125.168 193.677 130.458 196.571C135.613 199.396 129.933 213.154 128.225 217.763Z" fill="#637690"/>
<path d="M126.446 235.335L126.097 234.811C125.066 233.264 121.431 230.73 115.052 232.217L114.824 232.27L114.86 232.038L118.824 206.545L104.901 204.845L104.86 204.787L96.4003 192.577L98.5853 191.29C101.892 189.341 101.892 189.341 102.637 188.901L103.242 188.544L103.326 188.606C104.393 189.394 109.248 190.535 114.39 191.742C120.61 193.203 127.658 194.859 130.534 196.432C135.446 199.123 130.95 211.002 128.789 216.711C128.634 217.121 128.494 217.492 128.373 217.817C126.716 222.279 126.036 231.003 126.387 234.707L126.446 235.335ZM118.751 231.45C122.539 231.45 124.953 232.975 126.031 234.206C125.782 230.225 126.48 222.008 128.077 217.708C128.198 217.382 128.338 217.01 128.494 216.6C130.457 211.414 135.053 199.27 130.382 196.711C127.544 195.158 120.518 193.508 114.319 192.052C109.05 190.814 104.484 189.742 103.226 188.922L102.799 189.174C102.054 189.614 102.054 189.614 98.7471 191.563L96.8559 192.678L105.08 204.548L119.187 206.271L115.21 231.856C116.499 231.572 117.681 231.45 118.751 231.45Z" fill="#3B3348"/>
<path opacity="0.5" d="M120.87 231.677L120.692 231.739C119.168 231.504 117.292 231.532 115.017 232.062L119.006 206.408L109.652 205.266C109.312 205.099 101.585 201.318 96.2519 198.706L96.6929 189.426L101.625 188.546C104.624 196.259 115.721 202.82 125.267 205.596C121.552 219.238 118.795 226.615 120.87 231.677Z" fill="#3B3348"/>
<path d="M121.664 206.31C121.633 206.31 121.601 206.31 121.571 206.309C121.493 206.308 121.432 206.244 121.433 206.168C121.434 206.092 121.496 206.03 121.572 206.03C122.817 206.056 124.795 205.677 126.154 204.817C126.219 204.776 126.305 204.795 126.346 204.86C126.388 204.925 126.368 205.012 126.303 205.053C124.93 205.922 122.96 206.31 121.664 206.31Z" fill="#3B3348"/>
<path d="M143.261 176.688C144.662 174.36 149.461 173.149 152.288 176.664L143.261 176.688Z" fill="#9C9FA0"/>
<path d="M137.832 174.455C140.897 172.53 147.311 171.818 149.2 172.566C151.088 173.315 152.585 174.989 151.908 175.488C151.231 175.987 149.129 174.669 147.882 175.168C144.448 176.541 143.452 178.183 137.548 177.983L137.832 174.455Z" fill="#F99889"/>
<path d="M138.899 179.233C135.729 180.018 123.763 182.953 120.147 183.363C116.553 183.77 108.744 176.643 106.132 174.099C105.603 175.682 105.038 177.087 104.042 178.518C102.718 180.414 101.815 184.968 102.445 185.99C102.994 186.808 104.477 188.05 104.658 188.734C104.848 189.446 103.662 191.726 98.3866 193.247C91.7453 181.852 93.9163 185.578 88.6956 176.617C99.6028 160.573 92.2188 171.437 100.809 158.8C105.781 158.872 119.964 175.431 121.371 175.179C137.711 172.255 136.861 172.222 137.351 172.768C137.886 173.363 138.847 174.683 139.36 176.918C139.603 177.95 139.866 178.992 138.899 179.233Z" fill="#3F6763"/>
<path d="M98.3116 193.433L88.5075 176.61L88.5641 176.527C94.4016 167.94 94.9999 167.061 95.6116 166.161L100.726 158.639L100.811 158.641C104.014 158.687 110.84 165.32 115.824 170.163C118.321 172.591 120.895 175.108 121.343 175.023C125.072 174.355 127.905 173.838 130.064 173.445C137.056 172.169 137.058 172.168 137.417 172.6L137.469 172.661C137.999 173.252 138.958 174.561 139.485 176.759L139.53 176.939C139.768 177.958 140.038 179.113 138.936 179.386C135.441 180.253 123.757 183.113 120.165 183.52C116.378 183.952 108.237 176.352 106.202 174.387C105.676 175.932 105.115 177.254 104.171 178.607C102.846 180.507 102.008 184.921 102.571 185.892C102.795 186.225 103.177 186.632 103.546 187.025C104.136 187.654 104.694 188.248 104.812 188.692C105.034 189.525 103.736 191.868 98.4308 193.398L98.3116 193.433ZM88.8825 176.623L98.461 193.06C103.542 191.566 104.672 189.4 104.505 188.774C104.408 188.407 103.827 187.788 103.315 187.243C102.947 186.85 102.597 186.477 102.365 186.151H102.289L102.287 186.033C101.645 184.852 102.611 180.29 103.911 178.427C104.881 177.036 105.44 175.67 105.982 174.049L106.062 173.809L106.242 173.985C110.822 178.446 117.204 183.535 120.129 183.206C123.702 182.801 135.369 179.944 138.86 179.079C139.59 178.898 139.497 178.202 139.236 177.077L139.205 176.954C138.7 174.752 137.753 173.453 137.234 172.874C137.212 172.85 137.192 172.827 137.174 172.805C136.938 172.521 136.807 172.539 130.121 173.758C127.962 174.152 125.128 174.669 121.398 175.337C120.828 175.44 119.112 173.804 115.603 170.393C110.702 165.63 104.006 159.123 100.891 158.962L95.8736 166.341C95.2641 167.237 94.6674 168.113 88.8825 176.623Z" fill="#2E5151"/>
<path opacity="0.5" d="M139.586 178.968C139.586 178.968 124.239 182.817 120.058 183.292C117.1 183.626 111.316 178.853 108.181 176.028C107.927 175.712 105.055 172.991 104.569 173.173C103.431 173.6 101.505 178.231 100.935 180.726C100.497 182.652 100.947 184.492 102.356 185.918C102.906 186.735 104.388 187.978 104.569 188.661C104.759 189.373 103.573 191.653 98.2977 193.174C91.9301 182.249 93.0069 184.349 91.9558 181.437C92.5575 177.892 94.0021 169.384 94.5936 165.901C98.2518 163.462 95.7332 165.141 101.862 161.055C104.07 162.409 107.634 169.393 109.63 172.315C111.626 175.237 117.468 181.295 119.963 181.437C122.171 181.562 136.083 177.733 139.27 176.845C139.421 177.48 139.53 178.184 139.586 178.968Z" fill="#2E5151"/>
<path d="M119.5 177.249C119.48 177.249 119.458 177.245 119.439 177.235C119.37 177.202 119.341 177.118 119.374 177.049C119.604 176.572 120.359 175.394 120.488 175.265C120.543 175.211 120.63 175.211 120.685 175.265C120.739 175.319 120.739 175.407 120.686 175.462C120.6 175.55 119.861 176.683 119.626 177.17C119.602 177.22 119.552 177.249 119.5 177.249Z" fill="#2E5151"/>
<path d="M121.299 177.177C121.24 177.177 121.185 177.139 121.166 177.08C121.163 177.07 120.848 176.076 120.679 175.79C120.64 175.724 120.663 175.639 120.729 175.6C120.795 175.561 120.882 175.583 120.92 175.649C121.104 175.962 121.418 176.954 121.432 176.996C121.455 177.07 121.414 177.148 121.34 177.171C121.328 177.176 121.313 177.177 121.299 177.177Z" fill="#2E5151"/>
<path d="M106.132 174.238C106.093 174.238 106.055 174.222 106.027 174.191C105.832 173.972 104.116 172.04 103.972 171.824C103.93 171.76 103.947 171.674 104.011 171.63C104.075 171.588 104.162 171.605 104.205 171.669C104.305 171.82 105.474 173.149 106.236 174.006C106.287 174.063 106.282 174.152 106.224 174.203C106.198 174.226 106.165 174.238 106.132 174.238Z" fill="#2E5151"/>
<path d="M102.996 187.209C102.977 187.209 102.957 187.205 102.938 187.196C101.594 186.594 99.1035 186.213 99.0789 186.21C99.0028 186.198 98.9501 186.127 98.9613 186.051C98.9731 185.974 99.047 185.925 99.1203 185.933C99.2238 185.949 101.673 186.323 103.052 186.942C103.123 186.973 103.154 187.056 103.123 187.126C103.1 187.178 103.049 187.209 102.996 187.209Z" fill="#2E5151"/>
<path d="M102.699 140.603C103.092 145.484 106.978 145.794 103.411 147.053C103.411 147.053 103.981 151.436 100.382 152.541L96.9254 146.002L99.3841 141.494L102.699 140.603Z" fill="#F99889"/>
<path d="M103.804 159.584C103.232 163.766 99.1483 164.714 97.9371 169.8C96.7259 174.883 100.382 175.405 99.9777 180.181C99.5759 184.954 94.9674 186.405 94.9674 186.405C94.9265 186.374 73.2292 170.158 73.2292 170.107C73.302 170.107 72.4591 168.172 76.9724 165.797C81.5058 163.528 73.9434 158.394 77.6479 153.717C80.8913 149.619 83.7552 155.523 85.5613 143.431C87.3646 131.339 95.7997 131.576 98.6496 133.642C107.062 134.046 105.443 140.329 99.7885 146.613C96.6056 150.152 104.373 155.403 103.804 159.584Z" fill="#4D3930"/>
<path d="M103.804 159.584C103.232 163.766 99.1481 164.714 97.937 169.8C96.7258 174.883 100.382 175.405 99.9776 180.181C99.5757 184.954 94.9673 186.405 94.9673 186.405C94.9623 186.401 94.9331 186.383 94.9309 186.38L87.4585 169.49C83.412 161.592 92.0407 159.179 95.4889 153.385C97.8642 149.393 96.4381 145.592 97.2474 143.264C98.054 140.936 101.334 143.074 102.71 139.37C103.799 136.445 102.548 134.91 101.973 134.393C107.16 136.582 103.561 142.42 99.7873 146.614C96.6055 150.152 104.373 155.403 103.804 159.584Z" fill="#44322B"/>
<path d="M83.3749 170.107L76.4611 172.553C74.5157 171.09 73.229 170.118 73.229 170.107C73.3017 170.107 72.4588 168.173 76.9721 165.798C77.0001 165.784 77.0281 165.767 77.0561 165.75C80.037 165.281 81.7395 164.02 80.7125 161.413C78.1799 154.969 87.7422 155.352 87.3638 149.108C87.3638 149.108 89.0748 153.932 84.229 156.567C78.8779 159.478 88.5459 166.249 83.3749 170.107Z" fill="#44322B"/>
<path d="M101.285 145.355C100.648 142.712 96.8247 144.115 99.8358 148.799L101.285 145.355Z" fill="#F99889"/>
<path d="M99.0992 147.92C99.0992 147.92 99.0903 148.006 99.0735 148.167C99.0567 148.328 99.0237 148.565 99.0326 148.866C99.0209 149.166 99.0544 149.531 99.1037 149.947C99.163 150.361 99.252 150.825 99.3707 151.327C99.4893 151.829 99.6399 152.369 99.8039 152.94C99.9651 153.511 100.147 154.112 100.285 154.751C100.426 155.388 100.551 156.059 100.552 156.758C100.55 157.451 100.447 158.18 100.111 158.824C99.7843 159.46 99.3432 160.011 98.9 160.532C98.4533 161.053 97.9922 161.54 97.5528 162.015C96.6719 162.962 95.8614 163.856 95.3208 164.731C95.0499 165.167 94.8383 165.588 94.6945 165.979C94.5473 166.369 94.474 166.728 94.4437 167.027C94.4253 167.176 94.4174 167.31 94.4186 167.427C94.4146 167.544 94.4152 167.643 94.4242 167.724C94.4359 167.886 94.4426 167.972 94.4426 167.972C94.4426 167.972 94.4303 167.886 94.4068 167.726C94.3917 167.646 94.3844 167.545 94.3805 167.427C94.3699 167.309 94.3704 167.174 94.3816 167.021C94.3967 166.718 94.4521 166.348 94.582 165.941C94.7074 165.534 94.9016 165.091 95.1674 164.639C95.6958 163.733 96.4743 162.786 97.3491 161.83C97.7845 161.349 98.239 160.859 98.6733 160.342C99.1054 159.825 99.5274 159.28 99.8268 158.682C99.9757 158.391 100.1 158.074 100.155 157.747L100.209 157.505L100.23 157.257C100.244 157.091 100.266 156.927 100.255 156.76C100.262 156.096 100.149 155.439 100.015 154.811C99.7423 153.555 99.4014 152.388 99.1955 151.368C99.0875 150.858 99.0225 150.383 98.985 149.961C98.9571 149.538 98.9419 149.169 98.9694 148.864C98.9744 148.559 99.0281 148.327 99.0544 148.167C99.0847 148.005 99.0992 147.92 99.0992 147.92Z" fill="#382823"/>
<path d="M80.5229 167.605C80.4569 167.605 80.3953 167.564 80.3729 167.498C79.633 165.338 80.65 164.097 81.6328 162.896C82.2837 162.101 82.8982 161.351 83.0258 160.348C83.1741 159.182 82.5395 158.233 81.8052 157.134C80.9516 155.858 79.9845 154.412 79.9845 152.244C79.9845 149.784 82.0553 148.067 83.7187 146.688C84.7743 145.812 85.6855 145.057 85.6855 144.405C85.6855 144.318 85.7565 144.247 85.8438 144.247C85.9312 144.247 86.0022 144.318 86.0022 144.405C86.0022 145.206 85.0838 145.967 83.9208 146.932C82.3083 148.269 80.3013 149.933 80.3013 152.244C80.3013 154.316 81.2399 155.719 82.0682 156.958C82.8064 158.062 83.5038 159.104 83.3404 160.388C83.201 161.482 82.5283 162.303 81.8779 163.098C80.9074 164.283 79.9901 165.402 80.6723 167.396C80.7009 167.479 80.6567 167.569 80.5738 167.598C80.5571 167.603 80.5397 167.605 80.5229 167.605Z" fill="#382823"/>
<path d="M92.6853 177.963C92.6484 177.963 92.6109 177.95 92.5807 177.924C92.5152 177.866 92.5085 177.766 92.5661 177.7C92.5795 177.684 93.8971 176.13 93.6676 172.779C93.5931 171.693 92.6697 170.626 91.6913 169.497C89.672 167.165 87.1584 164.263 91.1406 159.694C96.6518 153.369 95.9701 151.125 95.0259 148.02L94.909 147.633C94.8838 147.549 94.9314 147.461 95.0153 147.436C95.0987 147.411 95.1877 147.458 95.2129 147.542L95.3298 147.928C96.3031 151.131 97.0061 153.445 91.3801 159.902C87.5782 164.264 89.8908 166.934 91.9314 169.289C92.945 170.46 93.9026 171.565 93.9844 172.758C94.2233 176.251 92.8628 177.843 92.8051 177.909C92.7732 177.944 92.7295 177.963 92.6853 177.963Z" fill="#382823"/>
<path d="M121.574 206.166C113.543 215.145 96.7257 214.244 89.1224 213.674C81.5218 213.105 79.0514 211.157 76.3414 204.979C73.6336 198.802 70.2145 183.504 71.1637 175.333C72.2982 165.564 82.2858 166.026 86.3984 168.205C94.2138 172.329 94.5261 180.634 100.145 194.241C104.716 205.311 113.127 205.733 118.992 206.062C120.505 206.146 121.574 206.166 121.574 206.166Z" fill="#FEAE65"/>
<path d="M96.8604 214.169C93.6069 214.169 90.8454 213.962 89.1104 213.833C81.6705 213.276 79.0148 211.468 76.1957 205.044C73.4442 198.767 70.0526 183.518 71.0057 175.315C71.4087 171.844 73.0038 169.283 75.6175 167.908C79.059 166.098 83.7777 166.637 86.4721 168.065C92.1406 171.056 93.884 176.176 96.5223 183.927C97.5483 186.938 98.7102 190.352 100.291 194.181C104.803 205.109 112.963 205.566 118.92 205.9L119 205.904C120.492 205.987 121.565 206.007 121.576 206.007L121.921 206.014L121.691 206.272C115.739 212.927 104.829 214.169 96.8604 214.169ZM80.7118 167.073C79.0053 167.073 77.2607 167.402 75.7653 168.189C73.212 169.532 71.7171 171.942 71.3208 175.352C70.3738 183.505 73.7487 198.671 76.4861 204.916C79.2443 211.201 81.8446 212.97 89.1339 213.516C95.0252 213.958 112.842 215.293 121.221 206.316C120.786 206.304 119.977 206.276 118.983 206.221L118.903 206.217C113.202 205.897 104.587 205.414 99.9986 194.302C98.4135 190.464 97.2494 187.045 96.2224 184.029C93.6081 176.351 91.8814 171.278 86.3237 168.346C84.8742 167.577 82.8223 167.073 80.7118 167.073Z" fill="#D16A4B"/>
<path d="M121.573 206.166C113.543 215.146 96.7256 214.244 89.1222 213.675C81.5217 213.105 79.0513 211.157 76.3413 204.98C73.6335 198.803 70.2144 183.504 71.1636 175.334C72.2981 165.564 82.2857 166.027 86.3983 168.205C85.505 168.227 84.2351 168.548 82.8504 169.788C80.2154 172.144 84.7903 201.675 88.1176 206.18C91.4449 210.685 101.08 211.378 106.278 210.479C110.501 209.747 116.781 207.048 118.992 206.063C120.504 206.147 121.573 206.166 121.573 206.166Z" fill="#E0DFEA"/>
</g>
<path d="M187.408 187.688C232.359 187.688 229.816 187.967 229.993 187.073C234.672 163.426 235.006 163.653 233.698 163.653C188.746 163.653 191.29 163.373 191.113 164.268C186.433 187.916 186.099 187.688 187.408 187.688Z" fill="white"/>
<path d="M221.047 188.025C218.775 188.025 215.928 188.019 212.357 188.012C206.406 188 198.255 187.984 187.408 187.984H187.372C187.117 187.984 186.834 187.984 186.639 187.746C186.192 187.2 186.472 185.818 188.293 176.83C188.951 173.581 189.77 169.536 190.824 164.212C190.83 164.18 190.831 164.151 190.831 164.124C190.854 163.536 191.205 163.429 193.336 163.368C195.543 163.303 199.955 163.312 208.748 163.331C214.7 163.342 222.851 163.359 233.698 163.359H233.734C233.984 163.357 234.271 163.358 234.467 163.597C234.913 164.142 234.634 165.524 232.813 174.513C232.154 177.762 231.336 181.806 230.282 187.131C230.276 187.162 230.275 187.191 230.275 187.218C230.252 187.807 229.901 187.913 227.77 187.975C226.459 188.012 224.369 188.025 221.047 188.025ZM187.408 187.393C198.255 187.393 206.406 187.41 212.358 187.422C225.463 187.449 229.194 187.456 229.685 187.217C229.685 187.21 229.685 187.202 229.685 187.196C229.687 187.14 229.69 187.08 229.703 187.016C230.757 181.69 231.576 177.646 232.235 174.396C233.69 167.213 234.292 164.24 234.009 163.969C233.979 163.948 233.834 163.946 233.735 163.949H233.698C222.85 163.949 214.699 163.933 208.747 163.921C195.641 163.894 191.911 163.887 191.421 164.126C191.421 164.133 191.421 164.14 191.421 164.147C191.418 164.203 191.415 164.263 191.403 164.326C190.349 169.652 189.529 173.697 188.871 176.947C187.416 184.13 186.814 187.102 187.096 187.373C187.127 187.394 187.273 187.397 187.371 187.393H187.408Z" fill="#EEE4D9"/>
<path opacity="0.5" d="M226.582 172.098C228.721 172.098 229.647 172.293 229.647 171.392C229.647 169.253 229.842 168.327 228.941 168.327C226.802 168.327 225.876 168.132 225.876 169.033C225.876 171.171 225.68 172.098 226.582 172.098Z" fill="#9EBFD8"/>
<path d="M206.096 172.098C221.179 172.098 221.208 172.388 221.208 171.392C221.208 169.253 221.403 168.327 220.502 168.327C205.418 168.327 205.39 168.037 205.39 169.033V171.392C205.39 171.781 205.706 172.098 206.096 172.098Z" fill="#9EBFD8"/>
<path d="M194.246 172.099C200.155 172.099 200.816 172.334 200.816 171.392C200.816 169.254 201.011 168.327 200.11 168.327C194.201 168.327 193.54 168.092 193.54 169.034C193.54 171.172 193.344 172.099 194.246 172.099Z" fill="#CC882A"/>
<path opacity="0.5" d="M225.451 177.325C227.589 177.325 228.516 177.521 228.516 176.619C228.516 174.481 228.711 173.554 227.809 173.554C225.671 173.554 224.744 173.359 224.744 174.261C224.744 176.399 224.549 177.325 225.451 177.325Z" fill="#9EBFD8"/>
<path d="M204.965 177.326C220.048 177.326 220.077 177.616 220.077 176.619C220.077 174.481 220.272 173.555 219.37 173.555C204.287 173.555 204.258 173.265 204.258 174.261C204.258 176.4 204.063 177.326 204.965 177.326Z" fill="#9EBFD8"/>
<path d="M193.116 177.326C199.025 177.326 199.686 177.562 199.686 176.62C199.686 174.481 199.881 173.555 198.98 173.555C193.07 173.555 192.409 173.319 192.409 174.261C192.409 176.4 192.214 177.326 193.116 177.326Z" fill="#CC882A"/>
<path opacity="0.5" d="M224.5 183.016C226.638 183.016 227.565 183.211 227.565 182.31C227.565 180.171 227.76 179.245 226.858 179.245C224.72 179.245 223.794 179.05 223.794 179.951C223.793 182.089 223.598 183.016 224.5 183.016Z" fill="#9EBFD8"/>
<path d="M204.014 183.016C219.098 183.016 219.126 183.306 219.126 182.31C219.126 180.171 219.321 179.245 218.42 179.245C203.336 179.245 203.308 178.955 203.308 179.951C203.307 182.089 203.112 183.016 204.014 183.016Z" fill="#9EBFD8"/>
<path d="M192.164 183.016C198.073 183.016 198.734 183.252 198.734 182.31C198.734 180.171 198.93 179.245 198.028 179.245C192.119 179.245 191.458 179.009 191.458 179.951C191.458 182.089 191.262 183.016 192.164 183.016Z" fill="#CC882A"/>
<rect x="12.5" y="8" width="78" height="30" rx="15" fill="#F8D04C"/>
<path d="M32.714 27.182C31.7993 27.182 31.0153 26.9673 30.362 26.538C29.718 26.1087 29.2653 25.5207 29.004 24.774L30.124 24.13C30.5067 25.3153 31.3793 25.908 32.742 25.908C33.414 25.908 33.9273 25.7727 34.282 25.502C34.6367 25.222 34.814 24.8533 34.814 24.396C34.814 23.9293 34.6367 23.5793 34.282 23.346C33.9273 23.1127 33.3347 22.8653 32.504 22.604C32.0933 22.4733 31.7807 22.3707 31.566 22.296C31.3513 22.212 31.0807 22.0907 30.754 21.932C30.4367 21.764 30.1987 21.596 30.04 21.428C29.8813 21.2507 29.7367 21.022 29.606 20.742C29.4847 20.462 29.424 20.1447 29.424 19.79C29.424 18.9407 29.7227 18.2687 30.32 17.774C30.9173 17.27 31.6453 17.018 32.504 17.018C33.2787 17.018 33.9507 17.214 34.52 17.606C35.0987 17.998 35.5327 18.516 35.822 19.16L34.73 19.79C34.31 18.782 33.568 18.278 32.504 18.278C31.972 18.278 31.5427 18.4087 31.216 18.67C30.8893 18.9313 30.726 19.286 30.726 19.734C30.726 20.1633 30.88 20.49 31.188 20.714C31.496 20.938 32.028 21.1713 32.784 21.414C33.0547 21.498 33.246 21.5587 33.358 21.596C33.47 21.6333 33.6427 21.6987 33.876 21.792C34.1187 21.8853 34.296 21.96 34.408 22.016C34.52 22.072 34.6693 22.1513 34.856 22.254C35.052 22.3567 35.1967 22.4547 35.29 22.548C35.3833 22.6413 35.4907 22.758 35.612 22.898C35.7427 23.0287 35.836 23.164 35.892 23.304C35.948 23.444 35.9947 23.6073 36.032 23.794C36.0787 23.9713 36.102 24.1627 36.102 24.368C36.102 25.2267 35.7893 25.9127 35.164 26.426C34.5387 26.93 33.722 27.182 32.714 27.182ZM38.8158 24.06C38.9371 24.6853 39.2218 25.1707 39.6698 25.516C40.1271 25.8613 40.6871 26.034 41.3498 26.034C42.2738 26.034 42.9458 25.6933 43.3658 25.012L44.4018 25.6C43.7205 26.6547 42.6938 27.182 41.3218 27.182C40.2111 27.182 39.3058 26.8367 38.6058 26.146C37.9151 25.446 37.5698 24.564 37.5698 23.5C37.5698 22.4453 37.9105 21.568 38.5918 20.868C39.2731 20.168 40.1551 19.818 41.2378 19.818C42.2645 19.818 43.0998 20.182 43.7438 20.91C44.3971 21.6287 44.7238 22.4967 44.7238 23.514C44.7238 23.6913 44.7098 23.8733 44.6818 24.06H38.8158ZM41.2378 20.966C40.5845 20.966 40.0431 21.1527 39.6138 21.526C39.1845 21.89 38.9185 22.38 38.8158 22.996H43.4918C43.3891 22.3333 43.1278 21.8293 42.7078 21.484C42.2878 21.1387 41.7978 20.966 41.2378 20.966ZM47.2442 24.06C47.3656 24.6853 47.6502 25.1707 48.0982 25.516C48.5556 25.8613 49.1156 26.034 49.7782 26.034C50.7022 26.034 51.3742 25.6933 51.7942 25.012L52.8302 25.6C52.1489 26.6547 51.1222 27.182 49.7502 27.182C48.6396 27.182 47.7342 26.8367 47.0342 26.146C46.3436 25.446 45.9982 24.564 45.9982 23.5C45.9982 22.4453 46.3389 21.568 47.0202 20.868C47.7016 20.168 48.5836 19.818 49.6662 19.818C50.6929 19.818 51.5282 20.182 52.1722 20.91C52.8256 21.6287 53.1522 22.4967 53.1522 23.514C53.1522 23.6913 53.1382 23.8733 53.1102 24.06H47.2442ZM49.6662 20.966C49.0129 20.966 48.4716 21.1527 48.0422 21.526C47.6129 21.89 47.3469 22.38 47.2442 22.996H51.9202C51.8176 22.3333 51.5562 21.8293 51.1362 21.484C50.7162 21.1387 50.2262 20.966 49.6662 20.966ZM60.7544 27H59.2424L56.0504 23.682V27H54.8324V17.2H56.0504V23.094L59.0744 20H60.6424L57.2964 23.388L60.7544 27ZM62.3785 24.06C62.4998 24.6853 62.7845 25.1707 63.2325 25.516C63.6898 25.8613 64.2498 26.034 64.9125 26.034C65.8365 26.034 66.5085 25.6933 66.9285 25.012L67.9645 25.6C67.2831 26.6547 66.2565 27.182 64.8845 27.182C63.7738 27.182 62.8685 26.8367 62.1685 26.146C61.4778 25.446 61.1325 24.564 61.1325 23.5C61.1325 22.4453 61.4731 21.568 62.1545 20.868C62.8358 20.168 63.7178 19.818 64.8005 19.818C65.8271 19.818 66.6625 20.182 67.3065 20.91C67.9598 21.6287 68.2865 22.4967 68.2865 23.514C68.2865 23.6913 68.2725 23.8733 68.2445 24.06H62.3785ZM64.8005 20.966C64.1471 20.966 63.6058 21.1527 63.1765 21.526C62.7471 21.89 62.4811 22.38 62.3785 22.996H67.0545C66.9518 22.3333 66.6905 21.8293 66.2705 21.484C65.8505 21.1387 65.3605 20.966 64.8005 20.966ZM71.1846 21.176C71.5859 20.308 72.3139 19.874 73.3686 19.874V21.148C72.7712 21.12 72.2579 21.2787 71.8286 21.624C71.3992 21.9693 71.1846 22.5247 71.1846 23.29V27H69.9666V20H71.1846V21.176Z" fill="#020617"/>
</svg>
