<svg width="316" height="217" viewBox="0 0 316 217" fill="none" xmlns="http://www.w3.org/2000/svg">
<rect x="0.5" width="315" height="217" rx="12" fill="#F2F4FC"/>
<path d="M150.462 154.416L103.952 166.473C101.885 167.008 99.7728 165.771 99.2372 163.698L82.4438 98.9952C81.9081 96.9292 83.1454 94.818 85.22 94.2826L131.73 82.2258C133.797 81.6905 135.91 82.9271 136.445 85.0006L153.239 149.703C153.774 151.769 152.53 153.88 150.462 154.416Z" fill="white"/>
<path d="M102.978 167.912C100.669 167.912 98.557 166.359 97.9534 164.029L81.1675 99.3261C80.8205 97.9839 81.0167 96.589 81.7183 95.3976C82.4199 94.2063 83.544 93.3542 84.8868 93.0074L131.397 80.9506C134.166 80.2343 137.002 81.9006 137.719 84.6679L154.512 149.37C155.229 152.138 153.562 154.973 150.793 155.689L104.283 167.746C103.845 167.859 103.408 167.912 102.978 167.912ZM132.695 83.4238C132.483 83.4238 132.272 83.4464 132.053 83.5067L85.5432 95.5635C84.8868 95.7369 84.3286 96.1516 83.9891 96.7398C83.642 97.3279 83.5515 98.0141 83.7175 98.6701L100.511 163.373C100.865 164.73 102.254 165.552 103.619 165.197L150.129 153.141C151.487 152.786 152.31 151.399 151.955 150.034L135.162 85.3314C134.867 84.1853 133.834 83.4238 132.695 83.4238Z" fill="#1A1A1A"/>
<path d="M92.1225 104.042C91.7 104.042 91.3228 103.763 91.2097 103.333C91.0814 102.828 91.3832 102.315 91.8886 102.187L128.418 92.7162C128.923 92.5881 129.436 92.8897 129.564 93.3949C129.693 93.9001 129.391 94.4128 128.885 94.541L92.3564 104.011C92.2809 104.034 92.2055 104.042 92.1225 104.042Z" fill="#1A1A1A"/>
<path d="M94.0909 111.622C93.6684 111.622 93.2912 111.343 93.178 110.913C93.0498 110.408 93.3516 109.895 93.857 109.767L130.386 100.297C130.892 100.168 131.405 100.47 131.533 100.975C131.661 101.48 131.359 101.993 130.854 102.121L94.3248 111.592C94.2493 111.614 94.1663 111.622 94.0909 111.622Z" fill="#1A1A1A"/>
<path d="M96.0607 119.2C95.6383 119.2 95.2611 118.921 95.1479 118.492C95.0196 117.986 95.3214 117.474 95.8269 117.345L132.356 107.875C132.861 107.747 133.374 108.048 133.503 108.554C133.631 109.059 133.329 109.571 132.824 109.7L96.2946 119.17C96.2192 119.193 96.1362 119.2 96.0607 119.2Z" fill="#1A1A1A"/>
<path d="M98.0225 126.781C97.6001 126.781 97.2228 126.502 97.1097 126.072C96.9814 125.567 97.2832 125.054 97.7887 124.926L134.318 115.455C134.823 115.327 135.336 115.629 135.464 116.134C135.593 116.639 135.291 117.152 134.786 117.28L98.2564 126.751C98.181 126.773 98.1055 126.781 98.0225 126.781Z" fill="#1A1A1A"/>
<path d="M99.9908 134.358C99.5683 134.358 99.1911 134.079 99.0779 133.65C98.9497 133.144 99.2515 132.632 99.7569 132.503L136.286 123.033C136.791 122.905 137.305 123.206 137.433 123.712C137.561 124.217 137.259 124.729 136.754 124.858L100.225 134.328C100.149 134.351 100.074 134.358 99.9908 134.358Z" fill="#1A1A1A"/>
<path d="M101.96 141.936C101.537 141.936 101.16 141.657 101.047 141.227C100.919 140.722 101.221 140.209 101.726 140.081L138.255 130.611C138.761 130.482 139.274 130.784 139.402 131.289C139.53 131.794 139.228 132.307 138.723 132.435L102.194 141.906C102.118 141.928 102.035 141.936 101.96 141.936Z" fill="#1A1A1A"/>
<path d="M103.93 149.514C103.507 149.514 103.13 149.235 103.017 148.806C102.888 148.3 103.19 147.788 103.696 147.66L128.245 141.296C128.75 141.167 129.263 141.469 129.391 141.974C129.52 142.479 129.218 142.992 128.712 143.12L104.163 149.484C104.088 149.507 104.005 149.514 103.93 149.514Z" fill="#1A1A1A"/>
<path d="M105.89 157.091C105.468 157.091 105.09 156.812 104.977 156.382C104.849 155.877 105.151 155.365 105.656 155.236L120.428 151.406C120.933 151.278 121.446 151.579 121.575 152.085C121.703 152.59 121.401 153.102 120.896 153.231L106.124 157.061C106.049 157.084 105.973 157.091 105.89 157.091Z" fill="#1A1A1A"/>
<path d="M209.522 168.515L159.383 154.286C157.157 153.653 155.86 151.338 156.494 149.106L176.312 79.3515C176.946 77.1271 179.262 75.8302 181.495 76.4636L231.634 90.692C233.86 91.3253 235.157 93.6402 234.523 95.8721L214.705 165.627C214.071 167.859 211.755 169.148 209.522 168.515Z" fill="white"/>
<path d="M210.667 170C210.169 170 209.664 169.932 209.166 169.789L159.02 155.553C157.601 155.153 156.424 154.218 155.708 152.936C154.991 151.647 154.817 150.162 155.217 148.744L175.036 78.9896C175.866 76.064 178.929 74.3599 181.848 75.1893L231.987 89.4252C233.406 89.8249 234.582 90.7598 235.299 92.0417C236.016 93.331 236.189 94.8165 235.79 96.234L215.971 165.989C215.284 168.409 213.066 170 210.667 170ZM180.347 77.6248C179.095 77.6248 177.94 78.4542 177.578 79.7134L157.76 149.468C157.548 150.207 157.639 150.984 158.016 151.655C158.393 152.326 159.004 152.808 159.744 153.019L209.883 167.255C211.407 167.685 212.998 166.803 213.436 165.272L233.255 95.5177C233.466 94.7788 233.375 94.0021 232.998 93.331C232.621 92.66 232.01 92.1774 231.271 91.9663L181.132 77.7303C180.868 77.6625 180.604 77.6248 180.347 77.6248Z" fill="#1A1A1A"/>
<g opacity="0.2">
<path d="M182.28 76.4023L187.417 79.0188V143.216L181.525 128.498C181.525 128.49 182.657 76.4023 182.28 76.4023Z" fill="#1A1A1A"/>
</g>
<path d="M222.499 100.627C222.416 100.627 222.325 100.612 222.242 100.589L182.861 89.4148C182.363 89.2715 182.069 88.7513 182.213 88.2536C182.356 87.756 182.876 87.4619 183.374 87.6051L222.755 98.7797C223.253 98.923 223.547 99.4433 223.404 99.9409C223.283 100.356 222.906 100.627 222.499 100.627Z" fill="#1A1A1A"/>
<path d="M220.174 108.792C220.091 108.792 220 108.777 219.917 108.754L180.537 97.5796C180.039 97.4363 179.745 96.9161 179.888 96.4184C180.031 95.9207 180.552 95.6267 181.05 95.7699L220.431 106.945C220.928 107.088 221.223 107.608 221.079 108.106C220.966 108.52 220.589 108.792 220.174 108.792Z" fill="#1A1A1A"/>
<path d="M217.851 116.968C217.768 116.968 217.677 116.953 217.594 116.93L178.213 105.756C177.715 105.613 177.421 105.092 177.564 104.595C177.708 104.097 178.228 103.803 178.726 103.946L218.107 115.121C218.605 115.264 218.899 115.784 218.756 116.282C218.643 116.697 218.265 116.968 217.851 116.968Z" fill="#1A1A1A"/>
<path d="M215.535 125.133C215.452 125.133 215.361 125.118 215.278 125.095L175.897 113.921C175.399 113.777 175.105 113.257 175.249 112.759C175.392 112.262 175.912 111.968 176.41 112.111L215.791 123.286C216.289 123.429 216.583 123.949 216.44 124.447C216.319 124.862 215.942 125.133 215.535 125.133Z" fill="#1A1A1A"/>
<path d="M213.212 133.304C213.129 133.304 213.038 133.289 212.955 133.267L173.574 122.092C173.076 121.949 172.782 121.429 172.926 120.931C173.069 120.433 173.589 120.139 174.087 120.282L213.468 131.457C213.966 131.6 214.26 132.121 214.117 132.618C214.004 133.033 213.627 133.304 213.212 133.304Z" fill="#1A1A1A"/>
<path d="M210.888 141.474C210.805 141.474 210.714 141.458 210.631 141.436L171.25 130.261C170.752 130.118 170.458 129.598 170.602 129.1C170.745 128.602 171.265 128.308 171.763 128.452L211.144 139.626C211.642 139.769 211.936 140.29 211.793 140.787C211.68 141.202 211.303 141.474 210.888 141.474Z" fill="#1A1A1A"/>
<path d="M195.649 145.974C195.566 145.974 195.476 145.959 195.393 145.937L168.928 138.427C168.43 138.283 168.135 137.763 168.279 137.265C168.422 136.768 168.943 136.474 169.441 136.617L195.906 144.127C196.404 144.27 196.698 144.79 196.554 145.288C196.441 145.703 196.064 145.974 195.649 145.974Z" fill="#1A1A1A"/>
<path d="M182.793 151.152C182.71 151.152 182.62 151.137 182.537 151.115L166.611 146.591C166.113 146.447 165.819 145.927 165.962 145.429C166.106 144.932 166.626 144.638 167.124 144.781L183.05 149.305C183.548 149.448 183.842 149.969 183.699 150.466C183.586 150.881 183.208 151.152 182.793 151.152Z" fill="#1A1A1A"/>
<path d="M187.775 163.302H125.792C123.039 163.302 120.805 161.07 120.805 158.318V72.0803C120.805 69.3281 123.039 67.0962 125.792 67.0962H187.775C190.529 67.0962 192.762 69.3281 192.762 72.0803V158.31C192.762 161.07 190.529 163.302 187.775 163.302Z" fill="white"/>
<path d="M187.776 164.622H125.792C122.315 164.622 119.485 161.794 119.485 158.318V72.081C119.485 68.6049 122.315 65.7773 125.792 65.7773H187.776C191.254 65.7773 194.083 68.6049 194.083 72.081V158.311C194.083 161.794 191.254 164.622 187.776 164.622ZM125.785 68.4164C123.763 68.4164 122.118 70.0602 122.118 72.081V158.311C122.118 160.332 123.763 161.975 125.785 161.975H187.768C189.79 161.975 191.435 160.332 191.435 158.311V72.081C191.435 70.0602 189.79 68.4164 187.768 68.4164H125.785Z" fill="#1A1A1A"/>
<g opacity="0.2">
<path d="M128.441 77.4708C128.441 93.2298 141.266 106.048 157.033 106.048C172.801 106.048 185.626 93.2298 185.626 77.4708C185.626 73.8138 184.924 70.3151 183.664 67.0955H130.402C129.142 70.3151 128.441 73.8062 128.441 77.4708Z" fill="#1A1A1A"/>
</g>
<path d="M180.925 124.336H133.208C132.687 124.336 132.265 123.913 132.265 123.393C132.265 122.873 132.687 122.451 133.208 122.451H180.925C181.446 122.451 181.868 122.873 181.868 123.393C181.868 123.913 181.446 124.336 180.925 124.336Z" fill="#1A1A1A"/>
<path d="M180.925 131.693H133.208C132.687 131.693 132.265 131.271 132.265 130.751C132.265 130.23 132.687 129.808 133.208 129.808H180.925C181.446 129.808 181.868 130.23 181.868 130.751C181.868 131.271 181.446 131.693 180.925 131.693Z" fill="#1A1A1A"/>
<path d="M170.107 140.464H144.027C143.506 140.464 143.084 140.042 143.084 139.521C143.084 139.001 143.506 138.579 144.027 138.579H170.107C170.628 138.579 171.05 139.001 171.05 139.521C171.05 140.042 170.628 140.464 170.107 140.464Z" fill="#1A1A1A"/>
<path d="M157.035 103.034C172.201 103.034 184.496 90.7455 184.496 75.5872C184.496 60.429 172.201 48.1409 157.035 48.1409C141.868 48.1409 129.574 60.429 129.574 75.5872C129.574 90.7455 141.868 103.034 157.035 103.034Z" fill="#FECD26"/>
<path d="M157.034 104.155C141.267 104.155 128.442 91.3364 128.442 75.5774C128.442 59.8184 141.267 47 157.034 47C172.802 47 185.627 59.8184 185.627 75.5774C185.627 91.3364 172.794 104.155 157.034 104.155ZM157.034 49.2696C142.519 49.2696 130.705 61.07 130.705 75.5849C130.705 90.0923 142.512 101.9 157.034 101.9C171.549 101.9 183.364 90.0998 183.364 75.5849C183.356 61.07 171.549 49.2696 157.034 49.2696Z" fill="#1A1A1A"/>
<g opacity="0.2">
<path d="M174.877 54.7285C178.989 59.5241 181.471 65.7523 181.471 72.5611C181.471 87.7169 169.174 100.007 154.01 100.007C147.197 100.007 140.966 97.5192 136.168 93.4173C141.207 99.2987 148.676 103.024 157.028 103.024C172.191 103.024 184.489 90.733 184.489 75.5772C184.489 67.2377 180.762 59.7654 174.877 54.7285Z" fill="#1A1A1A"/>
</g>
<g opacity="0.5">
<path d="M131.835 76.7171C131.835 62.2098 143.642 50.4018 158.165 50.4018C165.136 50.4018 171.48 53.1313 176.195 57.565C171.39 52.4678 164.585 49.2708 157.033 49.2708C142.518 49.2708 130.704 61.0712 130.704 75.5861C130.704 83.1263 133.902 89.9351 139.002 94.7382C134.566 90.0181 131.835 83.6843 131.835 76.7171Z" fill="white"/>
</g>
<mask id="mask0_1_29466" style="mask-type:luminance" maskUnits="userSpaceOnUse" x="130" y="49" width="54" height="53">
<path d="M157.034 101.901C171.575 101.901 183.363 90.1197 183.363 75.5861C183.363 61.0525 171.575 49.2708 157.034 49.2708C142.493 49.2708 130.705 61.0525 130.705 75.5861C130.705 90.1197 142.493 101.901 157.034 101.901Z" fill="white"/>
</mask>
<g mask="url(#mask0_1_29466)">
<path d="M161.983 95.6565H152.628V102.593H161.983V95.6565Z" fill="#FFE0B2"/>
<g opacity="0.5">
<path d="M154.891 95.6565H152.628V102.593H154.891V95.6565Z" fill="white"/>
</g>
<path d="M161.983 104.155H152.628C152.183 104.155 151.821 103.793 151.821 103.348V95.6574C151.821 95.2125 152.183 94.8506 152.628 94.8506H161.983C162.428 94.8506 162.79 95.2125 162.79 95.6574V103.348C162.783 103.793 162.428 104.155 161.983 104.155ZM153.428 102.549H161.176V96.4642H153.428V102.549Z" fill="#1A1A1A"/>
<path d="M172.373 78.2891C172.373 78.2891 173.943 78.568 174.561 80.6114C174.893 81.7274 174.765 82.9338 174.282 83.997C173.648 85.4146 172.313 87.2619 169.665 87.2619C169.665 87.2619 169.665 80.9885 169.665 80.4229C169.657 79.8499 172.373 78.2891 172.373 78.2891Z" fill="#FFE0B2"/>
<path d="M169.658 88.0684C169.212 88.0684 168.85 87.7065 168.85 87.2616V80.4226C168.85 80.0908 168.85 79.3896 171.959 77.5875C172.125 77.4895 172.313 77.4593 172.502 77.4895C172.585 77.5045 174.569 77.8816 175.316 80.3698C175.693 81.629 175.58 83.0315 174.999 84.3134C173.928 86.7338 172.026 88.0684 169.658 88.0684ZM170.465 80.596V86.3869C171.815 86.1381 172.841 85.2257 173.543 83.6649C173.965 82.7299 174.048 81.7271 173.784 80.8373C173.46 79.7591 172.819 79.3217 172.464 79.1634C171.566 79.7063 170.721 80.3095 170.465 80.596Z" fill="#1A1A1A"/>
<path d="M141.698 78.2861C141.698 78.2861 140.129 78.5651 139.51 80.6085C139.178 81.7245 139.306 82.9309 139.789 83.9941C140.423 85.4116 141.758 87.259 144.406 87.259C144.406 87.259 144.406 80.9855 144.406 80.42C144.406 79.847 141.698 78.2861 141.698 78.2861Z" fill="#FFE0B2"/>
<path d="M144.407 88.0667C142.038 88.0667 140.137 86.7397 139.058 84.3268C138.477 83.0374 138.371 81.6349 138.741 80.3833C139.488 77.895 141.472 77.518 141.555 77.5029C141.744 77.4727 141.932 77.5029 142.098 77.6009C145.207 79.403 145.207 80.0967 145.207 80.436V87.275C145.214 87.7048 144.852 88.0667 144.407 88.0667ZM141.6 79.1617C141.246 79.3201 140.605 79.7574 140.28 80.8357C140.016 81.7254 140.099 82.7283 140.522 83.6632C141.223 85.2165 142.257 86.1289 143.6 86.3853V80.5944C143.351 80.3079 142.498 79.7046 141.6 79.1617Z" fill="#1A1A1A"/>
<path d="M144.752 87.8255C144.835 88.1648 145.393 90.3062 146.985 92.4702C149.278 95.5843 152.538 97.2809 156.664 97.5071C156.792 97.5146 157.011 97.5297 157.117 97.5297C157.124 97.5297 157.124 97.5297 157.132 97.5297C157.139 97.5297 157.139 97.5297 157.147 97.5297C157.245 97.5297 157.471 97.5222 157.585 97.5071C161.741 97.2809 165.001 95.5693 167.302 92.4325C168.878 90.276 169.429 88.1648 169.504 87.8255V79.6896L169.678 68.9825L168.199 66.9391L162.111 64.1567H155.487L151.346 65.0691L146.185 66.7657L144.578 68.9825L144.752 79.682V87.8255Z" fill="#FFE0B2"/>
<g opacity="0.5">
<path d="M158.58 97.3638C158.46 97.3714 158.241 97.3865 158.143 97.3865C158.135 97.3865 158.135 97.3865 158.128 97.3865C158.12 97.3865 158.12 97.3865 158.113 97.3865C158.015 97.3865 157.788 97.3789 157.66 97.3638C153.533 97.1376 150.274 95.4411 147.981 92.327C147.92 92.2516 147.868 92.1762 147.815 92.0932C146.449 90.1554 145.755 87.8255 145.755 85.4578V79.5388L145.582 68.8392L147.189 66.6224L152.349 64.9258L155.842 64.1567H155.487L151.346 65.0691L146.185 66.7657L144.578 68.9825L144.752 79.682V87.8255C144.835 88.1648 145.393 90.3062 146.985 92.4702C149.278 95.5843 152.538 97.2809 156.664 97.5071C156.792 97.5146 157.011 97.5297 157.117 97.5297C157.124 97.5297 157.124 97.5297 157.132 97.5297C157.139 97.5297 157.139 97.5297 157.147 97.5297C157.245 97.5297 157.471 97.5222 157.585 97.5071C158.241 97.4694 158.867 97.4015 159.478 97.2884C159.176 97.3186 158.882 97.3412 158.58 97.3638Z" fill="white"/>
</g>
<g opacity="0.2">
<path d="M154.432 76.5834C154.41 76.5608 154.387 76.5382 154.364 76.5231C152.705 75.4976 150.26 75.5052 149.287 75.558C148.804 75.5881 148.367 75.7088 148.005 75.935C146.737 76.7116 146.971 77.9407 146.979 77.9934C147.001 78.099 147.077 78.182 147.182 78.2121C147.205 78.2197 147.235 78.2197 147.258 78.2197C147.333 78.2197 147.409 78.1895 147.469 78.1292C148.985 76.5231 153.783 78.182 153.829 78.2046C153.904 78.2347 153.995 78.2272 154.063 78.182C154.417 77.9859 154.628 77.7295 154.681 77.4204C154.757 76.9831 154.462 76.6211 154.432 76.5834Z" fill="#1A1A1A"/>
</g>
<path d="M153.919 77.227C153.919 77.227 148.917 75.4626 147.258 77.227C147.258 77.227 147.039 76.1487 148.155 75.4701C148.502 75.259 148.902 75.1534 149.302 75.1308C150.298 75.078 152.637 75.0705 154.213 76.0507C154.213 76.0507 154.802 76.7369 153.919 77.227Z" fill="#FECD26"/>
<path d="M147.257 78.0313C147.182 78.0313 147.107 78.0238 147.039 78.0012C146.752 77.9182 146.533 77.6845 146.473 77.3829C146.352 76.7797 146.48 75.5506 147.74 74.7815C148.178 74.51 148.698 74.3592 149.264 74.3291C150.532 74.2612 152.923 74.2989 154.643 75.3696C154.711 75.4149 154.779 75.4677 154.832 75.528C154.915 75.626 155.315 76.1312 155.194 76.8098C155.134 77.134 154.937 77.5865 154.319 77.9333C154.115 78.0464 153.874 78.0615 153.663 77.9861C152.191 77.4658 148.834 76.7419 147.846 77.7825C147.687 77.9408 147.476 78.0313 147.257 78.0313Z" fill="#1A1A1A"/>
<g opacity="0.5">
<path d="M148.443 75.86C148.73 75.6865 149.069 75.5885 149.462 75.5659C150.352 75.5206 152.547 75.5056 154.071 76.3652C154.056 76.3274 154.034 76.2973 154.018 76.2747C152.495 75.3623 150.224 75.3774 149.318 75.4226C148.926 75.4452 148.587 75.5433 148.3 75.7167C147.855 75.9881 147.659 76.335 147.576 76.6215C147.659 76.5763 147.742 76.5386 147.825 76.4933C147.945 76.2747 148.126 76.0485 148.443 75.86Z" fill="white"/>
</g>
<g opacity="0.2">
<path d="M165.598 75.7962C165.229 75.57 164.799 75.4419 164.316 75.4192C163.343 75.3664 160.898 75.3514 159.239 76.3844C159.216 76.3995 159.193 76.4221 159.171 76.4447C159.141 76.4824 158.839 76.8443 158.922 77.2967C158.975 77.6059 159.186 77.8623 159.54 78.0583C159.616 78.096 159.699 78.1035 159.774 78.0809C159.82 78.0658 164.618 76.3995 166.134 78.0055C166.187 78.0658 166.262 78.096 166.345 78.096C166.375 78.096 166.398 78.096 166.421 78.0885C166.526 78.0583 166.602 77.9754 166.624 77.8698C166.639 77.8019 166.866 76.5653 165.598 75.7962Z" fill="#1A1A1A"/>
</g>
<path d="M159.683 77.2243C159.683 77.2243 164.685 75.4599 166.344 77.2243C166.344 77.2243 166.563 76.146 165.447 75.4674C165.1 75.2563 164.7 75.1507 164.3 75.1281C163.304 75.0753 160.965 75.0678 159.389 76.048C159.389 76.048 158.8 76.7342 159.683 77.2243Z" fill="#FECD26"/>
<path d="M166.344 78.0307C166.125 78.0307 165.914 77.9403 165.763 77.7819C164.775 76.7414 161.425 77.4728 159.947 77.9855C159.728 78.0609 159.487 78.0383 159.29 77.9327C158.672 77.5859 158.468 77.1335 158.415 76.8092C158.295 76.1381 158.694 75.6254 158.777 75.5274C158.83 75.4671 158.891 75.4067 158.966 75.369C160.686 74.3059 163.078 74.2606 164.345 74.3285C164.918 74.3587 165.431 74.5095 165.869 74.7809C167.121 75.55 167.257 76.7791 167.136 77.3823C167.076 77.6763 166.857 77.9176 166.571 78.0006C166.495 78.0232 166.42 78.0307 166.344 78.0307Z" fill="#1A1A1A"/>
<g opacity="0.5">
<path d="M159.773 76.755C159.751 76.6192 159.819 76.476 159.871 76.4081C161.395 75.4957 163.666 75.5108 164.571 75.5561C164.843 75.5711 165.092 75.6239 165.318 75.7144C165.311 75.7144 165.311 75.7069 165.303 75.7069C165.017 75.5334 164.677 75.4354 164.285 75.4128C163.372 75.36 161.109 75.3449 159.585 76.2648C159.539 76.3327 159.464 76.476 159.487 76.6117C159.509 76.7173 159.585 76.8153 159.713 76.9058C159.743 76.8982 159.781 76.8831 159.819 76.8681C159.796 76.8379 159.781 76.8002 159.773 76.755Z" fill="white"/>
</g>
<path d="M157.163 98.8264C157.133 98.8264 157.11 98.8264 157.08 98.8264C156.891 98.8264 156.627 98.8113 156.574 98.8038C145.726 98.2081 143.485 88.1419 143.463 88.0439C143.448 87.9911 143.448 87.9308 143.448 87.878V79.6818L143.266 68.8314C143.266 68.658 143.319 68.4846 143.417 68.3489L147.159 63.1838C147.31 62.9727 147.552 62.8521 147.808 62.8521H166.427C166.684 62.8521 166.925 62.9727 167.076 63.1838L170.818 68.3489C170.924 68.4921 170.976 68.658 170.969 68.8314L170.788 79.6969V87.878C170.788 87.9308 170.78 87.9911 170.773 88.0439C170.75 88.1419 168.509 98.2081 157.646 98.8038C157.616 98.8113 157.359 98.8264 157.163 98.8264ZM157.125 97.2203C157.14 97.2203 157.163 97.2203 157.178 97.2203C157.321 97.2203 157.555 97.2053 157.555 97.2053C166.744 96.7001 168.985 88.6471 169.196 87.7875V79.6893L169.369 69.0803L166.027 64.4657H148.223L144.881 69.0803L145.054 79.6743V87.7875C145.273 88.715 147.431 96.6925 156.68 97.1977C156.703 97.1977 156.967 97.2203 157.103 97.2203C157.11 97.2203 157.118 97.2203 157.125 97.2203Z" fill="#1A1A1A"/>
<g opacity="0.2">
<path d="M169.688 86.0941L169.672 73.0495C169.672 73.0495 169.65 73.042 169.612 73.0194L169.68 68.9778L168.201 66.9344L167.107 66.4368L168.533 68.4048L168.465 72.3483C167.092 71.4586 164.987 69.762 164.625 67.5301C164.625 67.5301 160.069 74.7687 152.042 75.0552L154.048 70.9006L147.168 74.4822L147.455 71.9034L144.158 75.485L144.09 78.848L146.383 74.9798L146.527 76.1259L150.97 73.977L150.11 76.8423C150.11 76.8423 161.577 75.9827 164.158 70.5386C164.158 70.5386 165.018 73.6905 168.314 73.977L168.428 74.9647L168.36 79.1119V85.0309C168.36 87.3835 167.666 89.6983 166.315 91.6286C166.262 91.704 166.21 91.7794 166.149 91.8624C163.856 94.9991 160.589 96.7032 156.432 96.9369C156.312 96.9445 156.093 96.9595 155.995 96.9595C155.987 96.9595 155.987 96.9595 155.98 96.9595C155.972 96.9595 155.972 96.9595 155.965 96.9595C155.866 96.9595 155.64 96.952 155.512 96.9369C153.762 96.8389 152.17 96.477 150.736 95.8587C152.449 96.8314 154.426 97.3893 156.659 97.51C156.787 97.5175 157.006 97.5326 157.111 97.5326C157.119 97.5326 157.119 97.5326 157.126 97.5326C157.134 97.5326 157.134 97.5326 157.141 97.5326C157.24 97.5326 157.466 97.5251 157.579 97.51C161.736 97.2838 164.995 95.5721 167.296 92.4354C168.873 90.2789 169.423 88.1677 169.499 87.8284V84.4428L169.688 86.0941Z" fill="#1A1A1A"/>
</g>
<path d="M144.014 87.0703C144.195 87.5077 144.097 80.5405 144.037 77.3359C144.022 76.3255 144.391 75.3453 145.078 74.5988L147.371 72.103V74.546L154.093 70.8815L151.928 75.2925C151.928 75.2925 161.426 73.9353 164.481 67.5261C164.481 67.5261 166.616 73.0229 169.672 73.0229L170.366 86.6104L173.949 73.3245C173.949 73.3245 176.084 62.3309 166.616 60.4986C166.616 60.4986 163.569 56.1479 157.835 55.8916C156.281 55.8237 154.742 56.1328 153.308 56.721C151.769 57.3544 148.706 58.3647 144.927 58.3647C144.927 58.3647 140.649 62.9417 141.871 65.9954C141.871 65.9879 138.824 74.5536 144.014 87.0703Z" fill="#6C7A89"/>
<g opacity="0.5">
<path d="M170.026 72.6931L170.237 73.334C170.666 74.6159 170.87 75.9656 170.855 77.3153L170.742 84.8706L169.822 73.8015L170.026 72.6931Z" fill="white"/>
</g>
<g opacity="0.5">
<path d="M164.724 67.1077C164.724 67.1077 168.005 72.2652 170.027 72.695C170.027 72.695 165.659 72.4763 164.724 67.1077Z" fill="white"/>
</g>
<g opacity="0.5">
<path d="M153.829 72.2652L153.543 73.8411C153.543 73.8411 161.426 71.9786 164.15 67.1077C164.15 67.1077 162.362 72.333 155.625 74.1955L152.185 75.2059L153.829 72.2652Z" fill="white"/>
</g>
<g opacity="0.5">
<path d="M147.808 71.978L147.922 72.2344C148.095 72.6415 148.57 72.83 148.978 72.6491L153.972 70.4021L147.378 74.5568L147.808 71.978Z" fill="white"/>
</g>
<g opacity="0.5">
<path d="M157.82 56.3881C156.387 56.3203 154.938 56.5917 153.505 57.1799C153.482 57.1874 153.46 57.1949 153.445 57.2025C152.939 56.9461 152.034 56.931 151.068 57.2025C150.08 57.4815 149.303 57.9867 149.024 58.4768C147.862 58.6879 146.564 58.8387 145.161 58.8538C144.452 59.6606 141.374 63.3704 142.347 65.7983C142.392 65.9114 142.392 66.0396 142.355 66.1527C142.347 66.1678 142.241 66.492 142.098 67.0952C141.796 67.902 141.728 68.543 141.728 68.6033C141.728 68.641 141.751 68.6711 141.796 68.7088C141.336 71.7852 141.117 77.4555 143.63 84.6262C143.63 84.3246 143.63 83.9928 143.63 83.6309C140.899 74.6958 142.392 68.3921 142.785 67.0123C143.63 65.082 144.776 64.0791 144.776 64.0791C143.833 64.5014 143.177 65.1725 142.724 65.8662C142.302 63.4608 145.018 60.1809 145.682 59.4268C146.874 59.4118 147.99 59.3062 149.009 59.1403C149.325 59.6304 150.465 59.7586 151.702 59.4042C152.909 59.0649 153.799 58.3863 153.852 57.8132C153.912 57.7906 153.973 57.768 154.025 57.7454C155.459 57.1572 156.915 56.8933 158.341 56.9536C162.226 57.1271 164.844 59.2987 166.021 60.5202C165.274 59.6304 162.437 56.5917 157.82 56.3881Z" fill="white"/>
</g>
<path d="M144.044 87.8951C143.72 87.8951 143.403 87.6915 143.275 87.3824C138.484 75.8232 140.536 67.6195 141.027 65.9983C139.986 62.6052 143.878 58.2998 144.346 57.8096C144.497 57.6438 144.708 57.5533 144.935 57.5533C148.601 57.5533 151.566 56.5655 153.015 55.9698C154.629 55.3063 156.266 55.0122 157.888 55.0801C163.169 55.3138 166.292 58.7597 167.092 59.7626C171.128 60.6448 173.738 63.2838 174.636 67.4159C175.315 70.5224 174.78 73.3425 174.757 73.4631C174.757 73.4782 174.749 73.5008 174.742 73.5159L171.158 86.8018C171.053 87.1863 170.691 87.4351 170.298 87.3899C169.906 87.3447 169.597 87.028 169.582 86.6283L168.918 73.712C166.805 73.2294 165.244 70.8542 164.414 69.2482C160.657 74.7751 152.426 76.0042 152.056 76.0645C151.762 76.1022 151.468 75.9816 151.294 75.7403C151.121 75.499 151.091 75.1823 151.227 74.9109L152.275 72.777L147.779 75.2275C147.53 75.3633 147.228 75.3557 146.987 75.2125C146.745 75.0692 146.594 74.8053 146.594 74.5188V74.1417L145.697 75.1144C145.146 75.7101 144.852 76.4868 144.867 77.3011C145.048 87.684 145.048 87.684 144.218 87.8574C144.143 87.8951 144.09 87.8951 144.044 87.8951ZM145.289 59.1593C144.097 60.5241 141.834 63.7212 142.619 65.6892C142.694 65.8701 142.694 66.0737 142.626 66.2547C142.603 66.3301 140.385 72.8675 143.305 82.6848C143.298 81.3049 143.275 79.5405 143.237 77.3463C143.215 76.1248 143.66 74.9485 144.49 74.0513L146.783 71.5555C147.009 71.3142 147.356 71.2312 147.666 71.3519C147.975 71.4725 148.179 71.7666 148.179 72.0984V73.1841L153.709 70.1681C154.018 70.0022 154.395 70.0474 154.652 70.2962C154.908 70.5451 154.968 70.9145 154.818 71.2312L153.377 74.1644C156.108 73.4857 161.645 71.6007 163.757 67.1746C163.893 66.8881 164.18 66.7071 164.512 66.7146C164.829 66.7297 165.115 66.9258 165.229 67.2274C165.772 68.6148 167.628 72.2115 169.672 72.2115C170.102 72.2115 170.457 72.5432 170.472 72.973L170.909 81.4935L173.165 73.1389C173.293 72.4452 174.893 62.9144 166.466 61.2857C166.262 61.248 166.081 61.1273 165.96 60.9539C165.93 60.9162 163.048 56.9199 157.805 56.6937C156.417 56.6334 155.006 56.8897 153.618 57.4628C152.109 58.0811 149.061 59.099 145.289 59.1593Z" fill="#1A1A1A"/>
<g opacity="0.5">
<path d="M164.911 62.3422C164.911 62.3422 166.284 62.2668 167.114 61.5806C168.97 61.9501 170.464 62.7116 171.596 63.8578C170.404 62.3723 168.706 61.4147 166.518 60.9925C166.465 60.9849 166.42 60.9623 166.375 60.9397C166.413 60.9849 166.443 61.0226 166.473 61.0528H166.458L164.911 62.3422Z" fill="white"/>
</g>
<path d="M165.96 81.1088C165.96 81.1088 163.01 78.711 159.313 81.3124C159.313 81.3124 159.509 79.7214 161.773 79.1634C162.844 78.8995 163.991 79.0579 164.896 79.6988C165.356 80.023 165.771 80.4754 165.96 81.1088Z" fill="#1A1A1A"/>
<path d="M162.232 82.9631C162.953 82.9631 163.538 82.2271 163.538 81.3193C163.538 80.4115 162.953 79.6755 162.232 79.6755C161.512 79.6755 160.927 80.4115 160.927 81.3193C160.927 82.2271 161.512 82.9631 162.232 82.9631Z" fill="#1A1A1A"/>
<path d="M148.071 81.111C148.071 81.111 151.021 78.7132 154.717 81.3146C154.717 81.3146 154.521 79.7236 152.258 79.1656C151.187 78.9017 150.04 79.0601 149.135 79.701C148.682 80.0252 148.267 80.4776 148.071 81.111Z" fill="#1A1A1A"/>
<path d="M151.799 82.9636C152.52 82.9636 153.104 82.2276 153.104 81.3198C153.104 80.412 152.52 79.676 151.799 79.676C151.078 79.676 150.494 80.412 150.494 81.3198C150.494 82.2276 151.078 82.9636 151.799 82.9636Z" fill="#1A1A1A"/>
<path d="M140.876 66.7875C141.171 66.4029 141.465 66.1013 141.782 65.7922C142.099 65.4906 142.43 65.1965 142.785 64.9477C143.147 64.6988 143.517 64.4575 143.917 64.2992C144.317 64.1333 144.747 64.0278 145.162 64.0353C144.762 64.171 144.422 64.3897 144.128 64.646C143.826 64.9024 143.577 65.2116 143.351 65.5283C143.125 65.8449 142.921 66.1843 142.74 66.5311C142.566 66.8704 142.393 67.2474 142.28 67.5792C142.136 68.009 141.676 68.2352 141.246 68.0919C140.816 67.9487 140.59 67.4887 140.733 67.0589C140.763 66.9684 140.808 66.893 140.861 66.8252L140.876 66.7875Z" fill="#1A1A1A"/>
<path d="M166.517 60.7368C166.517 60.7368 166.306 61.3777 164.873 62.3806L166.517 60.7368Z" fill="#FECD26"/>
<path d="M167.282 60.9816C167.229 61.0947 167.214 61.0947 167.184 61.14C167.161 61.1701 167.131 61.2078 167.108 61.2304C167.055 61.2832 167.01 61.3285 166.957 61.3737C166.859 61.4566 166.761 61.532 166.656 61.5999C166.459 61.7281 166.263 61.8412 166.06 61.9317C165.66 62.1202 165.267 62.2559 164.868 62.369C165.109 62.0372 165.335 61.6904 165.509 61.3435C165.599 61.1701 165.675 60.9967 165.728 60.8233C165.758 60.7403 165.773 60.6574 165.788 60.582C165.788 60.5443 165.795 60.5066 165.795 60.4764C165.795 60.4613 165.788 60.4538 165.788 60.4387C165.78 60.4387 165.78 60.401 165.75 60.4689C165.894 60.0466 166.346 59.8204 166.769 59.9637C167.191 60.1069 167.417 60.5594 167.282 60.9816Z" fill="#1A1A1A"/>
<g opacity="0.2">
<path d="M164.007 58.04C164.007 58.04 165.44 67.2466 154.267 71.258L151.906 74.9075C151.906 74.9075 160.65 73.7614 164.09 67.7443C164.09 67.7443 167.017 73.5276 169.786 73.2863L169.861 75.1865C169.861 75.1865 172.766 76.5588 172.622 78.278C172.622 78.278 178.137 63.4539 166.677 60.4454L164.007 58.04Z" fill="#1A1A1A"/>
</g>
<g opacity="0.2">
<path d="M174.469 80.7131C174.469 80.7131 173.051 83.9328 171.172 83.5784L170.244 87.3711C170.244 87.3711 175.404 85.2222 174.469 80.7131Z" fill="#1A1A1A"/>
</g>
<path d="M153.686 70.1803C153.641 70.2104 153.648 70.2029 153.641 70.2104C153.633 70.218 153.633 70.218 153.633 70.2255C153.633 70.2331 153.626 70.2406 153.633 70.2406C153.633 70.2481 153.648 70.2557 153.656 70.2557C153.678 70.2632 153.701 70.2632 153.724 70.2632C153.776 70.2632 153.837 70.2481 153.897 70.2331C154.018 70.2029 154.146 70.1577 154.274 70.1049C154.53 70.0069 154.787 69.8862 155.051 69.7505C155.013 70.037 154.968 70.3235 154.9 70.6176C154.862 70.7609 154.824 70.9117 154.772 71.0625C154.742 71.1379 154.711 71.2133 154.674 71.2962C154.651 71.3339 154.628 71.3792 154.598 71.4244C154.583 71.447 154.568 71.4697 154.545 71.4998C154.538 71.5149 154.523 71.53 154.508 71.5451C154.5 71.5526 154.493 71.5601 154.478 71.5677C154.463 71.5828 154.463 71.5828 154.41 71.6129C154.01 71.809 153.527 71.6506 153.331 71.251C153.128 70.8589 153.294 70.3763 153.686 70.1803Z" fill="#1A1A1A"/>
<g opacity="0.2">
<path d="M141.652 81.1414C141.652 81.1414 142.368 85.296 140.181 84.8738C140.181 84.8738 141.871 87.5204 143.734 87.0906L141.652 81.1414Z" fill="#1A1A1A"/>
</g>
<g opacity="0.2">
<path d="M146.805 71.9819C146.805 71.9819 141.645 78.5721 140.928 73.128L143.433 86.5195L144.24 78.6776L144.512 75.4127L146.805 71.9819Z" fill="#1A1A1A"/>
</g>
<path d="M152.207 88.6848C152.207 88.6848 157.729 90.5472 162.203 88.2776C162.203 88.2776 158.401 92.5001 152.154 88.6094L152.207 88.6848Z" fill="#1A1A1A"/>
<g opacity="0.2">
<path d="M152.824 98.6586C152.824 98.6586 154.628 99.5559 156.83 99.6238C157.502 99.6464 157.736 100.521 157.162 100.868C156.129 101.494 154.62 102.044 152.636 101.863V103.371H161.689L162.443 97.3391C162.443 97.3391 156.408 98.8472 153.39 97.7161L152.824 98.6586Z" fill="#1A1A1A"/>
</g>
</g>
<path d="M136.278 107.593C136.573 107.593 136.867 107.615 137.161 107.653C137.455 107.698 137.727 107.744 137.976 107.796C138.263 107.857 138.534 107.925 138.798 107.992V109.621C138.534 109.531 138.24 109.44 137.9 109.365C137.568 109.282 137.221 109.229 136.867 109.206C136.512 109.176 136.165 109.191 135.818 109.244C135.479 109.297 135.169 109.418 134.898 109.606C134.626 109.795 134.407 110.058 134.241 110.405C134.076 110.745 133.993 111.197 133.993 111.755C133.993 112.313 134.068 112.758 134.226 113.105C134.385 113.452 134.596 113.715 134.853 113.904C135.109 114.092 135.411 114.206 135.75 114.266C136.09 114.319 136.437 114.334 136.791 114.304C137.146 114.273 137.493 114.221 137.84 114.13C138.187 114.04 138.504 113.949 138.791 113.859V115.48C138.527 115.563 138.255 115.638 137.968 115.699C137.719 115.759 137.448 115.812 137.154 115.857C136.859 115.902 136.565 115.917 136.271 115.917C136.007 115.917 135.713 115.895 135.396 115.842C135.071 115.789 134.739 115.706 134.407 115.585C134.076 115.465 133.751 115.306 133.434 115.103C133.125 114.899 132.846 114.643 132.597 114.334C132.348 114.025 132.152 113.663 132.001 113.233C131.85 112.811 131.775 112.313 131.775 111.755C131.775 111.197 131.85 110.714 132.001 110.285C132.152 109.855 132.348 109.493 132.597 109.184C132.846 108.875 133.125 108.618 133.434 108.415C133.744 108.211 134.068 108.045 134.407 107.925C134.739 107.804 135.071 107.713 135.396 107.668C135.72 107.615 136.014 107.593 136.278 107.593Z" fill="#1A1A1A"/>
<path d="M147.247 107.707L144.493 115.782H141.845L139.137 107.707H141.423L143.226 114.259L145.044 107.707H147.247Z" fill="#1A1A1A"/>
<rect x="12.5" y="8" width="85" height="30" rx="15" fill="#71CCB1"/>
<path d="M33.372 17.2C34.7067 17.2 35.8127 17.676 36.69 18.628C37.5767 19.5707 38.02 20.728 38.02 22.1C38.02 23.472 37.5767 24.634 36.69 25.586C35.8127 26.5287 34.7067 27 33.372 27H29.55V17.2H33.372ZM33.372 25.768C34.3707 25.768 35.1873 25.418 35.822 24.718C36.4567 24.018 36.774 23.1453 36.774 22.1C36.774 21.0547 36.4567 20.182 35.822 19.482C35.1873 18.782 34.3707 18.432 33.372 18.432H30.852V25.768H33.372ZM40.3688 18.726C40.1355 18.726 39.9395 18.6467 39.7808 18.488C39.6222 18.3293 39.5428 18.138 39.5428 17.914C39.5428 17.69 39.6222 17.4987 39.7808 17.34C39.9395 17.172 40.1355 17.088 40.3688 17.088C40.5928 17.088 40.7842 17.172 40.9428 17.34C41.1015 17.4987 41.1808 17.69 41.1808 17.914C41.1808 18.138 41.1015 18.3293 40.9428 18.488C40.7842 18.6467 40.5928 18.726 40.3688 18.726ZM39.7528 27V20H40.9708V27H39.7528ZM44.1453 21.89C44.1453 22.1607 44.2807 22.38 44.5513 22.548C44.822 22.7067 45.1487 22.8373 45.5313 22.94C45.914 23.0333 46.2967 23.1453 46.6793 23.276C47.062 23.3973 47.3887 23.612 47.6593 23.92C47.93 24.2187 48.0653 24.606 48.0653 25.082C48.0653 25.7167 47.818 26.2253 47.3233 26.608C46.838 26.9907 46.2127 27.182 45.4473 27.182C44.766 27.182 44.1827 27.0327 43.6973 26.734C43.212 26.4353 42.8667 26.0387 42.6613 25.544L43.7113 24.942C43.8233 25.278 44.0333 25.544 44.3413 25.74C44.6493 25.936 45.018 26.034 45.4473 26.034C45.8487 26.034 46.18 25.9593 46.4413 25.81C46.7027 25.6513 46.8333 25.4087 46.8333 25.082C46.8333 24.8113 46.698 24.5967 46.4273 24.438C46.1567 24.27 45.83 24.1393 45.4473 24.046C45.0647 23.9433 44.682 23.8267 44.2993 23.696C43.9167 23.5653 43.59 23.3507 43.3193 23.052C43.0487 22.7533 42.9133 22.3707 42.9133 21.904C42.9133 21.2973 43.1467 20.798 43.6133 20.406C44.0893 20.014 44.682 19.818 45.3913 19.818C45.9607 19.818 46.4647 19.9487 46.9033 20.21C47.3513 20.462 47.6873 20.8167 47.9113 21.274L46.8893 21.848C46.6373 21.2507 46.138 20.952 45.3913 20.952C45.046 20.952 44.752 21.036 44.5093 21.204C44.2667 21.3627 44.1453 21.5913 44.1453 21.89ZM52.886 27.182C51.8314 27.182 50.954 26.832 50.254 26.132C49.554 25.4227 49.204 24.5453 49.204 23.5C49.204 22.4547 49.554 21.582 50.254 20.882C50.954 20.1727 51.8314 19.818 52.886 19.818C53.5767 19.818 54.1974 19.986 54.748 20.322C55.2987 20.6487 55.7094 21.092 55.98 21.652L54.958 22.24C54.7807 21.8667 54.5054 21.568 54.132 21.344C53.768 21.12 53.3527 21.008 52.886 21.008C52.186 21.008 51.598 21.246 51.122 21.722C50.6554 22.198 50.422 22.7907 50.422 23.5C50.422 24.2 50.6554 24.788 51.122 25.264C51.598 25.74 52.186 25.978 52.886 25.978C53.3527 25.978 53.7727 25.8707 54.146 25.656C54.5194 25.432 54.804 25.1333 55 24.76L56.036 25.362C55.7374 25.9127 55.308 26.356 54.748 26.692C54.188 27.0187 53.5674 27.182 52.886 27.182ZM58.1346 18.726C57.9013 18.726 57.7053 18.6467 57.5466 18.488C57.3879 18.3293 57.3086 18.138 57.3086 17.914C57.3086 17.69 57.3879 17.4987 57.5466 17.34C57.7053 17.172 57.9013 17.088 58.1346 17.088C58.3586 17.088 58.5499 17.172 58.7086 17.34C58.8673 17.4987 58.9466 17.69 58.9466 17.914C58.9466 18.138 58.8673 18.3293 58.7086 18.488C58.5499 18.6467 58.3586 18.726 58.1346 18.726ZM57.5186 27V20H58.7366V27H57.5186ZM64.7388 19.818C65.7188 19.818 66.5541 20.1773 67.2448 20.896C67.9354 21.6053 68.2808 22.4733 68.2808 23.5C68.2808 24.5267 67.9354 25.3993 67.2448 26.118C66.5541 26.8273 65.7188 27.182 64.7388 27.182C63.5814 27.182 62.6994 26.72 62.0928 25.796V29.8H60.8748V20H62.0928V21.204C62.6994 20.28 63.5814 19.818 64.7388 19.818ZM64.5848 26.006C65.2848 26.006 65.8728 25.768 66.3488 25.292C66.8248 24.8067 67.0628 24.2093 67.0628 23.5C67.0628 22.7907 66.8248 22.198 66.3488 21.722C65.8728 21.2367 65.2848 20.994 64.5848 20.994C63.8754 20.994 63.2828 21.2367 62.8068 21.722C62.3308 22.198 62.0928 22.7907 62.0928 23.5C62.0928 24.2093 62.3308 24.8067 62.8068 25.292C63.2828 25.768 63.8754 26.006 64.5848 26.006ZM70.0142 27V16.78H71.2322V27H70.0142ZM74.2243 24.06C74.3457 24.6853 74.6303 25.1707 75.0783 25.516C75.5357 25.8613 76.0957 26.034 76.7583 26.034C77.6823 26.034 78.3543 25.6933 78.7743 25.012L79.8103 25.6C79.129 26.6547 78.1023 27.182 76.7303 27.182C75.6197 27.182 74.7143 26.8367 74.0143 26.146C73.3237 25.446 72.9783 24.564 72.9783 23.5C72.9783 22.4453 73.319 21.568 74.0003 20.868C74.6817 20.168 75.5637 19.818 76.6463 19.818C77.673 19.818 78.5083 20.182 79.1523 20.91C79.8057 21.6287 80.1323 22.4967 80.1323 23.514C80.1323 23.6913 80.1183 23.8733 80.0903 24.06H74.2243ZM76.6463 20.966C75.993 20.966 75.4517 21.1527 75.0223 21.526C74.593 21.89 74.327 22.38 74.2243 22.996H78.9003C78.7977 22.3333 78.5363 21.8293 78.1163 21.484C77.6963 21.1387 77.2063 20.966 76.6463 20.966Z" fill="#020617"/>
</svg>
