<svg width="316" height="217" viewBox="0 0 316 217" fill="none" xmlns="http://www.w3.org/2000/svg">
<rect x="0.5" width="315" height="217" rx="12" fill="#F2F4FC"/>
<path d="M74.14 110.12V115.24H71.14V120H65.58V115.24H52.34V110.12L61.66 92H67.58L58.3 110.12H65.58V103.48H71.14V110.12H74.14ZM88.9031 120.56C85.4098 120.56 82.6631 119.24 80.6631 116.6C78.6898 113.933 77.7031 110.4 77.7031 106C77.7031 101.6 78.6898 98.08 80.6631 95.44C82.6631 92.7733 85.4098 91.44 88.9031 91.44C92.4231 91.44 95.1698 92.7733 97.1431 95.44C99.1165 98.08 100.103 101.6 100.103 106C100.103 110.4 99.1165 113.933 97.1431 116.6C95.1698 119.24 92.4231 120.56 88.9031 120.56ZM84.6631 112.84C85.6231 114.387 87.0365 115.16 88.9031 115.16C90.7698 115.16 92.1831 114.373 93.1431 112.8C94.1298 111.227 94.6231 108.96 94.6231 106C94.6231 103.013 94.1298 100.733 93.1431 99.16C92.1831 97.5867 90.7698 96.8 88.9031 96.8C87.0365 96.8 85.6231 97.5867 84.6631 99.16C83.7031 100.733 83.2231 103.013 83.2231 106C83.2231 108.987 83.7031 111.267 84.6631 112.84ZM115.677 102.76C114.397 104.013 112.797 104.64 110.877 104.64C108.957 104.64 107.344 104 106.037 102.72C104.757 101.44 104.117 99.88 104.117 98.04C104.117 96.2 104.757 94.64 106.037 93.36C107.344 92.08 108.957 91.44 110.877 91.44C112.797 91.44 114.397 92.08 115.677 93.36C116.957 94.6133 117.597 96.1733 117.597 98.04C117.597 99.9067 116.957 101.48 115.677 102.76ZM106.957 115.76L125.197 95.48L127.637 96.84L109.357 117.16L106.957 115.76ZM109.037 99.88C109.517 100.36 110.117 100.6 110.837 100.6C111.557 100.6 112.157 100.36 112.637 99.88C113.117 99.3733 113.357 98.76 113.357 98.04C113.357 97.32 113.117 96.72 112.637 96.24C112.157 95.76 111.557 95.52 110.837 95.52C110.117 95.52 109.517 95.76 109.037 96.24C108.584 96.72 108.357 97.32 108.357 98.04C108.357 98.76 108.584 99.3733 109.037 99.88ZM129.197 118.56C127.917 119.84 126.317 120.48 124.397 120.48C122.477 120.48 120.877 119.84 119.597 118.56C118.317 117.28 117.677 115.72 117.677 113.88C117.677 112.04 118.317 110.48 119.597 109.2C120.877 107.92 122.477 107.28 124.397 107.28C126.317 107.28 127.917 107.92 129.197 109.2C130.477 110.48 131.117 112.04 131.117 113.88C131.117 115.72 130.477 117.28 129.197 118.56ZM122.597 115.72C123.077 116.2 123.677 116.44 124.397 116.44C125.117 116.44 125.704 116.187 126.157 115.68C126.637 115.173 126.877 114.573 126.877 113.88C126.877 113.16 126.637 112.56 126.157 112.08C125.704 111.573 125.117 111.32 124.397 111.32C123.677 111.32 123.077 111.573 122.597 112.08C122.144 112.56 121.917 113.16 121.917 113.88C121.917 114.6 122.144 115.213 122.597 115.72ZM58.36 134C60.28 134 61.88 134.673 63.16 136.02C64.4533 137.367 65.1 139.027 65.1 141C65.1 142.973 64.4533 144.633 63.16 145.98C61.88 147.327 60.28 148 58.36 148H52.8V134H58.36ZM58.36 145.36C59.5733 145.36 60.56 144.96 61.32 144.16C62.08 143.347 62.46 142.293 62.46 141C62.46 139.707 62.08 138.66 61.32 137.86C60.56 137.047 59.5733 136.64 58.36 136.64H55.56V145.36H58.36ZM68.6178 136.8C68.1911 136.8 67.8178 136.647 67.4978 136.34C67.1911 136.02 67.0378 135.647 67.0378 135.22C67.0378 134.793 67.1911 134.42 67.4978 134.1C67.8178 133.78 68.1911 133.62 68.6178 133.62C69.0578 133.62 69.4311 133.78 69.7378 134.1C70.0578 134.42 70.2178 134.793 70.2178 135.22C70.2178 135.647 70.0578 136.02 69.7378 136.34C69.4311 136.647 69.0578 136.8 68.6178 136.8ZM67.3378 148V138H69.9178V148H67.3378ZM74.9811 140.84C74.9811 141.107 75.1544 141.327 75.5011 141.5C75.8611 141.66 76.2944 141.807 76.8011 141.94C77.3078 142.06 77.8144 142.22 78.3211 142.42C78.8278 142.607 79.2544 142.927 79.6011 143.38C79.9611 143.833 80.1411 144.4 80.1411 145.08C80.1411 146.107 79.7544 146.9 78.9811 147.46C78.2211 148.007 77.2678 148.28 76.1211 148.28C74.0678 148.28 72.6678 147.487 71.9211 145.9L74.1611 144.64C74.4544 145.507 75.1078 145.94 76.1211 145.94C77.0411 145.94 77.5011 145.653 77.5011 145.08C77.5011 144.813 77.3211 144.6 76.9611 144.44C76.6144 144.267 76.1878 144.113 75.6811 143.98C75.1744 143.847 74.6678 143.68 74.1611 143.48C73.6544 143.28 73.2211 142.967 72.8611 142.54C72.5144 142.1 72.3411 141.553 72.3411 140.9C72.3411 139.913 72.7011 139.14 73.4211 138.58C74.1544 138.007 75.0611 137.72 76.1411 137.72C76.9544 137.72 77.6944 137.907 78.3611 138.28C79.0278 138.64 79.5544 139.16 79.9411 139.84L77.7411 141.04C77.4211 140.36 76.8878 140.02 76.1411 140.02C75.8078 140.02 75.5278 140.093 75.3011 140.24C75.0878 140.387 74.9811 140.587 74.9811 140.84ZM86.8236 148.28C85.3169 148.28 84.0569 147.773 83.0436 146.76C82.0436 145.747 81.5436 144.493 81.5436 143C81.5436 141.507 82.0436 140.253 83.0436 139.24C84.0569 138.227 85.3169 137.72 86.8236 137.72C87.7969 137.72 88.6836 137.953 89.4836 138.42C90.2836 138.887 90.8903 139.513 91.3036 140.3L89.0836 141.6C88.8836 141.187 88.5769 140.86 88.1636 140.62C87.7636 140.38 87.3103 140.26 86.8036 140.26C86.0303 140.26 85.3903 140.52 84.8836 141.04C84.3769 141.547 84.1236 142.2 84.1236 143C84.1236 143.787 84.3769 144.44 84.8836 144.96C85.3903 145.467 86.0303 145.72 86.8036 145.72C87.3236 145.72 87.7836 145.607 88.1836 145.38C88.5969 145.14 88.9036 144.813 89.1036 144.4L91.3436 145.68C90.9036 146.467 90.2836 147.1 89.4836 147.58C88.6836 148.047 87.7969 148.28 86.8236 148.28ZM101.472 146.76C100.445 147.773 99.1919 148.28 97.7119 148.28C96.2319 148.28 94.9785 147.773 93.9519 146.76C92.9385 145.733 92.4319 144.48 92.4319 143C92.4319 141.52 92.9385 140.273 93.9519 139.26C94.9785 138.233 96.2319 137.72 97.7119 137.72C99.1919 137.72 100.445 138.233 101.472 139.26C102.499 140.273 103.012 141.52 103.012 143C103.012 144.48 102.499 145.733 101.472 146.76ZM95.7719 144.98C96.2919 145.5 96.9385 145.76 97.7119 145.76C98.4852 145.76 99.1319 145.5 99.6519 144.98C100.172 144.46 100.432 143.8 100.432 143C100.432 142.2 100.172 141.54 99.6519 141.02C99.1319 140.5 98.4852 140.24 97.7119 140.24C96.9385 140.24 96.2919 140.5 95.7719 141.02C95.2652 141.54 95.0119 142.2 95.0119 143C95.0119 143.8 95.2652 144.46 95.7719 144.98ZM111.827 138H114.407V148H111.827V146.88C111.2 147.813 110.207 148.28 108.847 148.28C107.754 148.28 106.847 147.913 106.127 147.18C105.42 146.447 105.067 145.433 105.067 144.14V138H107.647V143.82C107.647 144.487 107.827 145 108.187 145.36C108.547 145.707 109.027 145.88 109.627 145.88C110.294 145.88 110.827 145.673 111.227 145.26C111.627 144.847 111.827 144.227 111.827 143.4V138ZM122.73 137.72C123.823 137.72 124.723 138.087 125.43 138.82C126.15 139.553 126.51 140.567 126.51 141.86V148H123.93V142.18C123.93 141.513 123.75 141.007 123.39 140.66C123.03 140.3 122.55 140.12 121.95 140.12C121.283 140.12 120.75 140.327 120.35 140.74C119.95 141.153 119.75 141.773 119.75 142.6V148H117.17V138H119.75V139.12C120.377 138.187 121.37 137.72 122.73 137.72ZM134.833 140.48H132.573V144.64C132.573 144.987 132.659 145.24 132.833 145.4C133.006 145.56 133.259 145.653 133.593 145.68C133.926 145.693 134.339 145.687 134.833 145.66V148C133.059 148.2 131.806 148.033 131.073 147.5C130.353 146.967 129.993 146.013 129.993 144.64V140.48H128.253V138H129.993V135.98L132.573 135.2V138H134.833V140.48Z" fill="#020617"/>
<path d="M206.193 62.5078C208.858 60.9575 212.15 60.9575 214.815 62.5078L260.237 88.9305C262.876 90.4657 264.499 93.2883 264.499 96.3413V143.659C264.499 146.712 262.876 149.534 260.237 151.069L214.815 177.492C212.15 179.042 208.858 179.042 206.193 177.492L160.771 151.069C158.132 149.534 156.509 146.712 156.509 143.659V96.3413C156.509 93.2883 158.132 90.4657 160.771 88.9305L206.193 62.5078Z" fill="#3940A0"/>
<mask id="mask0_1_29422" style="mask-type:alpha" maskUnits="userSpaceOnUse" x="156" y="61" width="109" height="118">
<path d="M206.184 62.5078C208.849 60.9575 212.141 60.9575 214.806 62.5078L260.228 88.9305C262.867 90.4657 264.49 93.2883 264.49 96.3413V143.659C264.49 146.712 262.867 149.534 260.228 151.069L214.806 177.492C212.141 179.042 208.849 179.042 206.184 177.492L160.762 151.069C158.124 149.534 156.5 146.712 156.5 143.659V96.3413C156.5 93.2883 158.124 90.4657 160.762 88.9305L206.184 62.5078Z" fill="#C4C4C4"/>
</mask>
<g mask="url(#mask0_1_29422)">
<rect x="179.633" y="117.111" width="9.68515" height="55.6992" fill="white"/>
<mask id="mask1_1_29422" style="mask-type:alpha" maskUnits="userSpaceOnUse" x="192" y="96" width="20" height="10">
<rect x="211.593" y="96.0994" width="9.02468" height="19.3703" transform="rotate(90 211.593 96.0994)" fill="#CD6767"/>
</mask>
<g mask="url(#mask1_1_29422)">
<path d="M192.222 105.124C192.222 103.939 192.473 102.765 192.96 101.67C193.446 100.576 194.16 99.5806 195.059 98.7426C195.958 97.9046 197.026 97.2399 198.201 96.7863C199.376 96.3328 200.636 96.0994 201.907 96.0994L201.907 105.124L192.222 105.124Z" fill="white"/>
</g>
<mask id="mask2_1_29422" style="mask-type:alpha" maskUnits="userSpaceOnUse" x="209" y="96" width="20" height="10">
<rect x="228.807" y="96.0994" width="9.02468" height="19.3703" rx="0.535841" transform="rotate(90 228.807 96.0994)" fill="#CD6767"/>
</mask>
<g mask="url(#mask2_1_29422)">
<path d="M209.973 105.124C209.677 105.124 209.435 104.884 209.454 104.588C209.594 102.39 210.593 100.308 212.274 98.7426C214.09 97.0502 216.554 96.0994 219.122 96.0994C221.691 96.0994 224.154 97.0502 225.971 98.7426C227.651 100.308 228.65 102.39 228.79 104.588C228.809 104.884 228.568 105.124 228.272 105.124L219.122 105.124L209.973 105.124Z" fill="white"/>
</g>
<path d="M215.87 129.519C216.166 129.519 216.406 129.758 216.406 130.054L216.406 138.007C216.406 138.303 216.166 138.543 215.87 138.543L189.318 138.543L189.318 129.519L215.87 129.519Z" fill="white"/>
<path d="M228.84 141.223L219.155 141.223L219.155 120.043C219.155 119.747 219.394 119.507 219.69 119.507L228.304 119.507C228.6 119.507 228.84 119.747 228.84 120.043L228.84 141.223Z" fill="white"/>
<path d="M192.201 105.12L201.886 105.12L201.886 126.3C201.886 126.596 201.646 126.836 201.35 126.836L192.737 126.836C192.441 126.836 192.201 126.596 192.201 126.3L192.201 105.12Z" fill="white"/>
<path d="M231.693 107.804L231.693 116.828L205.292 116.828C204.996 116.828 204.756 116.588 204.756 116.293L204.756 108.34C204.756 108.044 204.996 107.804 205.292 107.804L231.693 107.804Z" fill="white"/>
<path d="M219.157 141.223L219.157 150.247L192.22 150.247L192.22 141.758C192.22 141.463 192.46 141.223 192.756 141.223L219.157 141.223Z" fill="white"/>
<rect x="219.005" y="96.0994" width="9.02468" height="17.1003" transform="rotate(90 219.005 96.0994)" fill="white"/>
<mask id="mask3_1_29422" style="mask-type:alpha" maskUnits="userSpaceOnUse" x="231" y="107" width="11" height="19">
<rect x="241.364" y="125.854" width="9.68515" height="18.0494" transform="rotate(-180 241.364 125.854)" fill="#CD6767"/>
</mask>
<g mask="url(#mask3_1_29422)">
<path d="M231.679 107.804C234.248 107.804 236.711 108.755 238.527 110.448C240.344 112.14 241.364 114.436 241.364 116.829L231.679 116.829L231.679 107.804Z" fill="white"/>
</g>
<mask id="mask4_1_29422" style="mask-type:alpha" maskUnits="userSpaceOnUse" x="231" y="123" width="11" height="19">
<rect x="241.39" y="141.929" width="9.68515" height="18.0494" rx="0.535841" transform="rotate(-180 241.39 141.929)" fill="#CD6767"/>
</mask>
<g mask="url(#mask4_1_29422)">
<path d="M231.705 124.415C231.705 124.12 231.945 123.878 232.241 123.893C234.614 124.016 236.864 124.948 238.554 126.523C240.37 128.215 241.39 130.511 241.39 132.904C241.39 135.298 240.37 137.593 238.554 139.286C236.864 140.86 234.614 141.793 232.241 141.915C231.945 141.93 231.705 141.689 231.705 141.393L231.705 132.904L231.705 124.415Z" fill="white"/>
</g>
<rect x="241.39" y="132.903" width="9.68515" height="16.0752" transform="rotate(-180 241.39 132.903)" fill="white"/>
<path d="M192.224 150.247H201.91V178.477C201.91 178.773 201.67 179.013 201.374 179.013H192.76C192.464 179.013 192.224 178.773 192.224 178.477V150.247Z" fill="white"/>
<mask id="mask5_1_29422" style="mask-type:alpha" maskUnits="userSpaceOnUse" x="179" y="108" width="11" height="19">
<rect x="179.633" y="108.088" width="9.68515" height="18.0494" rx="0.535841" fill="#CD6767"/>
</mask>
<g mask="url(#mask5_1_29422)">
<ellipse cx="189.318" cy="117.113" rx="9.68515" ry="9.02468" fill="white"/>
</g>
<mask id="mask6_1_29422" style="mask-type:alpha" maskUnits="userSpaceOnUse" x="219" y="141" width="10" height="10">
<rect x="219.157" y="150.247" width="9.02468" height="9.68515" transform="rotate(-90 219.157 150.247)" fill="#CD6767"/>
</mask>
<g mask="url(#mask6_1_29422)">
<path d="M228.808 141.222C228.808 142.408 228.557 143.581 228.07 144.676C227.584 145.771 226.87 146.766 225.971 147.604C225.072 148.442 224.004 149.107 222.829 149.56C221.654 150.014 220.394 150.247 219.122 150.247L219.122 141.222L228.808 141.222Z" fill="white"/>
</g>
</g>
<rect x="12.5" y="8" width="106" height="30" rx="15" fill="#8BCE57"/>
<path d="M36.004 27L35.206 24.802H30.796L29.998 27H28.612L32.266 17.2H33.736L37.39 27H36.004ZM31.244 23.584H34.758L32.994 18.754L31.244 23.584ZM42.5641 19.818C43.5441 19.818 44.3794 20.1773 45.0701 20.896C45.7608 21.6053 46.1061 22.4733 46.1061 23.5C46.1061 24.5267 45.7608 25.3993 45.0701 26.118C44.3794 26.8273 43.5441 27.182 42.5641 27.182C41.4068 27.182 40.5248 26.72 39.9181 25.796V29.8H38.7001V20H39.9181V21.204C40.5248 20.28 41.4068 19.818 42.5641 19.818ZM42.4101 26.006C43.1101 26.006 43.6981 25.768 44.1741 25.292C44.6501 24.8067 44.8881 24.2093 44.8881 23.5C44.8881 22.7907 44.6501 22.198 44.1741 21.722C43.6981 21.2367 43.1101 20.994 42.4101 20.994C41.7008 20.994 41.1081 21.2367 40.6321 21.722C40.1561 22.198 39.9181 22.7907 39.9181 23.5C39.9181 24.2093 40.1561 24.8067 40.6321 25.292C41.1081 25.768 41.7008 26.006 42.4101 26.006ZM51.7035 19.818C52.6835 19.818 53.5188 20.1773 54.2095 20.896C54.9001 21.6053 55.2455 22.4733 55.2455 23.5C55.2455 24.5267 54.9001 25.3993 54.2095 26.118C53.5188 26.8273 52.6835 27.182 51.7035 27.182C50.5461 27.182 49.6641 26.72 49.0575 25.796V29.8H47.8395V20H49.0575V21.204C49.6641 20.28 50.5461 19.818 51.7035 19.818ZM51.5495 26.006C52.2495 26.006 52.8375 25.768 53.3135 25.292C53.7895 24.8067 54.0275 24.2093 54.0275 23.5C54.0275 22.7907 53.7895 22.198 53.3135 21.722C52.8375 21.2367 52.2495 20.994 51.5495 20.994C50.8401 20.994 50.2475 21.2367 49.7715 21.722C49.2955 22.198 49.0575 22.7907 49.0575 23.5C49.0575 24.2093 49.2955 24.8067 49.7715 25.292C50.2475 25.768 50.8401 26.006 51.5495 26.006ZM58.1968 21.176C58.5982 20.308 59.3262 19.874 60.3808 19.874V21.148C59.7835 21.12 59.2702 21.2787 58.8408 21.624C58.4115 21.9693 58.1968 22.5247 58.1968 23.29V27H56.9788V20H58.1968V21.176ZM62.3238 24.06C62.4451 24.6853 62.7298 25.1707 63.1778 25.516C63.6351 25.8613 64.1951 26.034 64.8578 26.034C65.7818 26.034 66.4538 25.6933 66.8738 25.012L67.9098 25.6C67.2284 26.6547 66.2018 27.182 64.8298 27.182C63.7191 27.182 62.8138 26.8367 62.1138 26.146C61.4231 25.446 61.0778 24.564 61.0778 23.5C61.0778 22.4453 61.4184 21.568 62.0998 20.868C62.7811 20.168 63.6631 19.818 64.7458 19.818C65.7724 19.818 66.6078 20.182 67.2518 20.91C67.9051 21.6287 68.2318 22.4967 68.2318 23.514C68.2318 23.6913 68.2178 23.8733 68.1898 24.06H62.3238ZM64.7458 20.966C64.0924 20.966 63.5511 21.1527 63.1218 21.526C62.6924 21.89 62.4264 22.38 62.3238 22.996H66.9998C66.8971 22.3333 66.6358 21.8293 66.2158 21.484C65.7958 21.1387 65.3058 20.966 64.7458 20.966ZM73.3979 19.818C74.2192 19.818 74.8772 20.0793 75.3719 20.602C75.8666 21.1153 76.1139 21.8153 76.1139 22.702V27H74.8959V22.772C74.8959 22.2027 74.7419 21.764 74.4339 21.456C74.1259 21.1387 73.7012 20.98 73.1599 20.98C72.5532 20.98 72.0632 21.1713 71.6899 21.554C71.3166 21.9273 71.1299 22.506 71.1299 23.29V27H69.9119V20H71.1299V21.008C71.6246 20.2147 72.3806 19.818 73.3979 19.818ZM81.9022 21.176H80.0402V24.97C80.0402 25.3153 80.1056 25.5627 80.2362 25.712C80.3762 25.852 80.5862 25.9267 80.8662 25.936C81.1462 25.936 81.4916 25.9267 81.9022 25.908V27C80.8382 27.14 80.0589 27.056 79.5642 26.748C79.0696 26.4307 78.8222 25.838 78.8222 24.97V21.176H77.4362V20H78.8222V18.404L80.0402 18.04V20H81.9022V21.176ZM84.2402 18.726C84.0069 18.726 83.8109 18.6467 83.6522 18.488C83.4936 18.3293 83.4142 18.138 83.4142 17.914C83.4142 17.69 83.4936 17.4987 83.6522 17.34C83.8109 17.172 84.0069 17.088 84.2402 17.088C84.4642 17.088 84.6556 17.172 84.8142 17.34C84.9729 17.4987 85.0522 17.69 85.0522 17.914C85.0522 18.138 84.9729 18.3293 84.8142 18.488C84.6556 18.6467 84.4642 18.726 84.2402 18.726ZM83.6242 27V20H84.8422V27H83.6242ZM90.2704 27.182C89.2157 27.182 88.3384 26.832 87.6384 26.132C86.9384 25.4227 86.5884 24.5453 86.5884 23.5C86.5884 22.4547 86.9384 21.582 87.6384 20.882C88.3384 20.1727 89.2157 19.818 90.2704 19.818C90.9611 19.818 91.5817 19.986 92.1324 20.322C92.6831 20.6487 93.0937 21.092 93.3644 21.652L92.3424 22.24C92.1651 21.8667 91.8897 21.568 91.5164 21.344C91.1524 21.12 90.7371 21.008 90.2704 21.008C89.5704 21.008 88.9824 21.246 88.5064 21.722C88.0397 22.198 87.8064 22.7907 87.8064 23.5C87.8064 24.2 88.0397 24.788 88.5064 25.264C88.9824 25.74 89.5704 25.978 90.2704 25.978C90.7371 25.978 91.1571 25.8707 91.5304 25.656C91.9037 25.432 92.1884 25.1333 92.3844 24.76L93.4204 25.362C93.1217 25.9127 92.6924 26.356 92.1324 26.692C91.5724 27.0187 90.9517 27.182 90.2704 27.182ZM95.6613 24.06C95.7826 24.6853 96.0673 25.1707 96.5153 25.516C96.9726 25.8613 97.5326 26.034 98.1953 26.034C99.1193 26.034 99.7913 25.6933 100.211 25.012L101.247 25.6C100.566 26.6547 99.5393 27.182 98.1673 27.182C97.0566 27.182 96.1513 26.8367 95.4513 26.146C94.7606 25.446 94.4153 24.564 94.4153 23.5C94.4153 22.4453 94.7559 21.568 95.4373 20.868C96.1186 20.168 97.0006 19.818 98.0833 19.818C99.1099 19.818 99.9453 20.182 100.589 20.91C101.243 21.6287 101.569 22.4967 101.569 23.514C101.569 23.6913 101.555 23.8733 101.527 24.06H95.6613ZM98.0833 20.966C97.4299 20.966 96.8886 21.1527 96.4593 21.526C96.0299 21.89 95.7639 22.38 95.6613 22.996H100.337C100.235 22.3333 99.9733 21.8293 99.5533 21.484C99.1333 21.1387 98.6433 20.966 98.0833 20.966Z" fill="#020617"/>
</svg>
